%TF.GenerationSoftware,KiCad,Pcbnew,(6.0.8)*%
%TF.CreationDate,2023-04-13T09:44:00+02:00*%
%TF.ProjectId,ENCODER,454e434f-4445-4522-9e6b-696361645f70,1.0*%
%TF.SameCoordinates,Original*%
%TF.FileFunction,Drillmap*%
%TF.FilePolarity,Positive*%
%FSLAX45Y45*%
G04 Gerber Fmt 4.5, Leading zero omitted, Abs format (unit mm)*
G04 Created by KiCad (PCBNEW (6.0.8)) date 2023-04-13 09:44:00*
%MOMM*%
%LPD*%
G01*
G04 APERTURE LIST*
%ADD10C,0.100000*%
%ADD11C,0.200000*%
%ADD12C,0.030000*%
%ADD13C,0.050000*%
%ADD14C,0.080000*%
%ADD15C,0.095000*%
%ADD16C,0.320000*%
G04 APERTURE END LIST*
D10*
X11000000Y-10500000D02*
G75*
G03*
X11300000Y-10800000I300000J0D01*
G01*
X13500000Y-10800000D02*
G75*
G03*
X13800000Y-10500000I0J300000D01*
G01*
X11300000Y-8000000D02*
G75*
G03*
X11000000Y-8300000I0J-300000D01*
G01*
X13500000Y-8000000D02*
X11300000Y-8000000D01*
X13800000Y-8300000D02*
G75*
G03*
X13500000Y-8000000I-300000J0D01*
G01*
X13800000Y-10500000D02*
X13800000Y-8300000D01*
X11000000Y-8300000D02*
X11000000Y-10500000D01*
X11300000Y-10800000D02*
X13500000Y-10800000D01*
D11*
D12*
X11919720Y-9322000D02*
X11949720Y-9352000D01*
X11949720Y-9322000D02*
X11919720Y-9352000D01*
X12858100Y-9449000D02*
X12888100Y-9479000D01*
X12888100Y-9449000D02*
X12858100Y-9479000D01*
X12925000Y-9271200D02*
X12955000Y-9301200D01*
X12955000Y-9271200D02*
X12925000Y-9301200D01*
D13*
X11135000Y-8350000D02*
G75*
G03*
X11135000Y-8350000I-25000J0D01*
G01*
X11135000Y-10450000D02*
G75*
G03*
X11135000Y-10450000I-25000J0D01*
G01*
X11205294Y-8180294D02*
G75*
G03*
X11205294Y-8180294I-25000J0D01*
G01*
X11205294Y-8519706D02*
G75*
G03*
X11205294Y-8519706I-25000J0D01*
G01*
X11205294Y-10280294D02*
G75*
G03*
X11205294Y-10280294I-25000J0D01*
G01*
X11205294Y-10619706D02*
G75*
G03*
X11205294Y-10619706I-25000J0D01*
G01*
X11375000Y-8110000D02*
G75*
G03*
X11375000Y-8110000I-25000J0D01*
G01*
X11375000Y-8590000D02*
G75*
G03*
X11375000Y-8590000I-25000J0D01*
G01*
X11375000Y-10210000D02*
G75*
G03*
X11375000Y-10210000I-25000J0D01*
G01*
X11375000Y-10690000D02*
G75*
G03*
X11375000Y-10690000I-25000J0D01*
G01*
X11544706Y-8180294D02*
G75*
G03*
X11544706Y-8180294I-25000J0D01*
G01*
X11544706Y-8519706D02*
G75*
G03*
X11544706Y-8519706I-25000J0D01*
G01*
X11544706Y-10280294D02*
G75*
G03*
X11544706Y-10280294I-25000J0D01*
G01*
X11544706Y-10619706D02*
G75*
G03*
X11544706Y-10619706I-25000J0D01*
G01*
X11615000Y-8350000D02*
G75*
G03*
X11615000Y-8350000I-25000J0D01*
G01*
X11615000Y-10450000D02*
G75*
G03*
X11615000Y-10450000I-25000J0D01*
G01*
X13235000Y-8350000D02*
G75*
G03*
X13235000Y-8350000I-25000J0D01*
G01*
X13235000Y-10450000D02*
G75*
G03*
X13235000Y-10450000I-25000J0D01*
G01*
X13305294Y-8180294D02*
G75*
G03*
X13305294Y-8180294I-25000J0D01*
G01*
X13305294Y-8519706D02*
G75*
G03*
X13305294Y-8519706I-25000J0D01*
G01*
X13305294Y-10280294D02*
G75*
G03*
X13305294Y-10280294I-25000J0D01*
G01*
X13305294Y-10619706D02*
G75*
G03*
X13305294Y-10619706I-25000J0D01*
G01*
X13475000Y-8110000D02*
G75*
G03*
X13475000Y-8110000I-25000J0D01*
G01*
X13475000Y-8590000D02*
G75*
G03*
X13475000Y-8590000I-25000J0D01*
G01*
X13475000Y-10210000D02*
G75*
G03*
X13475000Y-10210000I-25000J0D01*
G01*
X13475000Y-10690000D02*
G75*
G03*
X13475000Y-10690000I-25000J0D01*
G01*
X13644706Y-8180294D02*
G75*
G03*
X13644706Y-8180294I-25000J0D01*
G01*
X13644706Y-8519706D02*
G75*
G03*
X13644706Y-8519706I-25000J0D01*
G01*
X13644706Y-10280294D02*
G75*
G03*
X13644706Y-10280294I-25000J0D01*
G01*
X13644706Y-10619706D02*
G75*
G03*
X13644706Y-10619706I-25000J0D01*
G01*
X13715000Y-8350000D02*
G75*
G03*
X13715000Y-8350000I-25000J0D01*
G01*
X13715000Y-10450000D02*
G75*
G03*
X13715000Y-10450000I-25000J0D01*
G01*
D14*
X13246000Y-8948000D02*
X13246000Y-9028000D01*
X13206000Y-8988000D02*
X13286000Y-8988000D01*
X13246000Y-9710000D02*
X13246000Y-9790000D01*
X13206000Y-9750000D02*
X13286000Y-9750000D01*
X13500000Y-8948000D02*
X13500000Y-9028000D01*
X13460000Y-8988000D02*
X13540000Y-8988000D01*
X13500000Y-9710000D02*
X13500000Y-9790000D01*
X13460000Y-9750000D02*
X13540000Y-9750000D01*
D15*
X11331088Y-9183588D02*
X11331088Y-9116412D01*
X11263912Y-9116412D01*
X11263912Y-9183588D01*
X11331088Y-9183588D01*
X11331088Y-9433588D02*
X11331088Y-9366412D01*
X11263912Y-9366412D01*
X11263912Y-9433588D01*
X11331088Y-9433588D01*
X11331088Y-9683588D02*
X11331088Y-9616412D01*
X11263912Y-9616412D01*
X11263912Y-9683588D01*
X11331088Y-9683588D01*
X12058588Y-8331088D02*
X12058588Y-8263912D01*
X11991412Y-8263912D01*
X11991412Y-8331088D01*
X12058588Y-8331088D01*
X12308588Y-8331088D02*
X12308588Y-8263912D01*
X12241412Y-8263912D01*
X12241412Y-8331088D01*
X12308588Y-8331088D01*
X12558588Y-8331088D02*
X12558588Y-8263912D01*
X12491412Y-8263912D01*
X12491412Y-8331088D01*
X12558588Y-8331088D01*
X12808588Y-8331088D02*
X12808588Y-8263912D01*
X12741412Y-8263912D01*
X12741412Y-8331088D01*
X12808588Y-8331088D01*
D10*
X11934720Y-9878800D02*
X11984720Y-9828800D01*
X11934720Y-9778800D01*
X11884720Y-9828800D01*
X11934720Y-9878800D01*
X11934720Y-10132800D02*
X11984720Y-10082800D01*
X11934720Y-10032800D01*
X11884720Y-10082800D01*
X11934720Y-10132800D01*
D16*
X11190000Y-8190000D02*
X11510000Y-8510000D01*
X11510000Y-8190000D02*
X11190000Y-8510000D01*
X11510000Y-8350000D02*
G75*
G03*
X11510000Y-8350000I-160000J0D01*
G01*
X11190000Y-10290000D02*
X11510000Y-10610000D01*
X11510000Y-10290000D02*
X11190000Y-10610000D01*
X11510000Y-10450000D02*
G75*
G03*
X11510000Y-10450000I-160000J0D01*
G01*
X13290000Y-8190000D02*
X13610000Y-8510000D01*
X13610000Y-8190000D02*
X13290000Y-8510000D01*
X13610000Y-8350000D02*
G75*
G03*
X13610000Y-8350000I-160000J0D01*
G01*
X13290000Y-10290000D02*
X13610000Y-10610000D01*
X13610000Y-10290000D02*
X13290000Y-10610000D01*
X13610000Y-10450000D02*
G75*
G03*
X13610000Y-10450000I-160000J0D01*
G01*
D11*
X11252619Y-11115476D02*
X11252619Y-10915476D01*
X11300238Y-10915476D01*
X11328809Y-10925000D01*
X11347857Y-10944048D01*
X11357381Y-10963095D01*
X11366905Y-11001190D01*
X11366905Y-11029762D01*
X11357381Y-11067857D01*
X11347857Y-11086905D01*
X11328809Y-11105952D01*
X11300238Y-11115476D01*
X11252619Y-11115476D01*
X11452619Y-11115476D02*
X11452619Y-10982143D01*
X11452619Y-11020238D02*
X11462143Y-11001190D01*
X11471667Y-10991667D01*
X11490714Y-10982143D01*
X11509762Y-10982143D01*
X11576428Y-11115476D02*
X11576428Y-10982143D01*
X11576428Y-10915476D02*
X11566905Y-10925000D01*
X11576428Y-10934524D01*
X11585952Y-10925000D01*
X11576428Y-10915476D01*
X11576428Y-10934524D01*
X11700238Y-11115476D02*
X11681190Y-11105952D01*
X11671667Y-11086905D01*
X11671667Y-10915476D01*
X11805000Y-11115476D02*
X11785952Y-11105952D01*
X11776428Y-11086905D01*
X11776428Y-10915476D01*
X12033571Y-11115476D02*
X12033571Y-10915476D01*
X12100238Y-11058333D01*
X12166905Y-10915476D01*
X12166905Y-11115476D01*
X12347857Y-11115476D02*
X12347857Y-11010714D01*
X12338333Y-10991667D01*
X12319286Y-10982143D01*
X12281190Y-10982143D01*
X12262143Y-10991667D01*
X12347857Y-11105952D02*
X12328809Y-11115476D01*
X12281190Y-11115476D01*
X12262143Y-11105952D01*
X12252619Y-11086905D01*
X12252619Y-11067857D01*
X12262143Y-11048810D01*
X12281190Y-11039286D01*
X12328809Y-11039286D01*
X12347857Y-11029762D01*
X12443095Y-10982143D02*
X12443095Y-11182143D01*
X12443095Y-10991667D02*
X12462143Y-10982143D01*
X12500238Y-10982143D01*
X12519286Y-10991667D01*
X12528809Y-11001190D01*
X12538333Y-11020238D01*
X12538333Y-11077381D01*
X12528809Y-11096429D01*
X12519286Y-11105952D01*
X12500238Y-11115476D01*
X12462143Y-11115476D01*
X12443095Y-11105952D01*
X12624048Y-11096429D02*
X12633571Y-11105952D01*
X12624048Y-11115476D01*
X12614524Y-11105952D01*
X12624048Y-11096429D01*
X12624048Y-11115476D01*
X12624048Y-10991667D02*
X12633571Y-11001190D01*
X12624048Y-11010714D01*
X12614524Y-11001190D01*
X12624048Y-10991667D01*
X12624048Y-11010714D01*
D12*
X10965000Y-11430000D02*
X10995000Y-11460000D01*
X10995000Y-11430000D02*
X10965000Y-11460000D01*
D11*
X11290714Y-11335476D02*
X11309762Y-11335476D01*
X11328809Y-11345000D01*
X11338333Y-11354524D01*
X11347857Y-11373571D01*
X11357381Y-11411667D01*
X11357381Y-11459286D01*
X11347857Y-11497381D01*
X11338333Y-11516428D01*
X11328809Y-11525952D01*
X11309762Y-11535476D01*
X11290714Y-11535476D01*
X11271667Y-11525952D01*
X11262143Y-11516428D01*
X11252619Y-11497381D01*
X11243095Y-11459286D01*
X11243095Y-11411667D01*
X11252619Y-11373571D01*
X11262143Y-11354524D01*
X11271667Y-11345000D01*
X11290714Y-11335476D01*
X11443095Y-11516428D02*
X11452619Y-11525952D01*
X11443095Y-11535476D01*
X11433571Y-11525952D01*
X11443095Y-11516428D01*
X11443095Y-11535476D01*
X11519286Y-11335476D02*
X11643095Y-11335476D01*
X11576428Y-11411667D01*
X11605000Y-11411667D01*
X11624048Y-11421190D01*
X11633571Y-11430714D01*
X11643095Y-11449762D01*
X11643095Y-11497381D01*
X11633571Y-11516428D01*
X11624048Y-11525952D01*
X11605000Y-11535476D01*
X11547857Y-11535476D01*
X11528809Y-11525952D01*
X11519286Y-11516428D01*
X11766905Y-11335476D02*
X11785952Y-11335476D01*
X11805000Y-11345000D01*
X11814524Y-11354524D01*
X11824048Y-11373571D01*
X11833571Y-11411667D01*
X11833571Y-11459286D01*
X11824048Y-11497381D01*
X11814524Y-11516428D01*
X11805000Y-11525952D01*
X11785952Y-11535476D01*
X11766905Y-11535476D01*
X11747857Y-11525952D01*
X11738333Y-11516428D01*
X11728809Y-11497381D01*
X11719286Y-11459286D01*
X11719286Y-11411667D01*
X11728809Y-11373571D01*
X11738333Y-11354524D01*
X11747857Y-11345000D01*
X11766905Y-11335476D01*
X11957381Y-11335476D02*
X11976428Y-11335476D01*
X11995476Y-11345000D01*
X12005000Y-11354524D01*
X12014524Y-11373571D01*
X12024048Y-11411667D01*
X12024048Y-11459286D01*
X12014524Y-11497381D01*
X12005000Y-11516428D01*
X11995476Y-11525952D01*
X11976428Y-11535476D01*
X11957381Y-11535476D01*
X11938333Y-11525952D01*
X11928809Y-11516428D01*
X11919286Y-11497381D01*
X11909762Y-11459286D01*
X11909762Y-11411667D01*
X11919286Y-11373571D01*
X11928809Y-11354524D01*
X11938333Y-11345000D01*
X11957381Y-11335476D01*
X12109762Y-11535476D02*
X12109762Y-11402143D01*
X12109762Y-11421190D02*
X12119286Y-11411667D01*
X12138333Y-11402143D01*
X12166905Y-11402143D01*
X12185952Y-11411667D01*
X12195476Y-11430714D01*
X12195476Y-11535476D01*
X12195476Y-11430714D02*
X12205000Y-11411667D01*
X12224048Y-11402143D01*
X12252619Y-11402143D01*
X12271667Y-11411667D01*
X12281190Y-11430714D01*
X12281190Y-11535476D01*
X12376428Y-11535476D02*
X12376428Y-11402143D01*
X12376428Y-11421190D02*
X12385952Y-11411667D01*
X12405000Y-11402143D01*
X12433571Y-11402143D01*
X12452619Y-11411667D01*
X12462143Y-11430714D01*
X12462143Y-11535476D01*
X12462143Y-11430714D02*
X12471667Y-11411667D01*
X12490714Y-11402143D01*
X12519286Y-11402143D01*
X12538333Y-11411667D01*
X12547857Y-11430714D01*
X12547857Y-11535476D01*
X12938333Y-11325952D02*
X12766905Y-11583095D01*
X13195476Y-11335476D02*
X13214524Y-11335476D01*
X13233571Y-11345000D01*
X13243095Y-11354524D01*
X13252619Y-11373571D01*
X13262143Y-11411667D01*
X13262143Y-11459286D01*
X13252619Y-11497381D01*
X13243095Y-11516428D01*
X13233571Y-11525952D01*
X13214524Y-11535476D01*
X13195476Y-11535476D01*
X13176428Y-11525952D01*
X13166905Y-11516428D01*
X13157381Y-11497381D01*
X13147857Y-11459286D01*
X13147857Y-11411667D01*
X13157381Y-11373571D01*
X13166905Y-11354524D01*
X13176428Y-11345000D01*
X13195476Y-11335476D01*
X13347857Y-11516428D02*
X13357381Y-11525952D01*
X13347857Y-11535476D01*
X13338333Y-11525952D01*
X13347857Y-11516428D01*
X13347857Y-11535476D01*
X13481190Y-11335476D02*
X13500238Y-11335476D01*
X13519286Y-11345000D01*
X13528809Y-11354524D01*
X13538333Y-11373571D01*
X13547857Y-11411667D01*
X13547857Y-11459286D01*
X13538333Y-11497381D01*
X13528809Y-11516428D01*
X13519286Y-11525952D01*
X13500238Y-11535476D01*
X13481190Y-11535476D01*
X13462143Y-11525952D01*
X13452619Y-11516428D01*
X13443095Y-11497381D01*
X13433571Y-11459286D01*
X13433571Y-11411667D01*
X13443095Y-11373571D01*
X13452619Y-11354524D01*
X13462143Y-11345000D01*
X13481190Y-11335476D01*
X13738333Y-11535476D02*
X13624048Y-11535476D01*
X13681190Y-11535476D02*
X13681190Y-11335476D01*
X13662143Y-11364048D01*
X13643095Y-11383095D01*
X13624048Y-11392619D01*
X13928809Y-11535476D02*
X13814524Y-11535476D01*
X13871667Y-11535476D02*
X13871667Y-11335476D01*
X13852619Y-11364048D01*
X13833571Y-11383095D01*
X13814524Y-11392619D01*
X14043095Y-11421190D02*
X14024048Y-11411667D01*
X14014524Y-11402143D01*
X14005000Y-11383095D01*
X14005000Y-11373571D01*
X14014524Y-11354524D01*
X14024048Y-11345000D01*
X14043095Y-11335476D01*
X14081190Y-11335476D01*
X14100238Y-11345000D01*
X14109762Y-11354524D01*
X14119286Y-11373571D01*
X14119286Y-11383095D01*
X14109762Y-11402143D01*
X14100238Y-11411667D01*
X14081190Y-11421190D01*
X14043095Y-11421190D01*
X14024048Y-11430714D01*
X14014524Y-11440238D01*
X14005000Y-11459286D01*
X14005000Y-11497381D01*
X14014524Y-11516428D01*
X14024048Y-11525952D01*
X14043095Y-11535476D01*
X14081190Y-11535476D01*
X14100238Y-11525952D01*
X14109762Y-11516428D01*
X14119286Y-11497381D01*
X14119286Y-11459286D01*
X14109762Y-11440238D01*
X14100238Y-11430714D01*
X14081190Y-11421190D01*
X14195476Y-11335476D02*
X14195476Y-11373571D01*
X14271667Y-11335476D02*
X14271667Y-11373571D01*
X14566905Y-11611667D02*
X14557381Y-11602143D01*
X14538333Y-11573571D01*
X14528809Y-11554524D01*
X14519286Y-11525952D01*
X14509762Y-11478333D01*
X14509762Y-11440238D01*
X14519286Y-11392619D01*
X14528809Y-11364048D01*
X14538333Y-11345000D01*
X14557381Y-11316428D01*
X14566905Y-11306905D01*
X14624048Y-11335476D02*
X14747857Y-11335476D01*
X14681190Y-11411667D01*
X14709762Y-11411667D01*
X14728809Y-11421190D01*
X14738333Y-11430714D01*
X14747857Y-11449762D01*
X14747857Y-11497381D01*
X14738333Y-11516428D01*
X14728809Y-11525952D01*
X14709762Y-11535476D01*
X14652619Y-11535476D01*
X14633571Y-11525952D01*
X14624048Y-11516428D01*
X14985952Y-11535476D02*
X14985952Y-11335476D01*
X15071667Y-11535476D02*
X15071667Y-11430714D01*
X15062143Y-11411667D01*
X15043095Y-11402143D01*
X15014524Y-11402143D01*
X14995476Y-11411667D01*
X14985952Y-11421190D01*
X15195476Y-11535476D02*
X15176428Y-11525952D01*
X15166905Y-11516428D01*
X15157381Y-11497381D01*
X15157381Y-11440238D01*
X15166905Y-11421190D01*
X15176428Y-11411667D01*
X15195476Y-11402143D01*
X15224048Y-11402143D01*
X15243095Y-11411667D01*
X15252619Y-11421190D01*
X15262143Y-11440238D01*
X15262143Y-11497381D01*
X15252619Y-11516428D01*
X15243095Y-11525952D01*
X15224048Y-11535476D01*
X15195476Y-11535476D01*
X15376428Y-11535476D02*
X15357381Y-11525952D01*
X15347857Y-11506905D01*
X15347857Y-11335476D01*
X15528809Y-11525952D02*
X15509762Y-11535476D01*
X15471667Y-11535476D01*
X15452619Y-11525952D01*
X15443095Y-11506905D01*
X15443095Y-11430714D01*
X15452619Y-11411667D01*
X15471667Y-11402143D01*
X15509762Y-11402143D01*
X15528809Y-11411667D01*
X15538333Y-11430714D01*
X15538333Y-11449762D01*
X15443095Y-11468809D01*
X15614524Y-11525952D02*
X15633571Y-11535476D01*
X15671667Y-11535476D01*
X15690714Y-11525952D01*
X15700238Y-11506905D01*
X15700238Y-11497381D01*
X15690714Y-11478333D01*
X15671667Y-11468809D01*
X15643095Y-11468809D01*
X15624048Y-11459286D01*
X15614524Y-11440238D01*
X15614524Y-11430714D01*
X15624048Y-11411667D01*
X15643095Y-11402143D01*
X15671667Y-11402143D01*
X15690714Y-11411667D01*
X15766905Y-11611667D02*
X15776428Y-11602143D01*
X15795476Y-11573571D01*
X15805000Y-11554524D01*
X15814524Y-11525952D01*
X15824048Y-11478333D01*
X15824048Y-11440238D01*
X15814524Y-11392619D01*
X15805000Y-11364048D01*
X15795476Y-11345000D01*
X15776428Y-11316428D01*
X15766905Y-11306905D01*
D13*
X10995000Y-11709000D02*
G75*
G03*
X10995000Y-11709000I-25000J0D01*
G01*
D11*
X11290714Y-11599476D02*
X11309762Y-11599476D01*
X11328809Y-11609000D01*
X11338333Y-11618524D01*
X11347857Y-11637571D01*
X11357381Y-11675667D01*
X11357381Y-11723286D01*
X11347857Y-11761381D01*
X11338333Y-11780428D01*
X11328809Y-11789952D01*
X11309762Y-11799476D01*
X11290714Y-11799476D01*
X11271667Y-11789952D01*
X11262143Y-11780428D01*
X11252619Y-11761381D01*
X11243095Y-11723286D01*
X11243095Y-11675667D01*
X11252619Y-11637571D01*
X11262143Y-11618524D01*
X11271667Y-11609000D01*
X11290714Y-11599476D01*
X11443095Y-11780428D02*
X11452619Y-11789952D01*
X11443095Y-11799476D01*
X11433571Y-11789952D01*
X11443095Y-11780428D01*
X11443095Y-11799476D01*
X11633571Y-11599476D02*
X11538333Y-11599476D01*
X11528809Y-11694714D01*
X11538333Y-11685190D01*
X11557381Y-11675667D01*
X11605000Y-11675667D01*
X11624048Y-11685190D01*
X11633571Y-11694714D01*
X11643095Y-11713762D01*
X11643095Y-11761381D01*
X11633571Y-11780428D01*
X11624048Y-11789952D01*
X11605000Y-11799476D01*
X11557381Y-11799476D01*
X11538333Y-11789952D01*
X11528809Y-11780428D01*
X11766905Y-11599476D02*
X11785952Y-11599476D01*
X11805000Y-11609000D01*
X11814524Y-11618524D01*
X11824048Y-11637571D01*
X11833571Y-11675667D01*
X11833571Y-11723286D01*
X11824048Y-11761381D01*
X11814524Y-11780428D01*
X11805000Y-11789952D01*
X11785952Y-11799476D01*
X11766905Y-11799476D01*
X11747857Y-11789952D01*
X11738333Y-11780428D01*
X11728809Y-11761381D01*
X11719286Y-11723286D01*
X11719286Y-11675667D01*
X11728809Y-11637571D01*
X11738333Y-11618524D01*
X11747857Y-11609000D01*
X11766905Y-11599476D01*
X11957381Y-11599476D02*
X11976428Y-11599476D01*
X11995476Y-11609000D01*
X12005000Y-11618524D01*
X12014524Y-11637571D01*
X12024048Y-11675667D01*
X12024048Y-11723286D01*
X12014524Y-11761381D01*
X12005000Y-11780428D01*
X11995476Y-11789952D01*
X11976428Y-11799476D01*
X11957381Y-11799476D01*
X11938333Y-11789952D01*
X11928809Y-11780428D01*
X11919286Y-11761381D01*
X11909762Y-11723286D01*
X11909762Y-11675667D01*
X11919286Y-11637571D01*
X11928809Y-11618524D01*
X11938333Y-11609000D01*
X11957381Y-11599476D01*
X12109762Y-11799476D02*
X12109762Y-11666143D01*
X12109762Y-11685190D02*
X12119286Y-11675667D01*
X12138333Y-11666143D01*
X12166905Y-11666143D01*
X12185952Y-11675667D01*
X12195476Y-11694714D01*
X12195476Y-11799476D01*
X12195476Y-11694714D02*
X12205000Y-11675667D01*
X12224048Y-11666143D01*
X12252619Y-11666143D01*
X12271667Y-11675667D01*
X12281190Y-11694714D01*
X12281190Y-11799476D01*
X12376428Y-11799476D02*
X12376428Y-11666143D01*
X12376428Y-11685190D02*
X12385952Y-11675667D01*
X12405000Y-11666143D01*
X12433571Y-11666143D01*
X12452619Y-11675667D01*
X12462143Y-11694714D01*
X12462143Y-11799476D01*
X12462143Y-11694714D02*
X12471667Y-11675667D01*
X12490714Y-11666143D01*
X12519286Y-11666143D01*
X12538333Y-11675667D01*
X12547857Y-11694714D01*
X12547857Y-11799476D01*
X12938333Y-11589952D02*
X12766905Y-11847095D01*
X13195476Y-11599476D02*
X13214524Y-11599476D01*
X13233571Y-11609000D01*
X13243095Y-11618524D01*
X13252619Y-11637571D01*
X13262143Y-11675667D01*
X13262143Y-11723286D01*
X13252619Y-11761381D01*
X13243095Y-11780428D01*
X13233571Y-11789952D01*
X13214524Y-11799476D01*
X13195476Y-11799476D01*
X13176428Y-11789952D01*
X13166905Y-11780428D01*
X13157381Y-11761381D01*
X13147857Y-11723286D01*
X13147857Y-11675667D01*
X13157381Y-11637571D01*
X13166905Y-11618524D01*
X13176428Y-11609000D01*
X13195476Y-11599476D01*
X13347857Y-11780428D02*
X13357381Y-11789952D01*
X13347857Y-11799476D01*
X13338333Y-11789952D01*
X13347857Y-11780428D01*
X13347857Y-11799476D01*
X13481190Y-11599476D02*
X13500238Y-11599476D01*
X13519286Y-11609000D01*
X13528809Y-11618524D01*
X13538333Y-11637571D01*
X13547857Y-11675667D01*
X13547857Y-11723286D01*
X13538333Y-11761381D01*
X13528809Y-11780428D01*
X13519286Y-11789952D01*
X13500238Y-11799476D01*
X13481190Y-11799476D01*
X13462143Y-11789952D01*
X13452619Y-11780428D01*
X13443095Y-11761381D01*
X13433571Y-11723286D01*
X13433571Y-11675667D01*
X13443095Y-11637571D01*
X13452619Y-11618524D01*
X13462143Y-11609000D01*
X13481190Y-11599476D01*
X13738333Y-11799476D02*
X13624048Y-11799476D01*
X13681190Y-11799476D02*
X13681190Y-11599476D01*
X13662143Y-11628048D01*
X13643095Y-11647095D01*
X13624048Y-11656619D01*
X13833571Y-11799476D02*
X13871667Y-11799476D01*
X13890714Y-11789952D01*
X13900238Y-11780428D01*
X13919286Y-11751857D01*
X13928809Y-11713762D01*
X13928809Y-11637571D01*
X13919286Y-11618524D01*
X13909762Y-11609000D01*
X13890714Y-11599476D01*
X13852619Y-11599476D01*
X13833571Y-11609000D01*
X13824048Y-11618524D01*
X13814524Y-11637571D01*
X13814524Y-11685190D01*
X13824048Y-11704238D01*
X13833571Y-11713762D01*
X13852619Y-11723286D01*
X13890714Y-11723286D01*
X13909762Y-11713762D01*
X13919286Y-11704238D01*
X13928809Y-11685190D01*
X13995476Y-11599476D02*
X14128809Y-11599476D01*
X14043095Y-11799476D01*
X14195476Y-11599476D02*
X14195476Y-11637571D01*
X14271667Y-11599476D02*
X14271667Y-11637571D01*
X14566905Y-11875667D02*
X14557381Y-11866143D01*
X14538333Y-11837571D01*
X14528809Y-11818524D01*
X14519286Y-11789952D01*
X14509762Y-11742333D01*
X14509762Y-11704238D01*
X14519286Y-11656619D01*
X14528809Y-11628048D01*
X14538333Y-11609000D01*
X14557381Y-11580428D01*
X14566905Y-11570905D01*
X14624048Y-11599476D02*
X14747857Y-11599476D01*
X14681190Y-11675667D01*
X14709762Y-11675667D01*
X14728809Y-11685190D01*
X14738333Y-11694714D01*
X14747857Y-11713762D01*
X14747857Y-11761381D01*
X14738333Y-11780428D01*
X14728809Y-11789952D01*
X14709762Y-11799476D01*
X14652619Y-11799476D01*
X14633571Y-11789952D01*
X14624048Y-11780428D01*
X14824048Y-11618524D02*
X14833571Y-11609000D01*
X14852619Y-11599476D01*
X14900238Y-11599476D01*
X14919286Y-11609000D01*
X14928809Y-11618524D01*
X14938333Y-11637571D01*
X14938333Y-11656619D01*
X14928809Y-11685190D01*
X14814524Y-11799476D01*
X14938333Y-11799476D01*
X15176428Y-11799476D02*
X15176428Y-11599476D01*
X15262143Y-11799476D02*
X15262143Y-11694714D01*
X15252619Y-11675667D01*
X15233571Y-11666143D01*
X15205000Y-11666143D01*
X15185952Y-11675667D01*
X15176428Y-11685190D01*
X15385952Y-11799476D02*
X15366905Y-11789952D01*
X15357381Y-11780428D01*
X15347857Y-11761381D01*
X15347857Y-11704238D01*
X15357381Y-11685190D01*
X15366905Y-11675667D01*
X15385952Y-11666143D01*
X15414524Y-11666143D01*
X15433571Y-11675667D01*
X15443095Y-11685190D01*
X15452619Y-11704238D01*
X15452619Y-11761381D01*
X15443095Y-11780428D01*
X15433571Y-11789952D01*
X15414524Y-11799476D01*
X15385952Y-11799476D01*
X15566905Y-11799476D02*
X15547857Y-11789952D01*
X15538333Y-11770905D01*
X15538333Y-11599476D01*
X15719286Y-11789952D02*
X15700238Y-11799476D01*
X15662143Y-11799476D01*
X15643095Y-11789952D01*
X15633571Y-11770905D01*
X15633571Y-11694714D01*
X15643095Y-11675667D01*
X15662143Y-11666143D01*
X15700238Y-11666143D01*
X15719286Y-11675667D01*
X15728809Y-11694714D01*
X15728809Y-11713762D01*
X15633571Y-11732809D01*
X15805000Y-11789952D02*
X15824048Y-11799476D01*
X15862143Y-11799476D01*
X15881190Y-11789952D01*
X15890714Y-11770905D01*
X15890714Y-11761381D01*
X15881190Y-11742333D01*
X15862143Y-11732809D01*
X15833571Y-11732809D01*
X15814524Y-11723286D01*
X15805000Y-11704238D01*
X15805000Y-11694714D01*
X15814524Y-11675667D01*
X15833571Y-11666143D01*
X15862143Y-11666143D01*
X15881190Y-11675667D01*
X15957381Y-11875667D02*
X15966905Y-11866143D01*
X15985952Y-11837571D01*
X15995476Y-11818524D01*
X16005000Y-11789952D01*
X16014524Y-11742333D01*
X16014524Y-11704238D01*
X16005000Y-11656619D01*
X15995476Y-11628048D01*
X15985952Y-11609000D01*
X15966905Y-11580428D01*
X15957381Y-11570905D01*
D14*
X10955000Y-11933000D02*
X10955000Y-12013000D01*
X10915000Y-11973000D02*
X10995000Y-11973000D01*
D11*
X11290714Y-11863476D02*
X11309762Y-11863476D01*
X11328809Y-11873000D01*
X11338333Y-11882524D01*
X11347857Y-11901571D01*
X11357381Y-11939667D01*
X11357381Y-11987286D01*
X11347857Y-12025381D01*
X11338333Y-12044428D01*
X11328809Y-12053952D01*
X11309762Y-12063476D01*
X11290714Y-12063476D01*
X11271667Y-12053952D01*
X11262143Y-12044428D01*
X11252619Y-12025381D01*
X11243095Y-11987286D01*
X11243095Y-11939667D01*
X11252619Y-11901571D01*
X11262143Y-11882524D01*
X11271667Y-11873000D01*
X11290714Y-11863476D01*
X11443095Y-12044428D02*
X11452619Y-12053952D01*
X11443095Y-12063476D01*
X11433571Y-12053952D01*
X11443095Y-12044428D01*
X11443095Y-12063476D01*
X11566905Y-11949190D02*
X11547857Y-11939667D01*
X11538333Y-11930143D01*
X11528809Y-11911095D01*
X11528809Y-11901571D01*
X11538333Y-11882524D01*
X11547857Y-11873000D01*
X11566905Y-11863476D01*
X11605000Y-11863476D01*
X11624048Y-11873000D01*
X11633571Y-11882524D01*
X11643095Y-11901571D01*
X11643095Y-11911095D01*
X11633571Y-11930143D01*
X11624048Y-11939667D01*
X11605000Y-11949190D01*
X11566905Y-11949190D01*
X11547857Y-11958714D01*
X11538333Y-11968238D01*
X11528809Y-11987286D01*
X11528809Y-12025381D01*
X11538333Y-12044428D01*
X11547857Y-12053952D01*
X11566905Y-12063476D01*
X11605000Y-12063476D01*
X11624048Y-12053952D01*
X11633571Y-12044428D01*
X11643095Y-12025381D01*
X11643095Y-11987286D01*
X11633571Y-11968238D01*
X11624048Y-11958714D01*
X11605000Y-11949190D01*
X11766905Y-11863476D02*
X11785952Y-11863476D01*
X11805000Y-11873000D01*
X11814524Y-11882524D01*
X11824048Y-11901571D01*
X11833571Y-11939667D01*
X11833571Y-11987286D01*
X11824048Y-12025381D01*
X11814524Y-12044428D01*
X11805000Y-12053952D01*
X11785952Y-12063476D01*
X11766905Y-12063476D01*
X11747857Y-12053952D01*
X11738333Y-12044428D01*
X11728809Y-12025381D01*
X11719286Y-11987286D01*
X11719286Y-11939667D01*
X11728809Y-11901571D01*
X11738333Y-11882524D01*
X11747857Y-11873000D01*
X11766905Y-11863476D01*
X11957381Y-11863476D02*
X11976428Y-11863476D01*
X11995476Y-11873000D01*
X12005000Y-11882524D01*
X12014524Y-11901571D01*
X12024048Y-11939667D01*
X12024048Y-11987286D01*
X12014524Y-12025381D01*
X12005000Y-12044428D01*
X11995476Y-12053952D01*
X11976428Y-12063476D01*
X11957381Y-12063476D01*
X11938333Y-12053952D01*
X11928809Y-12044428D01*
X11919286Y-12025381D01*
X11909762Y-11987286D01*
X11909762Y-11939667D01*
X11919286Y-11901571D01*
X11928809Y-11882524D01*
X11938333Y-11873000D01*
X11957381Y-11863476D01*
X12109762Y-12063476D02*
X12109762Y-11930143D01*
X12109762Y-11949190D02*
X12119286Y-11939667D01*
X12138333Y-11930143D01*
X12166905Y-11930143D01*
X12185952Y-11939667D01*
X12195476Y-11958714D01*
X12195476Y-12063476D01*
X12195476Y-11958714D02*
X12205000Y-11939667D01*
X12224048Y-11930143D01*
X12252619Y-11930143D01*
X12271667Y-11939667D01*
X12281190Y-11958714D01*
X12281190Y-12063476D01*
X12376428Y-12063476D02*
X12376428Y-11930143D01*
X12376428Y-11949190D02*
X12385952Y-11939667D01*
X12405000Y-11930143D01*
X12433571Y-11930143D01*
X12452619Y-11939667D01*
X12462143Y-11958714D01*
X12462143Y-12063476D01*
X12462143Y-11958714D02*
X12471667Y-11939667D01*
X12490714Y-11930143D01*
X12519286Y-11930143D01*
X12538333Y-11939667D01*
X12547857Y-11958714D01*
X12547857Y-12063476D01*
X12938333Y-11853952D02*
X12766905Y-12111095D01*
X13195476Y-11863476D02*
X13214524Y-11863476D01*
X13233571Y-11873000D01*
X13243095Y-11882524D01*
X13252619Y-11901571D01*
X13262143Y-11939667D01*
X13262143Y-11987286D01*
X13252619Y-12025381D01*
X13243095Y-12044428D01*
X13233571Y-12053952D01*
X13214524Y-12063476D01*
X13195476Y-12063476D01*
X13176428Y-12053952D01*
X13166905Y-12044428D01*
X13157381Y-12025381D01*
X13147857Y-11987286D01*
X13147857Y-11939667D01*
X13157381Y-11901571D01*
X13166905Y-11882524D01*
X13176428Y-11873000D01*
X13195476Y-11863476D01*
X13347857Y-12044428D02*
X13357381Y-12053952D01*
X13347857Y-12063476D01*
X13338333Y-12053952D01*
X13347857Y-12044428D01*
X13347857Y-12063476D01*
X13481190Y-11863476D02*
X13500238Y-11863476D01*
X13519286Y-11873000D01*
X13528809Y-11882524D01*
X13538333Y-11901571D01*
X13547857Y-11939667D01*
X13547857Y-11987286D01*
X13538333Y-12025381D01*
X13528809Y-12044428D01*
X13519286Y-12053952D01*
X13500238Y-12063476D01*
X13481190Y-12063476D01*
X13462143Y-12053952D01*
X13452619Y-12044428D01*
X13443095Y-12025381D01*
X13433571Y-11987286D01*
X13433571Y-11939667D01*
X13443095Y-11901571D01*
X13452619Y-11882524D01*
X13462143Y-11873000D01*
X13481190Y-11863476D01*
X13614524Y-11863476D02*
X13738333Y-11863476D01*
X13671667Y-11939667D01*
X13700238Y-11939667D01*
X13719286Y-11949190D01*
X13728809Y-11958714D01*
X13738333Y-11977762D01*
X13738333Y-12025381D01*
X13728809Y-12044428D01*
X13719286Y-12053952D01*
X13700238Y-12063476D01*
X13643095Y-12063476D01*
X13624048Y-12053952D01*
X13614524Y-12044428D01*
X13928809Y-12063476D02*
X13814524Y-12063476D01*
X13871667Y-12063476D02*
X13871667Y-11863476D01*
X13852619Y-11892048D01*
X13833571Y-11911095D01*
X13814524Y-11920619D01*
X14109762Y-11863476D02*
X14014524Y-11863476D01*
X14005000Y-11958714D01*
X14014524Y-11949190D01*
X14033571Y-11939667D01*
X14081190Y-11939667D01*
X14100238Y-11949190D01*
X14109762Y-11958714D01*
X14119286Y-11977762D01*
X14119286Y-12025381D01*
X14109762Y-12044428D01*
X14100238Y-12053952D01*
X14081190Y-12063476D01*
X14033571Y-12063476D01*
X14014524Y-12053952D01*
X14005000Y-12044428D01*
X14195476Y-11863476D02*
X14195476Y-11901571D01*
X14271667Y-11863476D02*
X14271667Y-11901571D01*
X14566905Y-12139667D02*
X14557381Y-12130143D01*
X14538333Y-12101571D01*
X14528809Y-12082524D01*
X14519286Y-12053952D01*
X14509762Y-12006333D01*
X14509762Y-11968238D01*
X14519286Y-11920619D01*
X14528809Y-11892048D01*
X14538333Y-11873000D01*
X14557381Y-11844428D01*
X14566905Y-11834905D01*
X14728809Y-11930143D02*
X14728809Y-12063476D01*
X14681190Y-11853952D02*
X14633571Y-11996809D01*
X14757381Y-11996809D01*
X14985952Y-12063476D02*
X14985952Y-11863476D01*
X15071667Y-12063476D02*
X15071667Y-11958714D01*
X15062143Y-11939667D01*
X15043095Y-11930143D01*
X15014524Y-11930143D01*
X14995476Y-11939667D01*
X14985952Y-11949190D01*
X15195476Y-12063476D02*
X15176428Y-12053952D01*
X15166905Y-12044428D01*
X15157381Y-12025381D01*
X15157381Y-11968238D01*
X15166905Y-11949190D01*
X15176428Y-11939667D01*
X15195476Y-11930143D01*
X15224048Y-11930143D01*
X15243095Y-11939667D01*
X15252619Y-11949190D01*
X15262143Y-11968238D01*
X15262143Y-12025381D01*
X15252619Y-12044428D01*
X15243095Y-12053952D01*
X15224048Y-12063476D01*
X15195476Y-12063476D01*
X15376428Y-12063476D02*
X15357381Y-12053952D01*
X15347857Y-12034905D01*
X15347857Y-11863476D01*
X15528809Y-12053952D02*
X15509762Y-12063476D01*
X15471667Y-12063476D01*
X15452619Y-12053952D01*
X15443095Y-12034905D01*
X15443095Y-11958714D01*
X15452619Y-11939667D01*
X15471667Y-11930143D01*
X15509762Y-11930143D01*
X15528809Y-11939667D01*
X15538333Y-11958714D01*
X15538333Y-11977762D01*
X15443095Y-11996809D01*
X15614524Y-12053952D02*
X15633571Y-12063476D01*
X15671667Y-12063476D01*
X15690714Y-12053952D01*
X15700238Y-12034905D01*
X15700238Y-12025381D01*
X15690714Y-12006333D01*
X15671667Y-11996809D01*
X15643095Y-11996809D01*
X15624048Y-11987286D01*
X15614524Y-11968238D01*
X15614524Y-11958714D01*
X15624048Y-11939667D01*
X15643095Y-11930143D01*
X15671667Y-11930143D01*
X15690714Y-11939667D01*
X15766905Y-12139667D02*
X15776428Y-12130143D01*
X15795476Y-12101571D01*
X15805000Y-12082524D01*
X15814524Y-12053952D01*
X15824048Y-12006333D01*
X15824048Y-11968238D01*
X15814524Y-11920619D01*
X15805000Y-11892048D01*
X15795476Y-11873000D01*
X15776428Y-11844428D01*
X15766905Y-11834905D01*
D15*
X10981088Y-12270588D02*
X10981088Y-12203412D01*
X10913912Y-12203412D01*
X10913912Y-12270588D01*
X10981088Y-12270588D01*
D11*
X11290714Y-12127476D02*
X11309762Y-12127476D01*
X11328809Y-12137000D01*
X11338333Y-12146524D01*
X11347857Y-12165571D01*
X11357381Y-12203667D01*
X11357381Y-12251286D01*
X11347857Y-12289381D01*
X11338333Y-12308428D01*
X11328809Y-12317952D01*
X11309762Y-12327476D01*
X11290714Y-12327476D01*
X11271667Y-12317952D01*
X11262143Y-12308428D01*
X11252619Y-12289381D01*
X11243095Y-12251286D01*
X11243095Y-12203667D01*
X11252619Y-12165571D01*
X11262143Y-12146524D01*
X11271667Y-12137000D01*
X11290714Y-12127476D01*
X11443095Y-12308428D02*
X11452619Y-12317952D01*
X11443095Y-12327476D01*
X11433571Y-12317952D01*
X11443095Y-12308428D01*
X11443095Y-12327476D01*
X11547857Y-12327476D02*
X11585952Y-12327476D01*
X11605000Y-12317952D01*
X11614524Y-12308428D01*
X11633571Y-12279857D01*
X11643095Y-12241762D01*
X11643095Y-12165571D01*
X11633571Y-12146524D01*
X11624048Y-12137000D01*
X11605000Y-12127476D01*
X11566905Y-12127476D01*
X11547857Y-12137000D01*
X11538333Y-12146524D01*
X11528809Y-12165571D01*
X11528809Y-12213190D01*
X11538333Y-12232238D01*
X11547857Y-12241762D01*
X11566905Y-12251286D01*
X11605000Y-12251286D01*
X11624048Y-12241762D01*
X11633571Y-12232238D01*
X11643095Y-12213190D01*
X11824048Y-12127476D02*
X11728809Y-12127476D01*
X11719286Y-12222714D01*
X11728809Y-12213190D01*
X11747857Y-12203667D01*
X11795476Y-12203667D01*
X11814524Y-12213190D01*
X11824048Y-12222714D01*
X11833571Y-12241762D01*
X11833571Y-12289381D01*
X11824048Y-12308428D01*
X11814524Y-12317952D01*
X11795476Y-12327476D01*
X11747857Y-12327476D01*
X11728809Y-12317952D01*
X11719286Y-12308428D01*
X11957381Y-12127476D02*
X11976428Y-12127476D01*
X11995476Y-12137000D01*
X12005000Y-12146524D01*
X12014524Y-12165571D01*
X12024048Y-12203667D01*
X12024048Y-12251286D01*
X12014524Y-12289381D01*
X12005000Y-12308428D01*
X11995476Y-12317952D01*
X11976428Y-12327476D01*
X11957381Y-12327476D01*
X11938333Y-12317952D01*
X11928809Y-12308428D01*
X11919286Y-12289381D01*
X11909762Y-12251286D01*
X11909762Y-12203667D01*
X11919286Y-12165571D01*
X11928809Y-12146524D01*
X11938333Y-12137000D01*
X11957381Y-12127476D01*
X12109762Y-12327476D02*
X12109762Y-12194143D01*
X12109762Y-12213190D02*
X12119286Y-12203667D01*
X12138333Y-12194143D01*
X12166905Y-12194143D01*
X12185952Y-12203667D01*
X12195476Y-12222714D01*
X12195476Y-12327476D01*
X12195476Y-12222714D02*
X12205000Y-12203667D01*
X12224048Y-12194143D01*
X12252619Y-12194143D01*
X12271667Y-12203667D01*
X12281190Y-12222714D01*
X12281190Y-12327476D01*
X12376428Y-12327476D02*
X12376428Y-12194143D01*
X12376428Y-12213190D02*
X12385952Y-12203667D01*
X12405000Y-12194143D01*
X12433571Y-12194143D01*
X12452619Y-12203667D01*
X12462143Y-12222714D01*
X12462143Y-12327476D01*
X12462143Y-12222714D02*
X12471667Y-12203667D01*
X12490714Y-12194143D01*
X12519286Y-12194143D01*
X12538333Y-12203667D01*
X12547857Y-12222714D01*
X12547857Y-12327476D01*
X12938333Y-12117952D02*
X12766905Y-12375095D01*
X13195476Y-12127476D02*
X13214524Y-12127476D01*
X13233571Y-12137000D01*
X13243095Y-12146524D01*
X13252619Y-12165571D01*
X13262143Y-12203667D01*
X13262143Y-12251286D01*
X13252619Y-12289381D01*
X13243095Y-12308428D01*
X13233571Y-12317952D01*
X13214524Y-12327476D01*
X13195476Y-12327476D01*
X13176428Y-12317952D01*
X13166905Y-12308428D01*
X13157381Y-12289381D01*
X13147857Y-12251286D01*
X13147857Y-12203667D01*
X13157381Y-12165571D01*
X13166905Y-12146524D01*
X13176428Y-12137000D01*
X13195476Y-12127476D01*
X13347857Y-12308428D02*
X13357381Y-12317952D01*
X13347857Y-12327476D01*
X13338333Y-12317952D01*
X13347857Y-12308428D01*
X13347857Y-12327476D01*
X13481190Y-12127476D02*
X13500238Y-12127476D01*
X13519286Y-12137000D01*
X13528809Y-12146524D01*
X13538333Y-12165571D01*
X13547857Y-12203667D01*
X13547857Y-12251286D01*
X13538333Y-12289381D01*
X13528809Y-12308428D01*
X13519286Y-12317952D01*
X13500238Y-12327476D01*
X13481190Y-12327476D01*
X13462143Y-12317952D01*
X13452619Y-12308428D01*
X13443095Y-12289381D01*
X13433571Y-12251286D01*
X13433571Y-12203667D01*
X13443095Y-12165571D01*
X13452619Y-12146524D01*
X13462143Y-12137000D01*
X13481190Y-12127476D01*
X13614524Y-12127476D02*
X13738333Y-12127476D01*
X13671667Y-12203667D01*
X13700238Y-12203667D01*
X13719286Y-12213190D01*
X13728809Y-12222714D01*
X13738333Y-12241762D01*
X13738333Y-12289381D01*
X13728809Y-12308428D01*
X13719286Y-12317952D01*
X13700238Y-12327476D01*
X13643095Y-12327476D01*
X13624048Y-12317952D01*
X13614524Y-12308428D01*
X13805000Y-12127476D02*
X13938333Y-12127476D01*
X13852619Y-12327476D01*
X14100238Y-12194143D02*
X14100238Y-12327476D01*
X14052619Y-12117952D02*
X14005000Y-12260809D01*
X14128809Y-12260809D01*
X14195476Y-12127476D02*
X14195476Y-12165571D01*
X14271667Y-12127476D02*
X14271667Y-12165571D01*
X14566905Y-12403667D02*
X14557381Y-12394143D01*
X14538333Y-12365571D01*
X14528809Y-12346524D01*
X14519286Y-12317952D01*
X14509762Y-12270333D01*
X14509762Y-12232238D01*
X14519286Y-12184619D01*
X14528809Y-12156048D01*
X14538333Y-12137000D01*
X14557381Y-12108428D01*
X14566905Y-12098905D01*
X14624048Y-12127476D02*
X14757381Y-12127476D01*
X14671667Y-12327476D01*
X14985952Y-12327476D02*
X14985952Y-12127476D01*
X15071667Y-12327476D02*
X15071667Y-12222714D01*
X15062143Y-12203667D01*
X15043095Y-12194143D01*
X15014524Y-12194143D01*
X14995476Y-12203667D01*
X14985952Y-12213190D01*
X15195476Y-12327476D02*
X15176428Y-12317952D01*
X15166905Y-12308428D01*
X15157381Y-12289381D01*
X15157381Y-12232238D01*
X15166905Y-12213190D01*
X15176428Y-12203667D01*
X15195476Y-12194143D01*
X15224048Y-12194143D01*
X15243095Y-12203667D01*
X15252619Y-12213190D01*
X15262143Y-12232238D01*
X15262143Y-12289381D01*
X15252619Y-12308428D01*
X15243095Y-12317952D01*
X15224048Y-12327476D01*
X15195476Y-12327476D01*
X15376428Y-12327476D02*
X15357381Y-12317952D01*
X15347857Y-12298905D01*
X15347857Y-12127476D01*
X15528809Y-12317952D02*
X15509762Y-12327476D01*
X15471667Y-12327476D01*
X15452619Y-12317952D01*
X15443095Y-12298905D01*
X15443095Y-12222714D01*
X15452619Y-12203667D01*
X15471667Y-12194143D01*
X15509762Y-12194143D01*
X15528809Y-12203667D01*
X15538333Y-12222714D01*
X15538333Y-12241762D01*
X15443095Y-12260809D01*
X15614524Y-12317952D02*
X15633571Y-12327476D01*
X15671667Y-12327476D01*
X15690714Y-12317952D01*
X15700238Y-12298905D01*
X15700238Y-12289381D01*
X15690714Y-12270333D01*
X15671667Y-12260809D01*
X15643095Y-12260809D01*
X15624048Y-12251286D01*
X15614524Y-12232238D01*
X15614524Y-12222714D01*
X15624048Y-12203667D01*
X15643095Y-12194143D01*
X15671667Y-12194143D01*
X15690714Y-12203667D01*
X15766905Y-12403667D02*
X15776428Y-12394143D01*
X15795476Y-12365571D01*
X15805000Y-12346524D01*
X15814524Y-12317952D01*
X15824048Y-12270333D01*
X15824048Y-12232238D01*
X15814524Y-12184619D01*
X15805000Y-12156048D01*
X15795476Y-12137000D01*
X15776428Y-12108428D01*
X15766905Y-12098905D01*
D10*
X10945000Y-12551000D02*
X10995000Y-12501000D01*
X10945000Y-12451000D01*
X10895000Y-12501000D01*
X10945000Y-12551000D01*
D11*
X11357381Y-12591476D02*
X11243095Y-12591476D01*
X11300238Y-12591476D02*
X11300238Y-12391476D01*
X11281190Y-12420048D01*
X11262143Y-12439095D01*
X11243095Y-12448619D01*
X11443095Y-12572428D02*
X11452619Y-12581952D01*
X11443095Y-12591476D01*
X11433571Y-12581952D01*
X11443095Y-12572428D01*
X11443095Y-12591476D01*
X11576428Y-12391476D02*
X11595476Y-12391476D01*
X11614524Y-12401000D01*
X11624048Y-12410524D01*
X11633571Y-12429571D01*
X11643095Y-12467667D01*
X11643095Y-12515286D01*
X11633571Y-12553381D01*
X11624048Y-12572428D01*
X11614524Y-12581952D01*
X11595476Y-12591476D01*
X11576428Y-12591476D01*
X11557381Y-12581952D01*
X11547857Y-12572428D01*
X11538333Y-12553381D01*
X11528809Y-12515286D01*
X11528809Y-12467667D01*
X11538333Y-12429571D01*
X11547857Y-12410524D01*
X11557381Y-12401000D01*
X11576428Y-12391476D01*
X11766905Y-12391476D02*
X11785952Y-12391476D01*
X11805000Y-12401000D01*
X11814524Y-12410524D01*
X11824048Y-12429571D01*
X11833571Y-12467667D01*
X11833571Y-12515286D01*
X11824048Y-12553381D01*
X11814524Y-12572428D01*
X11805000Y-12581952D01*
X11785952Y-12591476D01*
X11766905Y-12591476D01*
X11747857Y-12581952D01*
X11738333Y-12572428D01*
X11728809Y-12553381D01*
X11719286Y-12515286D01*
X11719286Y-12467667D01*
X11728809Y-12429571D01*
X11738333Y-12410524D01*
X11747857Y-12401000D01*
X11766905Y-12391476D01*
X11957381Y-12391476D02*
X11976428Y-12391476D01*
X11995476Y-12401000D01*
X12005000Y-12410524D01*
X12014524Y-12429571D01*
X12024048Y-12467667D01*
X12024048Y-12515286D01*
X12014524Y-12553381D01*
X12005000Y-12572428D01*
X11995476Y-12581952D01*
X11976428Y-12591476D01*
X11957381Y-12591476D01*
X11938333Y-12581952D01*
X11928809Y-12572428D01*
X11919286Y-12553381D01*
X11909762Y-12515286D01*
X11909762Y-12467667D01*
X11919286Y-12429571D01*
X11928809Y-12410524D01*
X11938333Y-12401000D01*
X11957381Y-12391476D01*
X12109762Y-12591476D02*
X12109762Y-12458143D01*
X12109762Y-12477190D02*
X12119286Y-12467667D01*
X12138333Y-12458143D01*
X12166905Y-12458143D01*
X12185952Y-12467667D01*
X12195476Y-12486714D01*
X12195476Y-12591476D01*
X12195476Y-12486714D02*
X12205000Y-12467667D01*
X12224048Y-12458143D01*
X12252619Y-12458143D01*
X12271667Y-12467667D01*
X12281190Y-12486714D01*
X12281190Y-12591476D01*
X12376428Y-12591476D02*
X12376428Y-12458143D01*
X12376428Y-12477190D02*
X12385952Y-12467667D01*
X12405000Y-12458143D01*
X12433571Y-12458143D01*
X12452619Y-12467667D01*
X12462143Y-12486714D01*
X12462143Y-12591476D01*
X12462143Y-12486714D02*
X12471667Y-12467667D01*
X12490714Y-12458143D01*
X12519286Y-12458143D01*
X12538333Y-12467667D01*
X12547857Y-12486714D01*
X12547857Y-12591476D01*
X12938333Y-12381952D02*
X12766905Y-12639095D01*
X13195476Y-12391476D02*
X13214524Y-12391476D01*
X13233571Y-12401000D01*
X13243095Y-12410524D01*
X13252619Y-12429571D01*
X13262143Y-12467667D01*
X13262143Y-12515286D01*
X13252619Y-12553381D01*
X13243095Y-12572428D01*
X13233571Y-12581952D01*
X13214524Y-12591476D01*
X13195476Y-12591476D01*
X13176428Y-12581952D01*
X13166905Y-12572428D01*
X13157381Y-12553381D01*
X13147857Y-12515286D01*
X13147857Y-12467667D01*
X13157381Y-12429571D01*
X13166905Y-12410524D01*
X13176428Y-12401000D01*
X13195476Y-12391476D01*
X13347857Y-12572428D02*
X13357381Y-12581952D01*
X13347857Y-12591476D01*
X13338333Y-12581952D01*
X13347857Y-12572428D01*
X13347857Y-12591476D01*
X13481190Y-12391476D02*
X13500238Y-12391476D01*
X13519286Y-12401000D01*
X13528809Y-12410524D01*
X13538333Y-12429571D01*
X13547857Y-12467667D01*
X13547857Y-12515286D01*
X13538333Y-12553381D01*
X13528809Y-12572428D01*
X13519286Y-12581952D01*
X13500238Y-12591476D01*
X13481190Y-12591476D01*
X13462143Y-12581952D01*
X13452619Y-12572428D01*
X13443095Y-12553381D01*
X13433571Y-12515286D01*
X13433571Y-12467667D01*
X13443095Y-12429571D01*
X13452619Y-12410524D01*
X13462143Y-12401000D01*
X13481190Y-12391476D01*
X13614524Y-12391476D02*
X13738333Y-12391476D01*
X13671667Y-12467667D01*
X13700238Y-12467667D01*
X13719286Y-12477190D01*
X13728809Y-12486714D01*
X13738333Y-12505762D01*
X13738333Y-12553381D01*
X13728809Y-12572428D01*
X13719286Y-12581952D01*
X13700238Y-12591476D01*
X13643095Y-12591476D01*
X13624048Y-12581952D01*
X13614524Y-12572428D01*
X13833571Y-12591476D02*
X13871667Y-12591476D01*
X13890714Y-12581952D01*
X13900238Y-12572428D01*
X13919286Y-12543857D01*
X13928809Y-12505762D01*
X13928809Y-12429571D01*
X13919286Y-12410524D01*
X13909762Y-12401000D01*
X13890714Y-12391476D01*
X13852619Y-12391476D01*
X13833571Y-12401000D01*
X13824048Y-12410524D01*
X13814524Y-12429571D01*
X13814524Y-12477190D01*
X13824048Y-12496238D01*
X13833571Y-12505762D01*
X13852619Y-12515286D01*
X13890714Y-12515286D01*
X13909762Y-12505762D01*
X13919286Y-12496238D01*
X13928809Y-12477190D01*
X14100238Y-12458143D02*
X14100238Y-12591476D01*
X14052619Y-12381952D02*
X14005000Y-12524809D01*
X14128809Y-12524809D01*
X14195476Y-12391476D02*
X14195476Y-12429571D01*
X14271667Y-12391476D02*
X14271667Y-12429571D01*
X14566905Y-12667667D02*
X14557381Y-12658143D01*
X14538333Y-12629571D01*
X14528809Y-12610524D01*
X14519286Y-12581952D01*
X14509762Y-12534333D01*
X14509762Y-12496238D01*
X14519286Y-12448619D01*
X14528809Y-12420048D01*
X14538333Y-12401000D01*
X14557381Y-12372428D01*
X14566905Y-12362905D01*
X14633571Y-12410524D02*
X14643095Y-12401000D01*
X14662143Y-12391476D01*
X14709762Y-12391476D01*
X14728809Y-12401000D01*
X14738333Y-12410524D01*
X14747857Y-12429571D01*
X14747857Y-12448619D01*
X14738333Y-12477190D01*
X14624048Y-12591476D01*
X14747857Y-12591476D01*
X14985952Y-12591476D02*
X14985952Y-12391476D01*
X15071667Y-12591476D02*
X15071667Y-12486714D01*
X15062143Y-12467667D01*
X15043095Y-12458143D01*
X15014524Y-12458143D01*
X14995476Y-12467667D01*
X14985952Y-12477190D01*
X15195476Y-12591476D02*
X15176428Y-12581952D01*
X15166905Y-12572428D01*
X15157381Y-12553381D01*
X15157381Y-12496238D01*
X15166905Y-12477190D01*
X15176428Y-12467667D01*
X15195476Y-12458143D01*
X15224048Y-12458143D01*
X15243095Y-12467667D01*
X15252619Y-12477190D01*
X15262143Y-12496238D01*
X15262143Y-12553381D01*
X15252619Y-12572428D01*
X15243095Y-12581952D01*
X15224048Y-12591476D01*
X15195476Y-12591476D01*
X15376428Y-12591476D02*
X15357381Y-12581952D01*
X15347857Y-12562905D01*
X15347857Y-12391476D01*
X15528809Y-12581952D02*
X15509762Y-12591476D01*
X15471667Y-12591476D01*
X15452619Y-12581952D01*
X15443095Y-12562905D01*
X15443095Y-12486714D01*
X15452619Y-12467667D01*
X15471667Y-12458143D01*
X15509762Y-12458143D01*
X15528809Y-12467667D01*
X15538333Y-12486714D01*
X15538333Y-12505762D01*
X15443095Y-12524809D01*
X15614524Y-12581952D02*
X15633571Y-12591476D01*
X15671667Y-12591476D01*
X15690714Y-12581952D01*
X15700238Y-12562905D01*
X15700238Y-12553381D01*
X15690714Y-12534333D01*
X15671667Y-12524809D01*
X15643095Y-12524809D01*
X15624048Y-12515286D01*
X15614524Y-12496238D01*
X15614524Y-12486714D01*
X15624048Y-12467667D01*
X15643095Y-12458143D01*
X15671667Y-12458143D01*
X15690714Y-12467667D01*
X15766905Y-12667667D02*
X15776428Y-12658143D01*
X15795476Y-12629571D01*
X15805000Y-12610524D01*
X15814524Y-12581952D01*
X15824048Y-12534333D01*
X15824048Y-12496238D01*
X15814524Y-12448619D01*
X15805000Y-12420048D01*
X15795476Y-12401000D01*
X15776428Y-12372428D01*
X15766905Y-12362905D01*
X10795000Y-12665000D02*
X10995000Y-12865000D01*
X10995000Y-12665000D02*
X10795000Y-12865000D01*
X10995000Y-12765000D02*
G75*
G03*
X10995000Y-12765000I-100000J0D01*
G01*
X11233571Y-12655476D02*
X11357381Y-12655476D01*
X11290714Y-12731667D01*
X11319286Y-12731667D01*
X11338333Y-12741190D01*
X11347857Y-12750714D01*
X11357381Y-12769762D01*
X11357381Y-12817381D01*
X11347857Y-12836428D01*
X11338333Y-12845952D01*
X11319286Y-12855476D01*
X11262143Y-12855476D01*
X11243095Y-12845952D01*
X11233571Y-12836428D01*
X11443095Y-12836428D02*
X11452619Y-12845952D01*
X11443095Y-12855476D01*
X11433571Y-12845952D01*
X11443095Y-12836428D01*
X11443095Y-12855476D01*
X11528809Y-12674524D02*
X11538333Y-12665000D01*
X11557381Y-12655476D01*
X11605000Y-12655476D01*
X11624048Y-12665000D01*
X11633571Y-12674524D01*
X11643095Y-12693571D01*
X11643095Y-12712619D01*
X11633571Y-12741190D01*
X11519286Y-12855476D01*
X11643095Y-12855476D01*
X11766905Y-12655476D02*
X11785952Y-12655476D01*
X11805000Y-12665000D01*
X11814524Y-12674524D01*
X11824048Y-12693571D01*
X11833571Y-12731667D01*
X11833571Y-12779286D01*
X11824048Y-12817381D01*
X11814524Y-12836428D01*
X11805000Y-12845952D01*
X11785952Y-12855476D01*
X11766905Y-12855476D01*
X11747857Y-12845952D01*
X11738333Y-12836428D01*
X11728809Y-12817381D01*
X11719286Y-12779286D01*
X11719286Y-12731667D01*
X11728809Y-12693571D01*
X11738333Y-12674524D01*
X11747857Y-12665000D01*
X11766905Y-12655476D01*
X11957381Y-12655476D02*
X11976428Y-12655476D01*
X11995476Y-12665000D01*
X12005000Y-12674524D01*
X12014524Y-12693571D01*
X12024048Y-12731667D01*
X12024048Y-12779286D01*
X12014524Y-12817381D01*
X12005000Y-12836428D01*
X11995476Y-12845952D01*
X11976428Y-12855476D01*
X11957381Y-12855476D01*
X11938333Y-12845952D01*
X11928809Y-12836428D01*
X11919286Y-12817381D01*
X11909762Y-12779286D01*
X11909762Y-12731667D01*
X11919286Y-12693571D01*
X11928809Y-12674524D01*
X11938333Y-12665000D01*
X11957381Y-12655476D01*
X12109762Y-12855476D02*
X12109762Y-12722143D01*
X12109762Y-12741190D02*
X12119286Y-12731667D01*
X12138333Y-12722143D01*
X12166905Y-12722143D01*
X12185952Y-12731667D01*
X12195476Y-12750714D01*
X12195476Y-12855476D01*
X12195476Y-12750714D02*
X12205000Y-12731667D01*
X12224048Y-12722143D01*
X12252619Y-12722143D01*
X12271667Y-12731667D01*
X12281190Y-12750714D01*
X12281190Y-12855476D01*
X12376428Y-12855476D02*
X12376428Y-12722143D01*
X12376428Y-12741190D02*
X12385952Y-12731667D01*
X12405000Y-12722143D01*
X12433571Y-12722143D01*
X12452619Y-12731667D01*
X12462143Y-12750714D01*
X12462143Y-12855476D01*
X12462143Y-12750714D02*
X12471667Y-12731667D01*
X12490714Y-12722143D01*
X12519286Y-12722143D01*
X12538333Y-12731667D01*
X12547857Y-12750714D01*
X12547857Y-12855476D01*
X12938333Y-12645952D02*
X12766905Y-12903095D01*
X13195476Y-12655476D02*
X13214524Y-12655476D01*
X13233571Y-12665000D01*
X13243095Y-12674524D01*
X13252619Y-12693571D01*
X13262143Y-12731667D01*
X13262143Y-12779286D01*
X13252619Y-12817381D01*
X13243095Y-12836428D01*
X13233571Y-12845952D01*
X13214524Y-12855476D01*
X13195476Y-12855476D01*
X13176428Y-12845952D01*
X13166905Y-12836428D01*
X13157381Y-12817381D01*
X13147857Y-12779286D01*
X13147857Y-12731667D01*
X13157381Y-12693571D01*
X13166905Y-12674524D01*
X13176428Y-12665000D01*
X13195476Y-12655476D01*
X13347857Y-12836428D02*
X13357381Y-12845952D01*
X13347857Y-12855476D01*
X13338333Y-12845952D01*
X13347857Y-12836428D01*
X13347857Y-12855476D01*
X13547857Y-12855476D02*
X13433571Y-12855476D01*
X13490714Y-12855476D02*
X13490714Y-12655476D01*
X13471667Y-12684048D01*
X13452619Y-12703095D01*
X13433571Y-12712619D01*
X13624048Y-12674524D02*
X13633571Y-12665000D01*
X13652619Y-12655476D01*
X13700238Y-12655476D01*
X13719286Y-12665000D01*
X13728809Y-12674524D01*
X13738333Y-12693571D01*
X13738333Y-12712619D01*
X13728809Y-12741190D01*
X13614524Y-12855476D01*
X13738333Y-12855476D01*
X13909762Y-12655476D02*
X13871667Y-12655476D01*
X13852619Y-12665000D01*
X13843095Y-12674524D01*
X13824048Y-12703095D01*
X13814524Y-12741190D01*
X13814524Y-12817381D01*
X13824048Y-12836428D01*
X13833571Y-12845952D01*
X13852619Y-12855476D01*
X13890714Y-12855476D01*
X13909762Y-12845952D01*
X13919286Y-12836428D01*
X13928809Y-12817381D01*
X13928809Y-12769762D01*
X13919286Y-12750714D01*
X13909762Y-12741190D01*
X13890714Y-12731667D01*
X13852619Y-12731667D01*
X13833571Y-12741190D01*
X13824048Y-12750714D01*
X13814524Y-12769762D01*
X14052619Y-12655476D02*
X14071667Y-12655476D01*
X14090714Y-12665000D01*
X14100238Y-12674524D01*
X14109762Y-12693571D01*
X14119286Y-12731667D01*
X14119286Y-12779286D01*
X14109762Y-12817381D01*
X14100238Y-12836428D01*
X14090714Y-12845952D01*
X14071667Y-12855476D01*
X14052619Y-12855476D01*
X14033571Y-12845952D01*
X14024048Y-12836428D01*
X14014524Y-12817381D01*
X14005000Y-12779286D01*
X14005000Y-12731667D01*
X14014524Y-12693571D01*
X14024048Y-12674524D01*
X14033571Y-12665000D01*
X14052619Y-12655476D01*
X14195476Y-12655476D02*
X14195476Y-12693571D01*
X14271667Y-12655476D02*
X14271667Y-12693571D01*
X14566905Y-12931667D02*
X14557381Y-12922143D01*
X14538333Y-12893571D01*
X14528809Y-12874524D01*
X14519286Y-12845952D01*
X14509762Y-12798333D01*
X14509762Y-12760238D01*
X14519286Y-12712619D01*
X14528809Y-12684048D01*
X14538333Y-12665000D01*
X14557381Y-12636428D01*
X14566905Y-12626905D01*
X14728809Y-12722143D02*
X14728809Y-12855476D01*
X14681190Y-12645952D02*
X14633571Y-12788809D01*
X14757381Y-12788809D01*
X14985952Y-12855476D02*
X14985952Y-12655476D01*
X15071667Y-12855476D02*
X15071667Y-12750714D01*
X15062143Y-12731667D01*
X15043095Y-12722143D01*
X15014524Y-12722143D01*
X14995476Y-12731667D01*
X14985952Y-12741190D01*
X15195476Y-12855476D02*
X15176428Y-12845952D01*
X15166905Y-12836428D01*
X15157381Y-12817381D01*
X15157381Y-12760238D01*
X15166905Y-12741190D01*
X15176428Y-12731667D01*
X15195476Y-12722143D01*
X15224048Y-12722143D01*
X15243095Y-12731667D01*
X15252619Y-12741190D01*
X15262143Y-12760238D01*
X15262143Y-12817381D01*
X15252619Y-12836428D01*
X15243095Y-12845952D01*
X15224048Y-12855476D01*
X15195476Y-12855476D01*
X15376428Y-12855476D02*
X15357381Y-12845952D01*
X15347857Y-12826905D01*
X15347857Y-12655476D01*
X15528809Y-12845952D02*
X15509762Y-12855476D01*
X15471667Y-12855476D01*
X15452619Y-12845952D01*
X15443095Y-12826905D01*
X15443095Y-12750714D01*
X15452619Y-12731667D01*
X15471667Y-12722143D01*
X15509762Y-12722143D01*
X15528809Y-12731667D01*
X15538333Y-12750714D01*
X15538333Y-12769762D01*
X15443095Y-12788809D01*
X15614524Y-12845952D02*
X15633571Y-12855476D01*
X15671667Y-12855476D01*
X15690714Y-12845952D01*
X15700238Y-12826905D01*
X15700238Y-12817381D01*
X15690714Y-12798333D01*
X15671667Y-12788809D01*
X15643095Y-12788809D01*
X15624048Y-12779286D01*
X15614524Y-12760238D01*
X15614524Y-12750714D01*
X15624048Y-12731667D01*
X15643095Y-12722143D01*
X15671667Y-12722143D01*
X15690714Y-12731667D01*
X15766905Y-12931667D02*
X15776428Y-12922143D01*
X15795476Y-12893571D01*
X15805000Y-12874524D01*
X15814524Y-12845952D01*
X15824048Y-12798333D01*
X15824048Y-12760238D01*
X15814524Y-12712619D01*
X15805000Y-12684048D01*
X15795476Y-12665000D01*
X15776428Y-12636428D01*
X15766905Y-12626905D01*
M02*
