%TF.GenerationSoftware,KiCad,Pcbnew,(6.0.8)*%
%TF.CreationDate,2023-04-18T11:51:28+02:00*%
%TF.ProjectId,ENCODER,454e434f-4445-4522-9e6b-696361645f70,1.0*%
%TF.SameCoordinates,Original*%
%TF.FileFunction,Drillmap*%
%TF.FilePolarity,Positive*%
%FSLAX45Y45*%
G04 Gerber Fmt 4.5, Leading zero omitted, Abs format (unit mm)*
G04 Created by KiCad (PCBNEW (6.0.8)) date 2023-04-18 11:51:28*
%MOMM*%
%LPD*%
G01*
G04 APERTURE LIST*
%ADD10C,0.100000*%
%ADD11C,0.200000*%
G04 APERTURE END LIST*
D10*
X11000000Y-10500000D02*
G75*
G03*
X11300000Y-10800000I300000J0D01*
G01*
X13500000Y-10800000D02*
G75*
G03*
X13800000Y-10500000I0J300000D01*
G01*
X11300000Y-8000000D02*
G75*
G03*
X11000000Y-8300000I0J-300000D01*
G01*
X13500000Y-8000000D02*
X11300000Y-8000000D01*
X13800000Y-8300000D02*
G75*
G03*
X13500000Y-8000000I-300000J0D01*
G01*
X13800000Y-10500000D02*
X13800000Y-8300000D01*
X11000000Y-8300000D02*
X11000000Y-10500000D01*
X11300000Y-10800000D02*
X13500000Y-10800000D01*
D11*
X11252619Y-11115476D02*
X11252619Y-10915476D01*
X11300238Y-10915476D01*
X11328809Y-10925000D01*
X11347857Y-10944048D01*
X11357381Y-10963095D01*
X11366905Y-11001190D01*
X11366905Y-11029762D01*
X11357381Y-11067857D01*
X11347857Y-11086905D01*
X11328809Y-11105952D01*
X11300238Y-11115476D01*
X11252619Y-11115476D01*
X11452619Y-11115476D02*
X11452619Y-10982143D01*
X11452619Y-11020238D02*
X11462143Y-11001190D01*
X11471667Y-10991667D01*
X11490714Y-10982143D01*
X11509762Y-10982143D01*
X11576428Y-11115476D02*
X11576428Y-10982143D01*
X11576428Y-10915476D02*
X11566905Y-10925000D01*
X11576428Y-10934524D01*
X11585952Y-10925000D01*
X11576428Y-10915476D01*
X11576428Y-10934524D01*
X11700238Y-11115476D02*
X11681190Y-11105952D01*
X11671667Y-11086905D01*
X11671667Y-10915476D01*
X11805000Y-11115476D02*
X11785952Y-11105952D01*
X11776428Y-11086905D01*
X11776428Y-10915476D01*
X12033571Y-11115476D02*
X12033571Y-10915476D01*
X12100238Y-11058333D01*
X12166905Y-10915476D01*
X12166905Y-11115476D01*
X12347857Y-11115476D02*
X12347857Y-11010714D01*
X12338333Y-10991667D01*
X12319286Y-10982143D01*
X12281190Y-10982143D01*
X12262143Y-10991667D01*
X12347857Y-11105952D02*
X12328809Y-11115476D01*
X12281190Y-11115476D01*
X12262143Y-11105952D01*
X12252619Y-11086905D01*
X12252619Y-11067857D01*
X12262143Y-11048810D01*
X12281190Y-11039286D01*
X12328809Y-11039286D01*
X12347857Y-11029762D01*
X12443095Y-10982143D02*
X12443095Y-11182143D01*
X12443095Y-10991667D02*
X12462143Y-10982143D01*
X12500238Y-10982143D01*
X12519286Y-10991667D01*
X12528809Y-11001190D01*
X12538333Y-11020238D01*
X12538333Y-11077381D01*
X12528809Y-11096429D01*
X12519286Y-11105952D01*
X12500238Y-11115476D01*
X12462143Y-11115476D01*
X12443095Y-11105952D01*
X12624048Y-11096429D02*
X12633571Y-11105952D01*
X12624048Y-11115476D01*
X12614524Y-11105952D01*
X12624048Y-11096429D01*
X12624048Y-11115476D01*
X12624048Y-10991667D02*
X12633571Y-11001190D01*
X12624048Y-11010714D01*
X12614524Y-11001190D01*
X12624048Y-10991667D01*
X12624048Y-11010714D01*
M02*
