%TF.GenerationSoftware,KiCad,Pcbnew,(6.0.8)*%
%TF.CreationDate,2023-04-13T09:43:49+02:00*%
%TF.ProjectId,ENCODER,454e434f-4445-4522-9e6b-696361645f70,1.0*%
%TF.SameCoordinates,Original*%
%TF.FileFunction,Legend,Bot*%
%TF.FilePolarity,Positive*%
%FSLAX46Y46*%
G04 Gerber Fmt 4.6, Leading zero omitted, Abs format (unit mm)*
G04 Created by KiCad (PCBNEW (6.0.8)) date 2023-04-13 09:43:49*
%MOMM*%
%LPD*%
G01*
G04 APERTURE LIST*
%ADD10C,0.150000*%
%ADD11C,0.120000*%
G04 APERTURE END LIST*
D10*
X127000000Y-97000000D02*
X126000000Y-97000000D01*
X126000000Y-97000000D02*
X126000000Y-99000000D01*
X126000000Y-99000000D02*
X127000000Y-99000000D01*
X127000000Y-99000000D02*
X127000000Y-97000000D01*
X129250000Y-94000000D02*
X129750000Y-94000000D01*
X126000000Y-92750000D02*
X127000000Y-92750000D01*
X127000000Y-92750000D02*
X127000000Y-93500000D01*
X127000000Y-93500000D02*
X126000000Y-93500000D01*
X126000000Y-93500000D02*
X126000000Y-92750000D01*
G36*
X126000000Y-92750000D02*
G01*
X127000000Y-92750000D01*
X127000000Y-93500000D01*
X126000000Y-93500000D01*
X126000000Y-92750000D01*
G37*
X121000000Y-99000000D02*
X121000000Y-99750000D01*
X123250000Y-94000000D02*
X123750000Y-94000000D01*
X121000000Y-88500000D02*
X121000000Y-99000000D01*
X130066000Y-106822400D02*
X118331200Y-106822400D01*
X127000000Y-94500000D02*
X126000000Y-94500000D01*
X126000000Y-94500000D02*
X126000000Y-96500000D01*
X126000000Y-96500000D02*
X127000000Y-96500000D01*
X127000000Y-96500000D02*
X127000000Y-94500000D01*
X119448800Y-102301200D02*
X119906000Y-104079200D01*
X118331200Y-104079200D02*
X130066000Y-104079200D01*
X129750000Y-88500000D02*
X121000000Y-88500000D01*
X118331200Y-106822400D02*
X118331200Y-104079200D01*
X121000000Y-100250000D02*
X137250000Y-100250000D01*
X126000000Y-98250000D02*
X127000000Y-98250000D01*
X127000000Y-98250000D02*
X127000000Y-99000000D01*
X127000000Y-99000000D02*
X126000000Y-99000000D01*
X126000000Y-99000000D02*
X126000000Y-98250000D01*
G36*
X126000000Y-98250000D02*
G01*
X127000000Y-98250000D01*
X127000000Y-99000000D01*
X126000000Y-99000000D01*
X126000000Y-98250000D01*
G37*
X126000000Y-94500000D02*
X127000000Y-94500000D01*
X127000000Y-94500000D02*
X127000000Y-95250000D01*
X127000000Y-95250000D02*
X126000000Y-95250000D01*
X126000000Y-95250000D02*
X126000000Y-94500000D01*
G36*
X126000000Y-94500000D02*
G01*
X127000000Y-94500000D01*
X127000000Y-95250000D01*
X126000000Y-95250000D01*
X126000000Y-94500000D01*
G37*
X127250000Y-94000000D02*
X127750000Y-94000000D01*
X130066000Y-104079200D02*
X130066000Y-106822400D01*
X125250000Y-94000000D02*
X125750000Y-94000000D01*
X121000000Y-99750000D02*
X121000000Y-100250000D01*
X127000000Y-91500000D02*
X126000000Y-91500000D01*
X126000000Y-91500000D02*
X126000000Y-93500000D01*
X126000000Y-93500000D02*
X127000000Y-93500000D01*
X127000000Y-93500000D02*
X127000000Y-91500000D01*
X122250000Y-94000000D02*
X122750000Y-94000000D01*
X124250000Y-94000000D02*
X124750000Y-94000000D01*
X121250000Y-94000000D02*
X121750000Y-94000000D01*
X126000000Y-89000000D02*
X127000000Y-89000000D01*
X127000000Y-89000000D02*
X127000000Y-89750000D01*
X127000000Y-89750000D02*
X126000000Y-89750000D01*
X126000000Y-89750000D02*
X126000000Y-89000000D01*
G36*
X126000000Y-89000000D02*
G01*
X127000000Y-89000000D01*
X127000000Y-89750000D01*
X126000000Y-89750000D01*
X126000000Y-89000000D01*
G37*
X126250000Y-94000000D02*
X126750000Y-94000000D01*
X128250000Y-94000000D02*
X128750000Y-94000000D01*
X127000000Y-89000000D02*
X126000000Y-89000000D01*
X126000000Y-89000000D02*
X126000000Y-91000000D01*
X126000000Y-91000000D02*
X127000000Y-91000000D01*
X127000000Y-91000000D02*
X127000000Y-89000000D01*
X128472400Y-105162700D02*
X128505733Y-105196033D01*
X128605733Y-105229366D01*
X128672400Y-105229366D01*
X128772400Y-105196033D01*
X128839066Y-105129366D01*
X128872400Y-105062700D01*
X128905733Y-104929366D01*
X128905733Y-104829366D01*
X128872400Y-104696033D01*
X128839066Y-104629366D01*
X128772400Y-104562700D01*
X128672400Y-104529366D01*
X128605733Y-104529366D01*
X128505733Y-104562700D01*
X128472400Y-104596033D01*
X128039066Y-104529366D02*
X127905733Y-104529366D01*
X127839066Y-104562700D01*
X127772400Y-104629366D01*
X127739066Y-104762700D01*
X127739066Y-104996033D01*
X127772400Y-105129366D01*
X127839066Y-105196033D01*
X127905733Y-105229366D01*
X128039066Y-105229366D01*
X128105733Y-105196033D01*
X128172400Y-105129366D01*
X128205733Y-104996033D01*
X128205733Y-104762700D01*
X128172400Y-104629366D01*
X128105733Y-104562700D01*
X128039066Y-104529366D01*
X127439066Y-105229366D02*
X127439066Y-104529366D01*
X127039066Y-105229366D01*
X127039066Y-104529366D01*
X126705733Y-105229366D02*
X126705733Y-104529366D01*
X126305733Y-105229366D01*
X126305733Y-104529366D01*
X125972400Y-104862700D02*
X125739066Y-104862700D01*
X125639066Y-105229366D02*
X125972400Y-105229366D01*
X125972400Y-104529366D01*
X125639066Y-104529366D01*
X124939066Y-105162700D02*
X124972400Y-105196033D01*
X125072400Y-105229366D01*
X125139066Y-105229366D01*
X125239066Y-105196033D01*
X125305733Y-105129366D01*
X125339066Y-105062700D01*
X125372400Y-104929366D01*
X125372400Y-104829366D01*
X125339066Y-104696033D01*
X125305733Y-104629366D01*
X125239066Y-104562700D01*
X125139066Y-104529366D01*
X125072400Y-104529366D01*
X124972400Y-104562700D01*
X124939066Y-104596033D01*
X124739066Y-104529366D02*
X124339066Y-104529366D01*
X124539066Y-105229366D02*
X124539066Y-104529366D01*
X123339066Y-104862700D02*
X123572400Y-104862700D01*
X123572400Y-105229366D02*
X123572400Y-104529366D01*
X123239066Y-104529366D01*
X122839066Y-104529366D02*
X122705733Y-104529366D01*
X122639066Y-104562700D01*
X122572400Y-104629366D01*
X122539066Y-104762700D01*
X122539066Y-104996033D01*
X122572400Y-105129366D01*
X122639066Y-105196033D01*
X122705733Y-105229366D01*
X122839066Y-105229366D01*
X122905733Y-105196033D01*
X122972400Y-105129366D01*
X123005733Y-104996033D01*
X123005733Y-104762700D01*
X122972400Y-104629366D01*
X122905733Y-104562700D01*
X122839066Y-104529366D01*
X121839066Y-105229366D02*
X122072400Y-104896033D01*
X122239066Y-105229366D02*
X122239066Y-104529366D01*
X121972400Y-104529366D01*
X121905733Y-104562700D01*
X121872400Y-104596033D01*
X121839066Y-104662700D01*
X121839066Y-104762700D01*
X121872400Y-104829366D01*
X121905733Y-104862700D01*
X121972400Y-104896033D01*
X122239066Y-104896033D01*
X120872400Y-104529366D02*
X120739066Y-104529366D01*
X120672400Y-104562700D01*
X120605733Y-104629366D01*
X120572400Y-104762700D01*
X120572400Y-104996033D01*
X120605733Y-105129366D01*
X120672400Y-105196033D01*
X120739066Y-105229366D01*
X120872400Y-105229366D01*
X120939066Y-105196033D01*
X121005733Y-105129366D01*
X121039066Y-104996033D01*
X121039066Y-104762700D01*
X121005733Y-104629366D01*
X120939066Y-104562700D01*
X120872400Y-104529366D01*
X120372400Y-104529366D02*
X119972400Y-104529366D01*
X120172400Y-105229366D02*
X120172400Y-104529366D01*
X119739066Y-105229366D02*
X119739066Y-104529366D01*
X119472400Y-104529366D01*
X119405733Y-104562700D01*
X119372400Y-104596033D01*
X119339066Y-104662700D01*
X119339066Y-104762700D01*
X119372400Y-104829366D01*
X119405733Y-104862700D01*
X119472400Y-104896033D01*
X119739066Y-104896033D01*
X129722400Y-106356366D02*
X129722400Y-105656366D01*
X129455733Y-105656366D01*
X129389066Y-105689700D01*
X129355733Y-105723033D01*
X129322400Y-105789700D01*
X129322400Y-105889700D01*
X129355733Y-105956366D01*
X129389066Y-105989700D01*
X129455733Y-106023033D01*
X129722400Y-106023033D01*
X128622400Y-106356366D02*
X128855733Y-106023033D01*
X129022400Y-106356366D02*
X129022400Y-105656366D01*
X128755733Y-105656366D01*
X128689066Y-105689700D01*
X128655733Y-105723033D01*
X128622400Y-105789700D01*
X128622400Y-105889700D01*
X128655733Y-105956366D01*
X128689066Y-105989700D01*
X128755733Y-106023033D01*
X129022400Y-106023033D01*
X128189066Y-105656366D02*
X128055733Y-105656366D01*
X127989066Y-105689700D01*
X127922400Y-105756366D01*
X127889066Y-105889700D01*
X127889066Y-106123033D01*
X127922400Y-106256366D01*
X127989066Y-106323033D01*
X128055733Y-106356366D01*
X128189066Y-106356366D01*
X128255733Y-106323033D01*
X128322400Y-106256366D01*
X128355733Y-106123033D01*
X128355733Y-105889700D01*
X128322400Y-105756366D01*
X128255733Y-105689700D01*
X128189066Y-105656366D01*
X127222400Y-105689700D02*
X127289066Y-105656366D01*
X127389066Y-105656366D01*
X127489066Y-105689700D01*
X127555733Y-105756366D01*
X127589066Y-105823033D01*
X127622400Y-105956366D01*
X127622400Y-106056366D01*
X127589066Y-106189700D01*
X127555733Y-106256366D01*
X127489066Y-106323033D01*
X127389066Y-106356366D01*
X127322400Y-106356366D01*
X127222400Y-106323033D01*
X127189066Y-106289700D01*
X127189066Y-106056366D01*
X127322400Y-106056366D01*
X126489066Y-106356366D02*
X126722400Y-106023033D01*
X126889066Y-106356366D02*
X126889066Y-105656366D01*
X126622400Y-105656366D01*
X126555733Y-105689700D01*
X126522400Y-105723033D01*
X126489066Y-105789700D01*
X126489066Y-105889700D01*
X126522400Y-105956366D01*
X126555733Y-105989700D01*
X126622400Y-106023033D01*
X126889066Y-106023033D01*
X126222400Y-106156366D02*
X125889066Y-106156366D01*
X126289066Y-106356366D02*
X126055733Y-105656366D01*
X125822400Y-106356366D01*
X125589066Y-106356366D02*
X125589066Y-105656366D01*
X125355733Y-106156366D01*
X125122400Y-105656366D01*
X125122400Y-106356366D01*
X124789066Y-106356366D02*
X124789066Y-105656366D01*
X124555733Y-106156366D01*
X124322400Y-105656366D01*
X124322400Y-106356366D01*
X123989066Y-106356366D02*
X123989066Y-105656366D01*
X123655733Y-106356366D02*
X123655733Y-105656366D01*
X123255733Y-106356366D01*
X123255733Y-105656366D01*
X122555733Y-105689700D02*
X122622400Y-105656366D01*
X122722400Y-105656366D01*
X122822400Y-105689700D01*
X122889066Y-105756366D01*
X122922400Y-105823033D01*
X122955733Y-105956366D01*
X122955733Y-106056366D01*
X122922400Y-106189700D01*
X122889066Y-106256366D01*
X122822400Y-106323033D01*
X122722400Y-106356366D01*
X122655733Y-106356366D01*
X122555733Y-106323033D01*
X122522400Y-106289700D01*
X122522400Y-106056366D01*
X122655733Y-106056366D01*
X121489066Y-106589700D02*
X121655733Y-106589700D01*
X121655733Y-105589700D01*
X121489066Y-105589700D01*
X120855733Y-106356366D02*
X121255733Y-106356366D01*
X121055733Y-106356366D02*
X121055733Y-105656366D01*
X121122400Y-105756366D01*
X121189066Y-105823033D01*
X121255733Y-105856366D01*
X120422400Y-105656366D02*
X120355733Y-105656366D01*
X120289066Y-105689700D01*
X120255733Y-105723033D01*
X120222400Y-105789700D01*
X120189066Y-105923033D01*
X120189066Y-106089700D01*
X120222400Y-106223033D01*
X120255733Y-106289700D01*
X120289066Y-106323033D01*
X120355733Y-106356366D01*
X120422400Y-106356366D01*
X120489066Y-106323033D01*
X120522400Y-106289700D01*
X120555733Y-106223033D01*
X120589066Y-106089700D01*
X120589066Y-105923033D01*
X120555733Y-105789700D01*
X120522400Y-105723033D01*
X120489066Y-105689700D01*
X120422400Y-105656366D01*
X119589066Y-105889700D02*
X119589066Y-106356366D01*
X119889066Y-105889700D02*
X119889066Y-106256366D01*
X119855733Y-106323033D01*
X119789066Y-106356366D01*
X119689066Y-106356366D01*
X119622400Y-106323033D01*
X119589066Y-106289700D01*
X119022400Y-105989700D02*
X119255733Y-105989700D01*
X119255733Y-106356366D02*
X119255733Y-105656366D01*
X118922400Y-105656366D01*
X118722400Y-106589700D02*
X118555733Y-106589700D01*
X118555733Y-105589700D01*
X118722400Y-105589700D01*
X135562832Y-88438926D02*
X135562832Y-87438926D01*
X135229499Y-88153212D01*
X134896166Y-87438926D01*
X134896166Y-88438926D01*
X134229499Y-87438926D02*
X134039023Y-87438926D01*
X133943785Y-87486546D01*
X133848547Y-87581784D01*
X133800928Y-87772260D01*
X133800928Y-88105593D01*
X133848547Y-88296069D01*
X133943785Y-88391307D01*
X134039023Y-88438926D01*
X134229499Y-88438926D01*
X134324737Y-88391307D01*
X134419975Y-88296069D01*
X134467594Y-88105593D01*
X134467594Y-87772260D01*
X134419975Y-87581784D01*
X134324737Y-87486546D01*
X134229499Y-87438926D01*
X133372356Y-88438926D02*
X133372356Y-87438926D01*
X133134261Y-87438926D01*
X132991404Y-87486546D01*
X132896166Y-87581784D01*
X132848547Y-87677022D01*
X132800928Y-87867498D01*
X132800928Y-88010355D01*
X132848547Y-88200831D01*
X132896166Y-88296069D01*
X132991404Y-88391307D01*
X133134261Y-88438926D01*
X133372356Y-88438926D01*
X132372356Y-87915117D02*
X132039023Y-87915117D01*
X131896166Y-88438926D02*
X132372356Y-88438926D01*
X132372356Y-87438926D01*
X131896166Y-87438926D01*
X125269166Y-90116666D02*
X124935833Y-90116666D01*
X125335833Y-90316666D02*
X125102500Y-89616666D01*
X124869166Y-90316666D01*
X124635833Y-90316666D02*
X124635833Y-89616666D01*
X124235833Y-90316666D01*
X124235833Y-89616666D01*
X123935833Y-90116666D02*
X123602500Y-90116666D01*
X124002500Y-90316666D02*
X123769166Y-89616666D01*
X123535833Y-90316666D01*
X122969166Y-90316666D02*
X123302500Y-90316666D01*
X123302500Y-89616666D01*
X122602500Y-89616666D02*
X122469166Y-89616666D01*
X122402500Y-89650000D01*
X122335833Y-89716666D01*
X122302500Y-89850000D01*
X122302500Y-90083333D01*
X122335833Y-90216666D01*
X122402500Y-90283333D01*
X122469166Y-90316666D01*
X122602500Y-90316666D01*
X122669166Y-90283333D01*
X122735833Y-90216666D01*
X122769166Y-90083333D01*
X122769166Y-89850000D01*
X122735833Y-89716666D01*
X122669166Y-89650000D01*
X122602500Y-89616666D01*
X121635833Y-89650000D02*
X121702500Y-89616666D01*
X121802500Y-89616666D01*
X121902500Y-89650000D01*
X121969166Y-89716666D01*
X122002500Y-89783333D01*
X122035833Y-89916666D01*
X122035833Y-90016666D01*
X122002500Y-90150000D01*
X121969166Y-90216666D01*
X121902500Y-90283333D01*
X121802500Y-90316666D01*
X121735833Y-90316666D01*
X121635833Y-90283333D01*
X121602500Y-90250000D01*
X121602500Y-90016666D01*
X121735833Y-90016666D01*
X124835833Y-98250000D02*
X124869166Y-98283333D01*
X124969166Y-98316666D01*
X125035833Y-98316666D01*
X125135833Y-98283333D01*
X125202500Y-98216666D01*
X125235833Y-98150000D01*
X125269166Y-98016666D01*
X125269166Y-97916666D01*
X125235833Y-97783333D01*
X125202500Y-97716666D01*
X125135833Y-97650000D01*
X125035833Y-97616666D01*
X124969166Y-97616666D01*
X124869166Y-97650000D01*
X124835833Y-97683333D01*
X124135833Y-98250000D02*
X124169166Y-98283333D01*
X124269166Y-98316666D01*
X124335833Y-98316666D01*
X124435833Y-98283333D01*
X124502500Y-98216666D01*
X124535833Y-98150000D01*
X124569166Y-98016666D01*
X124569166Y-97916666D01*
X124535833Y-97783333D01*
X124502500Y-97716666D01*
X124435833Y-97650000D01*
X124335833Y-97616666D01*
X124269166Y-97616666D01*
X124169166Y-97650000D01*
X124135833Y-97683333D01*
X123902500Y-97616666D02*
X123735833Y-98316666D01*
X123602500Y-97816666D01*
X123469166Y-98316666D01*
X123302500Y-97616666D01*
X117481866Y-89571428D02*
X117481866Y-90047619D01*
X117767580Y-89476190D02*
X116767580Y-89809523D01*
X117767580Y-90142857D01*
X117767580Y-90476190D02*
X116767580Y-90476190D01*
X117767580Y-91047619D01*
X116767580Y-91047619D01*
X117481866Y-91476190D02*
X117481866Y-91952380D01*
X117767580Y-91380952D02*
X116767580Y-91714285D01*
X117767580Y-92047619D01*
X117767580Y-92857142D02*
X117767580Y-92380952D01*
X116767580Y-92380952D01*
X116767580Y-93380952D02*
X116767580Y-93571428D01*
X116815200Y-93666666D01*
X116910438Y-93761904D01*
X117100914Y-93809523D01*
X117434247Y-93809523D01*
X117624723Y-93761904D01*
X117719961Y-93666666D01*
X117767580Y-93571428D01*
X117767580Y-93380952D01*
X117719961Y-93285714D01*
X117624723Y-93190476D01*
X117434247Y-93142857D01*
X117100914Y-93142857D01*
X116910438Y-93190476D01*
X116815200Y-93285714D01*
X116767580Y-93380952D01*
X116815200Y-94761904D02*
X116767580Y-94666666D01*
X116767580Y-94523809D01*
X116815200Y-94380952D01*
X116910438Y-94285714D01*
X117005676Y-94238095D01*
X117196152Y-94190476D01*
X117339009Y-94190476D01*
X117529485Y-94238095D01*
X117624723Y-94285714D01*
X117719961Y-94380952D01*
X117767580Y-94523809D01*
X117767580Y-94619047D01*
X117719961Y-94761904D01*
X117672342Y-94809523D01*
X117339009Y-94809523D01*
X117339009Y-94619047D01*
X116767580Y-96190476D02*
X116767580Y-96380952D01*
X116815200Y-96476190D01*
X116910438Y-96571428D01*
X117100914Y-96619047D01*
X117434247Y-96619047D01*
X117624723Y-96571428D01*
X117719961Y-96476190D01*
X117767580Y-96380952D01*
X117767580Y-96190476D01*
X117719961Y-96095238D01*
X117624723Y-96000000D01*
X117434247Y-95952380D01*
X117100914Y-95952380D01*
X116910438Y-96000000D01*
X116815200Y-96095238D01*
X116767580Y-96190476D01*
X116767580Y-97047619D02*
X117577104Y-97047619D01*
X117672342Y-97095238D01*
X117719961Y-97142857D01*
X117767580Y-97238095D01*
X117767580Y-97428571D01*
X117719961Y-97523809D01*
X117672342Y-97571428D01*
X117577104Y-97619047D01*
X116767580Y-97619047D01*
X116767580Y-97952380D02*
X116767580Y-98523809D01*
X117767580Y-98238095D02*
X116767580Y-98238095D01*
X129366666Y-92816666D02*
X129366666Y-92116666D01*
X129100000Y-92116666D01*
X129033333Y-92150000D01*
X129000000Y-92183333D01*
X128966666Y-92250000D01*
X128966666Y-92350000D01*
X129000000Y-92416666D01*
X129033333Y-92450000D01*
X129100000Y-92483333D01*
X129366666Y-92483333D01*
X128300000Y-92150000D02*
X128366666Y-92116666D01*
X128466666Y-92116666D01*
X128566666Y-92150000D01*
X128633333Y-92216666D01*
X128666666Y-92283333D01*
X128700000Y-92416666D01*
X128700000Y-92516666D01*
X128666666Y-92650000D01*
X128633333Y-92716666D01*
X128566666Y-92783333D01*
X128466666Y-92816666D01*
X128400000Y-92816666D01*
X128300000Y-92783333D01*
X128266666Y-92750000D01*
X128266666Y-92516666D01*
X128400000Y-92516666D01*
X127833333Y-92116666D02*
X127766666Y-92116666D01*
X127700000Y-92150000D01*
X127666666Y-92183333D01*
X127633333Y-92250000D01*
X127600000Y-92383333D01*
X127600000Y-92550000D01*
X127633333Y-92683333D01*
X127666666Y-92750000D01*
X127700000Y-92783333D01*
X127766666Y-92816666D01*
X127833333Y-92816666D01*
X127900000Y-92783333D01*
X127933333Y-92750000D01*
X127966666Y-92683333D01*
X128000000Y-92550000D01*
X128000000Y-92383333D01*
X127966666Y-92250000D01*
X127933333Y-92183333D01*
X127900000Y-92150000D01*
X127833333Y-92116666D01*
X133285714Y-99952380D02*
X133285714Y-98952380D01*
X132904761Y-98952380D01*
X132809523Y-99000000D01*
X132761904Y-99047619D01*
X132714285Y-99142857D01*
X132714285Y-99285714D01*
X132761904Y-99380952D01*
X132809523Y-99428571D01*
X132904761Y-99476190D01*
X133285714Y-99476190D01*
X131761904Y-99000000D02*
X131857142Y-98952380D01*
X132000000Y-98952380D01*
X132142857Y-99000000D01*
X132238095Y-99095238D01*
X132285714Y-99190476D01*
X132333333Y-99380952D01*
X132333333Y-99523809D01*
X132285714Y-99714285D01*
X132238095Y-99809523D01*
X132142857Y-99904761D01*
X132000000Y-99952380D01*
X131904761Y-99952380D01*
X131761904Y-99904761D01*
X131714285Y-99857142D01*
X131714285Y-99523809D01*
X131904761Y-99523809D01*
X131095238Y-98952380D02*
X130904761Y-98952380D01*
X130809523Y-99000000D01*
X130714285Y-99095238D01*
X130666666Y-99285714D01*
X130666666Y-99619047D01*
X130714285Y-99809523D01*
X130809523Y-99904761D01*
X130904761Y-99952380D01*
X131095238Y-99952380D01*
X131190476Y-99904761D01*
X131285714Y-99809523D01*
X131333333Y-99619047D01*
X131333333Y-99285714D01*
X131285714Y-99095238D01*
X131190476Y-99000000D01*
X131095238Y-98952380D01*
X125235833Y-92816666D02*
X125235833Y-92116666D01*
X124935833Y-92183333D02*
X124902500Y-92150000D01*
X124835833Y-92116666D01*
X124669166Y-92116666D01*
X124602500Y-92150000D01*
X124569166Y-92183333D01*
X124535833Y-92250000D01*
X124535833Y-92316666D01*
X124569166Y-92416666D01*
X124969166Y-92816666D01*
X124535833Y-92816666D01*
X123835833Y-92750000D02*
X123869166Y-92783333D01*
X123969166Y-92816666D01*
X124035833Y-92816666D01*
X124135833Y-92783333D01*
X124202500Y-92716666D01*
X124235833Y-92650000D01*
X124269166Y-92516666D01*
X124269166Y-92416666D01*
X124235833Y-92283333D01*
X124202500Y-92216666D01*
X124135833Y-92150000D01*
X124035833Y-92116666D01*
X123969166Y-92116666D01*
X123869166Y-92150000D01*
X123835833Y-92183333D01*
X129200000Y-98316666D02*
X129200000Y-97616666D01*
X129033333Y-97616666D01*
X128933333Y-97650000D01*
X128866666Y-97716666D01*
X128833333Y-97783333D01*
X128800000Y-97916666D01*
X128800000Y-98016666D01*
X128833333Y-98150000D01*
X128866666Y-98216666D01*
X128933333Y-98283333D01*
X129033333Y-98316666D01*
X129200000Y-98316666D01*
X128500000Y-98316666D02*
X128500000Y-97616666D01*
X127766666Y-98316666D02*
X128000000Y-97983333D01*
X128166666Y-98316666D02*
X128166666Y-97616666D01*
X127900000Y-97616666D01*
X127833333Y-97650000D01*
X127800000Y-97683333D01*
X127766666Y-97750000D01*
X127766666Y-97850000D01*
X127800000Y-97916666D01*
X127833333Y-97950000D01*
X127900000Y-97983333D01*
X128166666Y-97983333D01*
X126785714Y-87767580D02*
X126785714Y-86767580D01*
X126357142Y-86862819D02*
X126309523Y-86815200D01*
X126214285Y-86767580D01*
X125976190Y-86767580D01*
X125880952Y-86815200D01*
X125833333Y-86862819D01*
X125785714Y-86958057D01*
X125785714Y-87053295D01*
X125833333Y-87196152D01*
X126404761Y-87767580D01*
X125785714Y-87767580D01*
X124785714Y-87672342D02*
X124833333Y-87719961D01*
X124976190Y-87767580D01*
X125071428Y-87767580D01*
X125214285Y-87719961D01*
X125309523Y-87624723D01*
X125357142Y-87529485D01*
X125404761Y-87339009D01*
X125404761Y-87196152D01*
X125357142Y-87005676D01*
X125309523Y-86910438D01*
X125214285Y-86815200D01*
X125071428Y-86767580D01*
X124976190Y-86767580D01*
X124833333Y-86815200D01*
X124785714Y-86862819D01*
X123404761Y-86767580D02*
X123214285Y-86767580D01*
X123119047Y-86815200D01*
X123023809Y-86910438D01*
X122976190Y-87100914D01*
X122976190Y-87434247D01*
X123023809Y-87624723D01*
X123119047Y-87719961D01*
X123214285Y-87767580D01*
X123404761Y-87767580D01*
X123500000Y-87719961D01*
X123595238Y-87624723D01*
X123642857Y-87434247D01*
X123642857Y-87100914D01*
X123595238Y-86910438D01*
X123500000Y-86815200D01*
X123404761Y-86767580D01*
X122547619Y-86767580D02*
X122547619Y-87577104D01*
X122500000Y-87672342D01*
X122452380Y-87719961D01*
X122357142Y-87767580D01*
X122166666Y-87767580D01*
X122071428Y-87719961D01*
X122023809Y-87672342D01*
X121976190Y-87577104D01*
X121976190Y-86767580D01*
X121642857Y-86767580D02*
X121071428Y-86767580D01*
X121357142Y-87767580D02*
X121357142Y-86767580D01*
X124835833Y-95750000D02*
X124869166Y-95783333D01*
X124969166Y-95816666D01*
X125035833Y-95816666D01*
X125135833Y-95783333D01*
X125202500Y-95716666D01*
X125235833Y-95650000D01*
X125269166Y-95516666D01*
X125269166Y-95416666D01*
X125235833Y-95283333D01*
X125202500Y-95216666D01*
X125135833Y-95150000D01*
X125035833Y-95116666D01*
X124969166Y-95116666D01*
X124869166Y-95150000D01*
X124835833Y-95183333D01*
X124602500Y-95116666D02*
X124435833Y-95816666D01*
X124302500Y-95316666D01*
X124169166Y-95816666D01*
X124002500Y-95116666D01*
X129200000Y-95816666D02*
X129200000Y-95116666D01*
X129033333Y-95116666D01*
X128933333Y-95150000D01*
X128866666Y-95216666D01*
X128833333Y-95283333D01*
X128800000Y-95416666D01*
X128800000Y-95516666D01*
X128833333Y-95650000D01*
X128866666Y-95716666D01*
X128933333Y-95783333D01*
X129033333Y-95816666D01*
X129200000Y-95816666D01*
X128500000Y-95816666D02*
X128500000Y-95116666D01*
X127766666Y-95816666D02*
X128000000Y-95483333D01*
X128166666Y-95816666D02*
X128166666Y-95116666D01*
X127900000Y-95116666D01*
X127833333Y-95150000D01*
X127800000Y-95183333D01*
X127766666Y-95250000D01*
X127766666Y-95350000D01*
X127800000Y-95416666D01*
X127833333Y-95450000D01*
X127900000Y-95483333D01*
X128166666Y-95483333D01*
X129366666Y-90316666D02*
X129366666Y-89616666D01*
X129100000Y-89616666D01*
X129033333Y-89650000D01*
X129000000Y-89683333D01*
X128966666Y-89750000D01*
X128966666Y-89850000D01*
X129000000Y-89916666D01*
X129033333Y-89950000D01*
X129100000Y-89983333D01*
X129366666Y-89983333D01*
X128300000Y-89650000D02*
X128366666Y-89616666D01*
X128466666Y-89616666D01*
X128566666Y-89650000D01*
X128633333Y-89716666D01*
X128666666Y-89783333D01*
X128700000Y-89916666D01*
X128700000Y-90016666D01*
X128666666Y-90150000D01*
X128633333Y-90216666D01*
X128566666Y-90283333D01*
X128466666Y-90316666D01*
X128400000Y-90316666D01*
X128300000Y-90283333D01*
X128266666Y-90250000D01*
X128266666Y-90016666D01*
X128400000Y-90016666D01*
X127833333Y-89616666D02*
X127766666Y-89616666D01*
X127700000Y-89650000D01*
X127666666Y-89683333D01*
X127633333Y-89750000D01*
X127600000Y-89883333D01*
X127600000Y-90050000D01*
X127633333Y-90183333D01*
X127666666Y-90250000D01*
X127700000Y-90283333D01*
X127766666Y-90316666D01*
X127833333Y-90316666D01*
X127900000Y-90283333D01*
X127933333Y-90250000D01*
X127966666Y-90183333D01*
X128000000Y-90050000D01*
X128000000Y-89883333D01*
X127966666Y-89750000D01*
X127933333Y-89683333D01*
X127900000Y-89650000D01*
X127833333Y-89616666D01*
X136500000Y-99952380D02*
X136500000Y-98952380D01*
X136261904Y-98952380D01*
X136119047Y-99000000D01*
X136023809Y-99095238D01*
X135976190Y-99190476D01*
X135928571Y-99380952D01*
X135928571Y-99523809D01*
X135976190Y-99714285D01*
X136023809Y-99809523D01*
X136119047Y-99904761D01*
X136261904Y-99952380D01*
X136500000Y-99952380D01*
X135500000Y-99952380D02*
X135500000Y-98952380D01*
X134452380Y-99952380D02*
X134785714Y-99476190D01*
X135023809Y-99952380D02*
X135023809Y-98952380D01*
X134642857Y-98952380D01*
X134547619Y-99000000D01*
X134500000Y-99047619D01*
X134452380Y-99142857D01*
X134452380Y-99285714D01*
X134500000Y-99380952D01*
X134547619Y-99428571D01*
X134642857Y-99476190D01*
X135023809Y-99476190D01*
%TO.C,C2*%
X121901466Y-102048742D02*
X121949085Y-102096361D01*
X122091942Y-102143980D01*
X122187180Y-102143980D01*
X122330038Y-102096361D01*
X122425276Y-102001123D01*
X122472895Y-101905885D01*
X122520514Y-101715409D01*
X122520514Y-101572552D01*
X122472895Y-101382076D01*
X122425276Y-101286838D01*
X122330038Y-101191600D01*
X122187180Y-101143980D01*
X122091942Y-101143980D01*
X121949085Y-101191600D01*
X121901466Y-101239219D01*
X121520514Y-101239219D02*
X121472895Y-101191600D01*
X121377657Y-101143980D01*
X121139561Y-101143980D01*
X121044323Y-101191600D01*
X120996704Y-101239219D01*
X120949085Y-101334457D01*
X120949085Y-101429695D01*
X120996704Y-101572552D01*
X121568133Y-102143980D01*
X120949085Y-102143980D01*
D11*
%TO.C,J2*%
X117690000Y-80515000D02*
X130310000Y-80515000D01*
X130600000Y-80225000D02*
X130600000Y-81475000D01*
X117700000Y-80525000D02*
X119500000Y-80525000D01*
X127000000Y-81275000D02*
X121000000Y-81275000D01*
X121000000Y-80525000D02*
X127000000Y-80525000D01*
X117700000Y-82775000D02*
X118450000Y-82775000D01*
X121000000Y-81275000D02*
X121000000Y-80525000D01*
X130310000Y-86485000D02*
X117690000Y-86485000D01*
X130300000Y-82775000D02*
X129550000Y-82775000D01*
X130300000Y-80525000D02*
X130300000Y-81275000D01*
X117690000Y-86485000D02*
X117690000Y-80515000D01*
X118450000Y-85725000D02*
X124000000Y-85725000D01*
X129550000Y-82775000D02*
X129550000Y-85725000D01*
X128500000Y-81275000D02*
X128500000Y-80525000D01*
X128500000Y-80525000D02*
X130300000Y-80525000D01*
X119500000Y-80525000D02*
X119500000Y-81275000D01*
X129350000Y-80225000D02*
X130600000Y-80225000D01*
X118450000Y-82775000D02*
X118450000Y-85725000D01*
X119500000Y-81275000D02*
X117700000Y-81275000D01*
X127000000Y-80525000D02*
X127000000Y-81275000D01*
X129550000Y-85725000D02*
X124000000Y-85725000D01*
X130300000Y-81275000D02*
X128500000Y-81275000D01*
X130310000Y-80515000D02*
X130310000Y-86485000D01*
X117700000Y-81275000D02*
X117700000Y-80525000D01*
%TO.C,C2*%
X120677200Y-99558000D02*
X120677200Y-102158000D01*
X120677200Y-102158000D02*
X118017200Y-102158000D01*
X118017200Y-96958000D02*
X118017200Y-98288000D01*
X120677200Y-99558000D02*
X118017200Y-99558000D01*
X119347200Y-96958000D02*
X118017200Y-96958000D01*
X118017200Y-99558000D02*
X118017200Y-102158000D01*
%TO.C,J1*%
X112775000Y-98300000D02*
X115725000Y-98300000D01*
X116485000Y-99060000D02*
X110515000Y-99060000D01*
X112775000Y-99050000D02*
X112775000Y-98300000D01*
X112775000Y-89700000D02*
X115725000Y-89700000D01*
X110515000Y-88940000D02*
X116485000Y-88940000D01*
X110515000Y-99060000D02*
X110515000Y-88940000D01*
X112775000Y-88950000D02*
X112775000Y-89700000D01*
X111275000Y-99050000D02*
X110525000Y-99050000D01*
X111275000Y-92250000D02*
X111275000Y-95750000D01*
X111275000Y-90750000D02*
X110525000Y-90750000D01*
X110525000Y-88950000D02*
X111275000Y-88950000D01*
X110525000Y-90750000D02*
X110525000Y-88950000D01*
X110225000Y-88650000D02*
X111475000Y-88650000D01*
X115725000Y-89700000D02*
X115725000Y-94000000D01*
X111275000Y-95750000D02*
X110525000Y-95750000D01*
X110525000Y-99050000D02*
X110525000Y-97250000D01*
X115725000Y-98300000D02*
X115725000Y-94000000D01*
X110225000Y-89900000D02*
X110225000Y-88650000D01*
X110525000Y-92250000D02*
X111275000Y-92250000D01*
X110525000Y-97250000D02*
X111275000Y-97250000D01*
X111275000Y-88950000D02*
X111275000Y-90750000D01*
X116485000Y-88940000D02*
X116485000Y-99060000D01*
X111275000Y-97250000D02*
X111275000Y-99050000D01*
X110525000Y-95750000D02*
X110525000Y-92250000D01*
%TO.C,SW1*%
X134365000Y-91660000D02*
X135635000Y-91660000D01*
X134435000Y-95720000D02*
X134435000Y-94366667D01*
X132615000Y-95720000D02*
X132615000Y-94366667D01*
X135155000Y-95720000D02*
X135155000Y-94366667D01*
X132015000Y-95720000D02*
X132015000Y-94366667D01*
X131825000Y-91660000D02*
X133095000Y-91660000D01*
X132375000Y-95720000D02*
X132375000Y-94366667D01*
X133095000Y-91660000D02*
X133095000Y-95720000D01*
X133095000Y-95720000D02*
X131825000Y-95720000D01*
X130040000Y-98640000D02*
X130040000Y-88740000D01*
X132855000Y-95720000D02*
X132855000Y-94366667D01*
X137420000Y-98640000D02*
X130040000Y-98640000D01*
X132255000Y-95720000D02*
X132255000Y-94366667D01*
X134915000Y-95720000D02*
X134915000Y-94366667D01*
X134675000Y-95720000D02*
X134675000Y-94366667D01*
X132735000Y-95720000D02*
X132735000Y-94366667D01*
X132975000Y-95720000D02*
X132975000Y-94366667D01*
X134555000Y-95720000D02*
X134555000Y-94366667D01*
X135275000Y-95720000D02*
X135275000Y-94366667D01*
X132135000Y-95720000D02*
X132135000Y-94366667D01*
X132495000Y-95720000D02*
X132495000Y-94366667D01*
X135635000Y-95720000D02*
X134365000Y-95720000D01*
X135515000Y-95720000D02*
X135515000Y-94366667D01*
X137660000Y-98880000D02*
X136277000Y-98880000D01*
X131825000Y-95720000D02*
X131825000Y-91660000D01*
X137420000Y-98640000D02*
X137420000Y-88740000D01*
X135635000Y-94366667D02*
X134365000Y-94366667D01*
X135395000Y-95720000D02*
X135395000Y-94366667D01*
X131895000Y-95720000D02*
X131895000Y-94366667D01*
X137660000Y-98880000D02*
X137660000Y-97496000D01*
X134365000Y-95720000D02*
X134365000Y-91660000D01*
X134795000Y-95720000D02*
X134795000Y-94366667D01*
X135035000Y-95720000D02*
X135035000Y-94366667D01*
X133095000Y-94366667D02*
X131825000Y-94366667D01*
X137420000Y-88740000D02*
X130040000Y-88740000D01*
X135635000Y-91660000D02*
X135635000Y-95720000D01*
%TD*%
M02*
