%TF.GenerationSoftware,KiCad,Pcbnew,(6.0.8)*%
%TF.CreationDate,2023-04-13T09:43:49+02:00*%
%TF.ProjectId,ENCODER,454e434f-4445-4522-9e6b-696361645f70,1.0*%
%TF.SameCoordinates,Original*%
%TF.FileFunction,Soldermask,Bot*%
%TF.FilePolarity,Negative*%
%FSLAX46Y46*%
G04 Gerber Fmt 4.6, Leading zero omitted, Abs format (unit mm)*
G04 Created by KiCad (PCBNEW (6.0.8)) date 2023-04-13 09:43:49*
%MOMM*%
%LPD*%
G01*
G04 APERTURE LIST*
G04 Aperture macros list*
%AMRoundRect*
0 Rectangle with rounded corners*
0 $1 Rounding radius*
0 $2 $3 $4 $5 $6 $7 $8 $9 X,Y pos of 4 corners*
0 Add a 4 corners polygon primitive as box body*
4,1,4,$2,$3,$4,$5,$6,$7,$8,$9,$2,$3,0*
0 Add four circle primitives for the rounded corners*
1,1,$1+$1,$2,$3*
1,1,$1+$1,$4,$5*
1,1,$1+$1,$6,$7*
1,1,$1+$1,$8,$9*
0 Add four rect primitives between the rounded corners*
20,1,$1+$1,$2,$3,$4,$5,0*
20,1,$1+$1,$4,$5,$6,$7,0*
20,1,$1+$1,$6,$7,$8,$9,0*
20,1,$1+$1,$8,$9,$2,$3,0*%
G04 Aperture macros list end*
%ADD10C,0.800000*%
%ADD11C,6.400000*%
%ADD12RoundRect,0.250000X0.600000X0.725000X-0.600000X0.725000X-0.600000X-0.725000X0.600000X-0.725000X0*%
%ADD13O,1.700000X1.950000*%
%ADD14R,1.700000X1.700000*%
%ADD15O,1.700000X1.700000*%
%ADD16RoundRect,0.250000X-0.725000X0.600000X-0.725000X-0.600000X0.725000X-0.600000X0.725000X0.600000X0*%
%ADD17O,1.950000X1.700000*%
%ADD18R,1.600000X1.600000*%
%ADD19O,1.600000X1.600000*%
G04 APERTURE END LIST*
D10*
%TO.C,H3*%
X134500000Y-81100000D03*
X132100000Y-83500000D03*
X136197056Y-81802944D03*
X132802944Y-85197056D03*
X136197056Y-85197056D03*
X132802944Y-81802944D03*
X134500000Y-85900000D03*
D11*
X134500000Y-83500000D03*
D10*
X136900000Y-83500000D03*
%TD*%
%TO.C,H4*%
X136900000Y-104500000D03*
X136197056Y-106197056D03*
X134500000Y-102100000D03*
X132802944Y-102802944D03*
X134500000Y-106900000D03*
D11*
X134500000Y-104500000D03*
D10*
X132100000Y-104500000D03*
X136197056Y-102802944D03*
X132802944Y-106197056D03*
%TD*%
%TO.C,H2*%
X111100000Y-83500000D03*
D11*
X113500000Y-83500000D03*
D10*
X113500000Y-85900000D03*
X113500000Y-81100000D03*
X115197056Y-81802944D03*
X115197056Y-85197056D03*
X115900000Y-83500000D03*
X111802944Y-81802944D03*
X111802944Y-85197056D03*
%TD*%
%TO.C,H1*%
X113500000Y-106900000D03*
X111802944Y-106197056D03*
X115900000Y-104500000D03*
X115197056Y-106197056D03*
X113500000Y-102100000D03*
D11*
X113500000Y-104500000D03*
D10*
X111100000Y-104500000D03*
X111802944Y-102802944D03*
X115197056Y-102802944D03*
%TD*%
D12*
%TO.C,J2*%
X127750000Y-82975000D03*
D13*
X125250000Y-82975000D03*
X122750000Y-82975000D03*
X120250000Y-82975000D03*
%TD*%
D14*
%TO.C,C2*%
X119347200Y-98288000D03*
D15*
X119347200Y-100828000D03*
%TD*%
D16*
%TO.C,J1*%
X112975000Y-91500000D03*
D17*
X112975000Y-94000000D03*
X112975000Y-96500000D03*
%TD*%
D18*
%TO.C,SW1*%
X135000000Y-97500000D03*
D19*
X132460000Y-97500000D03*
X132460000Y-89880000D03*
X135000000Y-89880000D03*
%TD*%
M02*
