M48
; DRILL file {KiCad (6.0.8)} date Tue Apr 18 11:51:27 2023
; FORMAT={-:-/ absolute / inch / decimal}
; #@! TF.CreationDate,2023-04-18T11:51:27+02:00
; #@! TF.GenerationSoftware,Kicad,Pcbnew,(6.0.8)
; #@! TF.FileFunction,Plated,1,2,PTH
FMAT,2
INCH
; #@! TA.AperFunction,Plated,PTH,ViaDrill
T1C0.0118
; #@! TA.AperFunction,Plated,PTH,ComponentDrill
T2C0.0197
; #@! TA.AperFunction,Plated,PTH,ComponentDrill
T3C0.0315
; #@! TA.AperFunction,Plated,PTH,ComponentDrill
T4C0.0374
; #@! TA.AperFunction,Plated,PTH,ComponentDrill
T5C0.0394
; #@! TA.AperFunction,Plated,PTH,ComponentDrill
T6C0.1260
%
G90
G05
T1
X4.6987Y-3.676
X5.0681Y-3.726
X5.0945Y-3.656
T2
X4.374Y-3.2874
X4.374Y-4.1142
X4.4017Y-3.2206
X4.4017Y-3.3542
X4.4017Y-4.0474
X4.4017Y-4.181
X4.4685Y-3.1929
X4.4685Y-3.3819
X4.4685Y-4.0197
X4.4685Y-4.2087
X4.5353Y-3.2206
X4.5353Y-3.3542
X4.5353Y-4.0474
X4.5353Y-4.181
X4.563Y-3.2874
X4.563Y-4.1142
X5.2008Y-3.2874
X5.2008Y-4.1142
X5.2285Y-3.2206
X5.2285Y-3.3542
X5.2285Y-4.0474
X5.2285Y-4.181
X5.2953Y-3.1929
X5.2953Y-3.3819
X5.2953Y-4.0197
X5.2953Y-4.2087
X5.3621Y-3.2206
X5.3621Y-3.3542
X5.3621Y-4.0474
X5.3621Y-4.181
X5.3898Y-3.2874
X5.3898Y-4.1142
T3
X5.215Y-3.5386
X5.215Y-3.8386
X5.315Y-3.5386
X5.315Y-3.8386
T4
X4.4478Y-3.6024
X4.4478Y-3.7008
X4.4478Y-3.7992
X4.7343Y-3.2667
X4.8327Y-3.2667
X4.9311Y-3.2667
X5.0295Y-3.2667
T5
X4.6987Y-3.8696
X4.6987Y-3.9696
T6
X4.4685Y-3.2874
X4.4685Y-4.1142
X5.2953Y-3.2874
X5.2953Y-4.1142
T0
M30
