M48
; DRILL file {KiCad (6.0.8)} date Thu Apr 20 14:40:45 2023
; FORMAT={-:-/ absolute / inch / decimal}
; #@! TF.CreationDate,2023-04-20T14:40:45+02:00
; #@! TF.GenerationSoftware,Kicad,Pcbnew,(6.0.8)
; #@! TF.FileFunction,Plated,1,2,PTH
FMAT,2
INCH
; #@! TA.AperFunction,Plated,PTH,ViaDrill
T1C0.0079
; #@! TA.AperFunction,Plated,PTH,ViaDrill
T2C0.0118
; #@! TA.AperFunction,Plated,PTH,ViaDrill
T3C0.0138
; #@! TA.AperFunction,Plated,PTH,ComponentDrill
T4C0.0197
; #@! TA.AperFunction,Plated,PTH,ViaDrill
T5C0.0236
; #@! TA.AperFunction,Plated,PTH,ComponentDrill
T6C0.0276
; #@! TA.AperFunction,Plated,PTH,ComponentDrill
T7C0.0300
; #@! TA.AperFunction,Plated,PTH,ComponentDrill
T8C0.0374
; #@! TA.AperFunction,Plated,PTH,ComponentDrill
T9C0.0394
; #@! TA.AperFunction,Plated,PTH,ComponentDrill
T10C0.0591
; #@! TA.AperFunction,Plated,PTH,ComponentDrill
T11C0.0598
; #@! TA.AperFunction,Plated,PTH,ComponentDrill
T12C0.1260
%
G90
G05
T1
X4.2003Y-3.0122
X4.2503Y-3.5322
X4.2503Y-4.5722
X4.2903Y-3.3122
X4.2903Y-4.3322
X4.4603Y-4.8322
X4.4903Y-2.7322
X4.51Y-3.342
X4.5315Y-4.1624
X4.536Y-4.502
X4.632Y-3.26
X4.6403Y-3.0122
X4.678Y-3.658
X4.7003Y-4.5422
X4.722Y-4.087
X4.75Y-4.322
X4.754Y-3.34
X4.828Y-2.776
X4.8603Y-5.2422
X4.906Y-4.89
X4.9215Y-3.6804
X4.9303Y-3.3422
X4.938Y-2.458
X4.957Y-3.978
X4.958Y-3.846
X4.9603Y-4.5422
X5.0829Y-4.5463
X5.1503Y-3.3422
X5.2103Y-3.6822
X5.216Y-3.962
X5.218Y-4.274
X5.244Y-2.782
X5.2903Y-2.5022
X5.344Y-2.928
X5.36Y-4.712
X5.364Y-5.024
X5.404Y-2.72
X5.42Y-3.902
X5.504Y-2.41
X5.558Y-3.288
X5.5603Y-3.9422
X5.576Y-2.574
X5.602Y-2.698
X5.6203Y-3.7172
X5.632Y-4.684
X5.635Y-5.0322
X5.636Y-3.156
X5.6403Y-3.5122
X5.673Y-3.06
X5.674Y-3.41
X5.724Y-2.926
X5.764Y-2.444
X5.796Y-2.792
X5.895Y-3.74
X5.912Y-2.888
X5.942Y-3.528
X5.9702Y-3.4308
X5.974Y-3.278
X6.0343Y-3.1919
X6.044Y-3.755
X6.053Y-4.594
X6.074Y-3.518
X6.08Y-4.3
X6.0871Y-3.1619
X6.088Y-3.816
X6.1Y-3.021
X6.1203Y-2.3622
X6.124Y-4.184
X6.142Y-2.75
X6.164Y-4.81
X6.1907Y-3.3167
X6.218Y-2.888
X6.274Y-2.79
X6.2903Y-2.9172
X6.3243Y-4.6642
X6.3403Y-3.7522
X6.3803Y-3.4622
X6.388Y-4.174
X6.3903Y-2.4722
X6.392Y-2.71
X6.402Y-3.028
X6.472Y-3.14
X6.5003Y-3.9422
X6.5103Y-4.0022
X6.533Y-4.499
X6.546Y-4.718
X6.5803Y-2.3722
X6.5803Y-3.5422
X6.582Y-3.826
X6.5903Y-3.1622
X6.632Y-2.992
X6.6403Y-2.8622
X6.714Y-4.84
X6.7303Y-2.3622
X6.7303Y-2.5522
X6.7403Y-2.7122
X6.7503Y-3.0722
X6.7503Y-3.9422
X6.7703Y-4.0022
X6.7753Y-2.8322
X6.804Y-3.632
X6.815Y-2.692
X6.8203Y-4.1922
X6.8403Y-4.9722
X6.8503Y-3.3122
X6.856Y-2.682
X6.916Y-2.888
X7.03Y-4.507
X7.03Y-4.814
X7.0603Y-2.3622
X7.0603Y-2.5122
X7.0803Y-3.7722
X7.086Y-3.426
X7.088Y-3.044
X7.1703Y-5.1522
X7.3203Y-5.2322
X7.44Y-4.862
X7.462Y-2.834
X7.4803Y-4.1122
X7.488Y-3.824
X7.568Y-3.332
X7.596Y-3.044
X7.6303Y-3.5122
X7.644Y-2.722
X7.714Y-2.672
X7.752Y-4.998
X7.9503Y-3.3122
X7.9525Y-4.1034
X7.956Y-4.61
X7.9603Y-4.3322
X8.0003Y-3.0422
X8.0803Y-3.7822
T2
X5.206Y-3.196
X5.244Y-3.04
X5.418Y-2.814
X5.423Y-3.153
X5.436Y-4.444
X5.446Y-4.11
X5.4703Y-3.9022
X5.502Y-4.214
X5.576Y-4.31
X5.5763Y-3.5582
X5.6079Y-4.2623
X5.712Y-2.722
X5.7363Y-4.0042
X5.7503Y-3.6462
X5.7803Y-3.6702
X5.7923Y-3.8362
X5.828Y-4.214
X5.834Y-2.924
X5.855Y-3.48
X5.88Y-3.925
X5.892Y-4.306
X5.915Y-3.395
X5.964Y-3.612
X5.98Y-4.577
X5.994Y-3.64
X6.03Y-4.545
X6.081Y-3.709
X6.1103Y-3.4022
X6.1315Y-3.1614
X6.148Y-3.764
X6.16Y-3.512
X6.17Y-3.64
X6.17Y-3.706
X6.178Y-3.08
X6.183Y-3.535
X6.194Y-3.612
X6.194Y-3.736
X6.196Y-3.566
X6.216Y-3.062
X6.2223Y-3.094
X6.2323Y-3.8494
X6.2883Y-3.0722
X6.2945Y-3.87
X6.2963Y-3.7842
X6.304Y-3.168
X6.318Y-3.228
X6.32Y-3.046
X6.342Y-3.206
X6.3454Y-3.0172
X6.3623Y-3.9302
X6.4Y-2.894
X6.432Y-2.862
X6.458Y-2.838
X6.57Y-2.966
X6.5883Y-4.0462
X6.6353Y-3.0872
X6.6403Y-4.0482
X6.6863Y-2.8942
X6.735Y-2.765
X6.8Y-2.81
X6.96Y-2.521
X7.0172Y-2.6332
X7.48Y-3.036
T3
X5.392Y-3.196
T4
X4.5118Y-2.4803
X4.5118Y-5.1575
X4.5395Y-2.4135
X4.5395Y-2.5471
X4.5395Y-5.0907
X4.5395Y-5.2243
X4.6063Y-2.3858
X4.6063Y-2.5748
X4.6063Y-5.063
X4.6063Y-5.252
X4.6731Y-2.4135
X4.6731Y-2.5471
X4.6731Y-5.0907
X4.6731Y-5.2243
X4.7008Y-2.4803
X4.7008Y-5.1575
X7.5433Y-2.4803
X7.5433Y-5.1575
X7.571Y-2.4135
X7.571Y-2.5471
X7.571Y-5.0907
X7.571Y-5.2243
X7.6378Y-2.3858
X7.6378Y-2.5748
X7.6378Y-5.063
X7.6378Y-5.252
X7.7046Y-2.4135
X7.7046Y-2.5471
X7.7046Y-5.0907
X7.7046Y-5.2243
X7.7323Y-2.4803
X7.7323Y-5.1575
T5
X4.928Y-3.762
X5.122Y-4.116
X5.358Y-4.632
X6.09Y-4.05
X6.3512Y-2.9007
T6
X4.588Y-3.4057
X4.6871Y-3.4057
X6.298Y-2.71
X6.56Y-2.87
T7
X4.97Y-2.792
X4.97Y-2.892
X4.97Y-2.992
X4.97Y-3.092
X5.07Y-2.792
X5.07Y-2.892
X5.07Y-2.992
X5.07Y-3.092
T8
X5.4746Y-5.1421
X5.573Y-5.1421
X5.6715Y-5.1421
X5.7699Y-5.1421
X6.4722Y-5.1421
X6.5707Y-5.1421
X6.6691Y-5.1421
X6.7675Y-5.1421
X7.96Y-3.7216
X7.96Y-3.82
X7.96Y-3.9184
T9
X5.2439Y-3.4403
X5.3439Y-3.4403
X5.4439Y-3.4403
X5.5439Y-3.4403
X6.705Y-3.21
X6.705Y-3.31
X6.705Y-3.41
X7.0237Y-3.8189
X7.1497Y-3.8189
X7.325Y-2.6748
X7.325Y-2.7748
X7.375Y-4.542
X7.375Y-4.642
X7.375Y-4.742
X7.5385Y-4.542
X7.5385Y-4.642
X7.5385Y-4.742
X7.702Y-4.542
X7.702Y-4.642
X7.702Y-4.742
T10
X6.1003Y-3.2722
T11
X4.2913Y-3.7189
X4.2913Y-3.9189
X6.022Y-5.1378
X6.222Y-5.1378
T12
X4.6063Y-2.4803
X4.6063Y-5.1575
X7.6378Y-2.4803
X7.6378Y-5.1575
T0
M30
