%TF.GenerationSoftware,KiCad,Pcbnew,(6.0.8)*%
%TF.CreationDate,2023-04-20T14:40:41+02:00*%
%TF.ProjectId,scheda PSE,73636865-6461-4205-9053-452e6b696361,rev?*%
%TF.SameCoordinates,Original*%
%TF.FileFunction,Soldermask,Top*%
%TF.FilePolarity,Negative*%
%FSLAX46Y46*%
G04 Gerber Fmt 4.6, Leading zero omitted, Abs format (unit mm)*
G04 Created by KiCad (PCBNEW (6.0.8)) date 2023-04-20 14:40:41*
%MOMM*%
%LPD*%
G01*
G04 APERTURE LIST*
G04 Aperture macros list*
%AMRoundRect*
0 Rectangle with rounded corners*
0 $1 Rounding radius*
0 $2 $3 $4 $5 $6 $7 $8 $9 X,Y pos of 4 corners*
0 Add a 4 corners polygon primitive as box body*
4,1,4,$2,$3,$4,$5,$6,$7,$8,$9,$2,$3,0*
0 Add four circle primitives for the rounded corners*
1,1,$1+$1,$2,$3*
1,1,$1+$1,$4,$5*
1,1,$1+$1,$6,$7*
1,1,$1+$1,$8,$9*
0 Add four rect primitives between the rounded corners*
20,1,$1+$1,$2,$3,$4,$5,0*
20,1,$1+$1,$4,$5,$6,$7,0*
20,1,$1+$1,$6,$7,$8,$9,0*
20,1,$1+$1,$8,$9,$2,$3,0*%
%AMRotRect*
0 Rectangle, with rotation*
0 The origin of the aperture is its center*
0 $1 length*
0 $2 width*
0 $3 Rotation angle, in degrees counterclockwise*
0 Add horizontal line*
21,1,$1,$2,0,0,$3*%
G04 Aperture macros list end*
%ADD10C,0.010000*%
%ADD11R,0.900000X1.500000*%
%ADD12RotRect,0.660400X2.032000X45.000000*%
%ADD13RoundRect,0.225000X0.250000X-0.225000X0.250000X0.225000X-0.250000X0.225000X-0.250000X-0.225000X0*%
%ADD14RoundRect,0.225000X0.335876X0.017678X0.017678X0.335876X-0.335876X-0.017678X-0.017678X-0.335876X0*%
%ADD15RoundRect,0.150000X0.512500X0.150000X-0.512500X0.150000X-0.512500X-0.150000X0.512500X-0.150000X0*%
%ADD16RoundRect,0.250000X0.250000X0.475000X-0.250000X0.475000X-0.250000X-0.475000X0.250000X-0.475000X0*%
%ADD17RoundRect,0.225000X0.225000X0.250000X-0.225000X0.250000X-0.225000X-0.250000X0.225000X-0.250000X0*%
%ADD18RoundRect,0.225000X0.017678X-0.335876X0.335876X-0.017678X-0.017678X0.335876X-0.335876X0.017678X0*%
%ADD19RoundRect,0.150000X0.150000X-0.587500X0.150000X0.587500X-0.150000X0.587500X-0.150000X-0.587500X0*%
%ADD20R,2.750000X1.000000*%
%ADD21RoundRect,0.200000X0.200000X0.275000X-0.200000X0.275000X-0.200000X-0.275000X0.200000X-0.275000X0*%
%ADD22C,1.500000*%
%ADD23RoundRect,0.050000X0.486136X0.415425X0.415425X0.486136X-0.486136X-0.415425X-0.415425X-0.486136X0*%
%ADD24RoundRect,0.050000X0.415425X-0.486136X0.486136X-0.415425X-0.415425X0.486136X-0.486136X0.415425X0*%
%ADD25RotRect,3.200000X3.200000X45.000000*%
%ADD26RoundRect,0.200000X-0.275000X0.200000X-0.275000X-0.200000X0.275000X-0.200000X0.275000X0.200000X0*%
%ADD27RotRect,2.100000X1.800000X315.000000*%
%ADD28C,0.800000*%
%ADD29C,6.400000*%
%ADD30RoundRect,0.225000X-0.250000X0.225000X-0.250000X-0.225000X0.250000X-0.225000X0.250000X0.225000X0*%
%ADD31RoundRect,0.200000X-0.950000X0.950000X-0.950000X-0.950000X0.950000X-0.950000X0.950000X0.950000X0*%
%ADD32RoundRect,0.243750X-0.456250X0.243750X-0.456250X-0.243750X0.456250X-0.243750X0.456250X0.243750X0*%
%ADD33RoundRect,0.250000X-0.375000X-0.625000X0.375000X-0.625000X0.375000X0.625000X-0.375000X0.625000X0*%
%ADD34O,1.600000X2.000000*%
%ADD35RoundRect,0.200000X0.275000X-0.200000X0.275000X0.200000X-0.275000X0.200000X-0.275000X-0.200000X0*%
%ADD36RoundRect,0.150000X-0.587500X-0.150000X0.587500X-0.150000X0.587500X0.150000X-0.587500X0.150000X0*%
%ADD37R,1.500000X0.900000*%
%ADD38RoundRect,0.200000X-0.200000X-0.275000X0.200000X-0.275000X0.200000X0.275000X-0.200000X0.275000X0*%
%ADD39R,1.000000X2.750000*%
%ADD40C,2.000000*%
%ADD41RoundRect,0.250000X0.475000X-0.250000X0.475000X0.250000X-0.475000X0.250000X-0.475000X-0.250000X0*%
%ADD42RoundRect,0.150000X0.587500X0.150000X-0.587500X0.150000X-0.587500X-0.150000X0.587500X-0.150000X0*%
%ADD43RoundRect,0.250000X0.725000X-0.600000X0.725000X0.600000X-0.725000X0.600000X-0.725000X-0.600000X0*%
%ADD44O,1.950000X1.700000*%
%ADD45RoundRect,0.225000X-0.335876X-0.017678X-0.017678X-0.335876X0.335876X0.017678X0.017678X0.335876X0*%
%ADD46C,3.200000*%
%ADD47R,1.200000X0.900000*%
%ADD48R,0.900000X1.200000*%
%ADD49R,1.700000X1.700000*%
%ADD50O,1.700000X1.700000*%
%ADD51RoundRect,0.218750X-0.026517X0.335876X-0.335876X0.026517X0.026517X-0.335876X0.335876X-0.026517X0*%
%ADD52RoundRect,0.225000X-0.017678X0.335876X-0.335876X0.017678X0.017678X-0.335876X0.335876X-0.017678X0*%
%ADD53R,1.800000X2.500000*%
%ADD54C,1.524000*%
%ADD55R,3.000000X1.500000*%
%ADD56R,1.500000X3.000000*%
%ADD57RoundRect,0.150000X0.150000X-0.825000X0.150000X0.825000X-0.150000X0.825000X-0.150000X-0.825000X0*%
%ADD58R,1.000000X1.000000*%
%ADD59R,1.600000X1.600000*%
%ADD60C,1.600000*%
%ADD61C,0.900000*%
%ADD62RoundRect,0.125000X0.125000X0.975000X-0.125000X0.975000X-0.125000X-0.975000X0.125000X-0.975000X0*%
%ADD63RoundRect,0.500000X-0.600000X0.500000X-0.600000X-0.500000X0.600000X-0.500000X0.600000X0.500000X0*%
%ADD64RoundRect,0.225000X-0.225000X-0.250000X0.225000X-0.250000X0.225000X0.250000X-0.225000X0.250000X0*%
%ADD65R,1.752600X0.711200*%
%ADD66R,3.000000X3.000000*%
%ADD67C,3.000000*%
%ADD68RoundRect,0.150000X-0.150000X0.587500X-0.150000X-0.587500X0.150000X-0.587500X0.150000X0.587500X0*%
%ADD69RoundRect,0.200000X0.053033X-0.335876X0.335876X-0.053033X-0.053033X0.335876X-0.335876X0.053033X0*%
%ADD70RoundRect,0.200000X-0.053033X0.335876X-0.335876X0.053033X0.053033X-0.335876X0.335876X-0.053033X0*%
%ADD71RoundRect,0.250000X0.600000X0.725000X-0.600000X0.725000X-0.600000X-0.725000X0.600000X-0.725000X0*%
%ADD72O,1.700000X1.950000*%
G04 APERTURE END LIST*
%TO.C,U8*%
G36*
X144753796Y-96852200D02*
G01*
X144353796Y-96852200D01*
X144353796Y-95532200D01*
X144753796Y-95532200D01*
X144753796Y-96852200D01*
G37*
D10*
X144753796Y-96852200D02*
X144353796Y-96852200D01*
X144353796Y-95532200D01*
X144753796Y-95532200D01*
X144753796Y-96852200D01*
G36*
X146183796Y-98362200D02*
G01*
X144863796Y-98362200D01*
X144863796Y-97962200D01*
X146183796Y-97962200D01*
X146183796Y-98362200D01*
G37*
X146183796Y-98362200D02*
X144863796Y-98362200D01*
X144863796Y-97962200D01*
X146183796Y-97962200D01*
X146183796Y-98362200D01*
G36*
X144753796Y-99792200D02*
G01*
X144353796Y-99792200D01*
X144353796Y-98472200D01*
X144753796Y-98472200D01*
X144753796Y-99792200D01*
G37*
X144753796Y-99792200D02*
X144353796Y-99792200D01*
X144353796Y-98472200D01*
X144753796Y-98472200D01*
X144753796Y-99792200D01*
G36*
X146183796Y-97862200D02*
G01*
X144863796Y-97862200D01*
X144863796Y-97462200D01*
X146183796Y-97462200D01*
X146183796Y-97862200D01*
G37*
X146183796Y-97862200D02*
X144863796Y-97862200D01*
X144863796Y-97462200D01*
X146183796Y-97462200D01*
X146183796Y-97862200D01*
G36*
X144253796Y-99792200D02*
G01*
X143853796Y-99792200D01*
X143853796Y-98472200D01*
X144253796Y-98472200D01*
X144253796Y-99792200D01*
G37*
X144253796Y-99792200D02*
X143853796Y-99792200D01*
X143853796Y-98472200D01*
X144253796Y-98472200D01*
X144253796Y-99792200D01*
G36*
X143253796Y-99792200D02*
G01*
X142853796Y-99792200D01*
X142853796Y-98472200D01*
X143253796Y-98472200D01*
X143253796Y-99792200D01*
G37*
X143253796Y-99792200D02*
X142853796Y-99792200D01*
X142853796Y-98472200D01*
X143253796Y-98472200D01*
X143253796Y-99792200D01*
G36*
X145253796Y-96852200D02*
G01*
X144853796Y-96852200D01*
X144853796Y-95532200D01*
X145253796Y-95532200D01*
X145253796Y-96852200D01*
G37*
X145253796Y-96852200D02*
X144853796Y-96852200D01*
X144853796Y-95532200D01*
X145253796Y-95532200D01*
X145253796Y-96852200D01*
G36*
X143753796Y-96852200D02*
G01*
X143353796Y-96852200D01*
X143353796Y-95532200D01*
X143753796Y-95532200D01*
X143753796Y-96852200D01*
G37*
X143753796Y-96852200D02*
X143353796Y-96852200D01*
X143353796Y-95532200D01*
X143753796Y-95532200D01*
X143753796Y-96852200D01*
G36*
X143253796Y-96852200D02*
G01*
X142853796Y-96852200D01*
X142853796Y-95532200D01*
X143253796Y-95532200D01*
X143253796Y-96852200D01*
G37*
X143253796Y-96852200D02*
X142853796Y-96852200D01*
X142853796Y-95532200D01*
X143253796Y-95532200D01*
X143253796Y-96852200D01*
G36*
X143243796Y-97862200D02*
G01*
X141923796Y-97862200D01*
X141923796Y-97462200D01*
X143243796Y-97462200D01*
X143243796Y-97862200D01*
G37*
X143243796Y-97862200D02*
X141923796Y-97862200D01*
X141923796Y-97462200D01*
X143243796Y-97462200D01*
X143243796Y-97862200D01*
G36*
X143243796Y-98362200D02*
G01*
X141923796Y-98362200D01*
X141923796Y-97962200D01*
X143243796Y-97962200D01*
X143243796Y-98362200D01*
G37*
X143243796Y-98362200D02*
X141923796Y-98362200D01*
X141923796Y-97962200D01*
X143243796Y-97962200D01*
X143243796Y-98362200D01*
G36*
X144253796Y-96852200D02*
G01*
X143853796Y-96852200D01*
X143853796Y-95532200D01*
X144253796Y-95532200D01*
X144253796Y-96852200D01*
G37*
X144253796Y-96852200D02*
X143853796Y-96852200D01*
X143853796Y-95532200D01*
X144253796Y-95532200D01*
X144253796Y-96852200D01*
G36*
X146183796Y-97362200D02*
G01*
X144863796Y-97362200D01*
X144863796Y-96962200D01*
X146183796Y-96962200D01*
X146183796Y-97362200D01*
G37*
X146183796Y-97362200D02*
X144863796Y-97362200D01*
X144863796Y-96962200D01*
X146183796Y-96962200D01*
X146183796Y-97362200D01*
G36*
X145253796Y-99792200D02*
G01*
X144853796Y-99792200D01*
X144853796Y-98472200D01*
X145253796Y-98472200D01*
X145253796Y-99792200D01*
G37*
X145253796Y-99792200D02*
X144853796Y-99792200D01*
X144853796Y-98472200D01*
X145253796Y-98472200D01*
X145253796Y-99792200D01*
G36*
X143753796Y-99792200D02*
G01*
X143353796Y-99792200D01*
X143353796Y-98472200D01*
X143753796Y-98472200D01*
X143753796Y-99792200D01*
G37*
X143753796Y-99792200D02*
X143353796Y-99792200D01*
X143353796Y-98472200D01*
X143753796Y-98472200D01*
X143753796Y-99792200D01*
G36*
X143243796Y-97362200D02*
G01*
X141923796Y-97362200D01*
X141923796Y-96962200D01*
X143243796Y-96962200D01*
X143243796Y-97362200D01*
G37*
X143243796Y-97362200D02*
X141923796Y-97362200D01*
X141923796Y-96962200D01*
X143243796Y-96962200D01*
X143243796Y-97362200D01*
%TD*%
D11*
%TO.C,D3*%
X200350000Y-112450000D03*
X203650000Y-112450000D03*
X203650000Y-107550000D03*
X200350000Y-107550000D03*
%TD*%
D12*
%TO.C,U2*%
X143880184Y-84055064D03*
X144778209Y-83157039D03*
X145676235Y-82259013D03*
X146574260Y-81360988D03*
X142227816Y-77014544D03*
X141329791Y-77912569D03*
X140431765Y-78810595D03*
X139533740Y-79708620D03*
%TD*%
D13*
%TO.C,C36*%
X168259996Y-70777400D03*
X168259996Y-69227400D03*
%TD*%
D14*
%TO.C,C13*%
X150611208Y-75732008D03*
X149515192Y-74635992D03*
%TD*%
D15*
%TO.C,U5*%
X122855500Y-91644804D03*
X122855500Y-90694804D03*
X122855500Y-89744804D03*
X120580500Y-89744804D03*
X120580500Y-91644804D03*
%TD*%
D16*
%TO.C,C39*%
X129270996Y-94631804D03*
X127370996Y-94631804D03*
%TD*%
D17*
%TO.C,C48*%
X169838196Y-67316520D03*
X168288196Y-67316520D03*
%TD*%
D13*
%TO.C,C26*%
X195895196Y-97775000D03*
X195895196Y-96225000D03*
%TD*%
D18*
%TO.C,C18*%
X157828334Y-76549886D03*
X158924350Y-75453870D03*
%TD*%
D19*
%TO.C,U10*%
X167950000Y-62031204D03*
X169850000Y-62031204D03*
X168900000Y-60156204D03*
%TD*%
D20*
%TO.C,SW5*%
X187154759Y-95000929D03*
X192914759Y-95000929D03*
X192914759Y-99000929D03*
X187154759Y-99000929D03*
%TD*%
D21*
%TO.C,R30*%
X145935200Y-72136000D03*
X144285200Y-72136000D03*
%TD*%
D22*
%TO.C,TP4*%
X166624000Y-72898000D03*
%TD*%
D23*
%TO.C,U1*%
X150483730Y-83900534D03*
X150766573Y-84183377D03*
X151049416Y-84466220D03*
X151332259Y-84749062D03*
X151615101Y-85031905D03*
X151897944Y-85314748D03*
X152180787Y-85597591D03*
X152463629Y-85880433D03*
X152746472Y-86163276D03*
X153029315Y-86446119D03*
X153312158Y-86728961D03*
X153595000Y-87011804D03*
X153877843Y-87294647D03*
X154160686Y-87577490D03*
D24*
X155733998Y-87577490D03*
X156016841Y-87294647D03*
X156299684Y-87011804D03*
X156582526Y-86728961D03*
X156865369Y-86446119D03*
X157148212Y-86163276D03*
X157431055Y-85880433D03*
X157713897Y-85597591D03*
X157996740Y-85314748D03*
X158279583Y-85031905D03*
X158562425Y-84749062D03*
X158845268Y-84466220D03*
X159128111Y-84183377D03*
X159410954Y-83900534D03*
D23*
X159410954Y-82327222D03*
X159128111Y-82044379D03*
X158845268Y-81761536D03*
X158562425Y-81478694D03*
X158279583Y-81195851D03*
X157996740Y-80913008D03*
X157713897Y-80630165D03*
X157431055Y-80347323D03*
X157148212Y-80064480D03*
X156865369Y-79781637D03*
X156582526Y-79498795D03*
X156299684Y-79215952D03*
X156016841Y-78933109D03*
X155733998Y-78650266D03*
D24*
X154160686Y-78650266D03*
X153877843Y-78933109D03*
X153595000Y-79215952D03*
X153312158Y-79498795D03*
X153029315Y-79781637D03*
X152746472Y-80064480D03*
X152463629Y-80347323D03*
X152180787Y-80630165D03*
X151897944Y-80913008D03*
X151615101Y-81195851D03*
X151332259Y-81478694D03*
X151049416Y-81761536D03*
X150766573Y-82044379D03*
X150483730Y-82327222D03*
D25*
X154947342Y-83113878D03*
%TD*%
D14*
%TO.C,C23*%
X165546408Y-90464008D03*
X164450392Y-89367992D03*
%TD*%
D26*
%TO.C,R5*%
X134924800Y-81166200D03*
X134924800Y-82816200D03*
%TD*%
D27*
%TO.C,Y1*%
X160220864Y-91664746D03*
X162271474Y-93715356D03*
X163897820Y-92089010D03*
X161847210Y-90038400D03*
%TD*%
D28*
%TO.C,H4*%
X195697056Y-129302944D03*
X191600000Y-131000000D03*
D29*
X194000000Y-131000000D03*
D28*
X192302944Y-132697056D03*
X192302944Y-129302944D03*
X194000000Y-128600000D03*
X195697056Y-132697056D03*
X194000000Y-133400000D03*
X196400000Y-131000000D03*
%TD*%
D30*
%TO.C,C45*%
X140716000Y-97142000D03*
X140716000Y-98692000D03*
%TD*%
D31*
%TO.C,BZ1*%
X183551759Y-93450929D03*
X176451759Y-93450929D03*
X176451759Y-100550929D03*
X183551759Y-100550929D03*
%TD*%
D18*
%TO.C,C19*%
X154907334Y-75178286D03*
X156003350Y-74082270D03*
%TD*%
D32*
%TO.C,D16*%
X116536400Y-81820304D03*
X116536400Y-83695304D03*
%TD*%
D33*
%TO.C,F1*%
X111174000Y-103775804D03*
X113974000Y-103775804D03*
%TD*%
D34*
%TO.C,U4*%
X133193924Y-87383351D03*
X135733924Y-87383351D03*
X138273924Y-87383351D03*
X140813924Y-87383351D03*
%TD*%
D22*
%TO.C,TP1*%
X159969200Y-68834000D03*
%TD*%
D35*
%TO.C,R10*%
X158496000Y-101244400D03*
X158496000Y-99594400D03*
%TD*%
D36*
%TO.C,Q1*%
X176354500Y-67528400D03*
X176354500Y-69428400D03*
X178229500Y-68478400D03*
%TD*%
D32*
%TO.C,D18*%
X118822400Y-81820304D03*
X118822400Y-83695304D03*
%TD*%
D22*
%TO.C,TP2*%
X119053000Y-86503804D03*
%TD*%
D37*
%TO.C,D4*%
X177550000Y-129350000D03*
X177550000Y-132650000D03*
X182450000Y-132650000D03*
X182450000Y-129350000D03*
%TD*%
D30*
%TO.C,C38*%
X136855200Y-107035600D03*
X136855200Y-108585600D03*
%TD*%
D38*
%TO.C,R3*%
X180073800Y-69037200D03*
X181723800Y-69037200D03*
%TD*%
D39*
%TO.C,SW3*%
X182001759Y-89847929D03*
X182001759Y-84087929D03*
X178001759Y-84087929D03*
X178001759Y-89847929D03*
%TD*%
D40*
%TO.C,REF\u002A\u002A*%
X189999342Y-108005878D03*
%TD*%
D26*
%TO.C,R13*%
X150368000Y-70549000D03*
X150368000Y-72199000D03*
%TD*%
D41*
%TO.C,C31*%
X120702000Y-96724804D03*
X120702000Y-94824804D03*
%TD*%
D42*
%TO.C,Q4*%
X144205924Y-67736951D03*
X144205924Y-65836951D03*
X142330924Y-66786951D03*
%TD*%
D30*
%TO.C,C41*%
X142529796Y-101762200D03*
X142529796Y-103312200D03*
%TD*%
D13*
%TO.C,C44*%
X156833300Y-104754004D03*
X156833300Y-103204004D03*
%TD*%
D21*
%TO.C,R22*%
X135394200Y-107035600D03*
X133744200Y-107035600D03*
%TD*%
D17*
%TO.C,C8*%
X136956800Y-67310000D03*
X135406800Y-67310000D03*
%TD*%
D43*
%TO.C,J1*%
X202184000Y-99528000D03*
D44*
X202184000Y-97028000D03*
X202184000Y-94528000D03*
%TD*%
D35*
%TO.C,R29*%
X146011624Y-67611951D03*
X146011624Y-65961951D03*
%TD*%
D37*
%TO.C,D8*%
X136950000Y-65150000D03*
X136950000Y-61850000D03*
X132050000Y-61850000D03*
X132050000Y-65150000D03*
%TD*%
D45*
%TO.C,C14*%
X164762534Y-84496270D03*
X165858550Y-85592286D03*
%TD*%
D26*
%TO.C,R6*%
X133146800Y-81166200D03*
X133146800Y-82816200D03*
%TD*%
D17*
%TO.C,C35*%
X123255000Y-102886804D03*
X121705000Y-102886804D03*
%TD*%
D46*
%TO.C,REF\u002A\u002A*%
X147504424Y-111135351D03*
%TD*%
D47*
%TO.C,D9*%
X185877200Y-90930000D03*
X185877200Y-87630000D03*
%TD*%
D35*
%TO.C,R1*%
X174142400Y-67169800D03*
X174142400Y-65519800D03*
%TD*%
D14*
%TO.C,C16*%
X148274408Y-78068808D03*
X147178392Y-76972792D03*
%TD*%
D30*
%TO.C,C43*%
X144307796Y-101762200D03*
X144307796Y-103312200D03*
%TD*%
D13*
%TO.C,C34*%
X118059200Y-91643200D03*
X118059200Y-90093200D03*
%TD*%
D48*
%TO.C,D19*%
X152959000Y-125111804D03*
X149659000Y-125111804D03*
%TD*%
D49*
%TO.C,J9*%
X191477900Y-115366800D03*
D50*
X191477900Y-117906800D03*
X191477900Y-120446800D03*
%TD*%
D37*
%TO.C,D1*%
X181680000Y-65340000D03*
X181680000Y-62040000D03*
X176780000Y-62040000D03*
X176780000Y-65340000D03*
%TD*%
D30*
%TO.C,C6*%
X112877600Y-107543600D03*
X112877600Y-109093600D03*
%TD*%
%TO.C,C47*%
X123901200Y-79997000D03*
X123901200Y-81547000D03*
%TD*%
D40*
%TO.C,REF\u002A\u002A*%
X119387342Y-118165878D03*
%TD*%
D16*
%TO.C,C37*%
X129270996Y-96917804D03*
X127370996Y-96917804D03*
%TD*%
D11*
%TO.C,D7*%
X110650000Y-81550000D03*
X107350000Y-81550000D03*
X107350000Y-86450000D03*
X110650000Y-86450000D03*
%TD*%
D51*
%TO.C,D10*%
X164980342Y-76816631D03*
X163866648Y-77930325D03*
%TD*%
D52*
%TO.C,C10*%
X150977600Y-88504392D03*
X149881584Y-89600408D03*
%TD*%
D39*
%TO.C,SW6*%
X178001759Y-104153929D03*
X178001759Y-109913929D03*
X182001759Y-109913929D03*
X182001759Y-104153929D03*
%TD*%
D53*
%TO.C,D12*%
X115114000Y-96695804D03*
X115114000Y-100695804D03*
%TD*%
D18*
%TO.C,C20*%
X153688134Y-73959086D03*
X154784150Y-72863070D03*
%TD*%
D54*
%TO.C,U9*%
X128778000Y-70916800D03*
X128778000Y-73456800D03*
X128778000Y-75996800D03*
X128778000Y-78536800D03*
X126238000Y-78536800D03*
X126238000Y-75996800D03*
X126238000Y-73456800D03*
X126238000Y-70916800D03*
%TD*%
D55*
%TO.C,U7*%
X170522000Y-119497000D03*
X170522000Y-117597000D03*
X170522000Y-115697000D03*
X170522000Y-113797000D03*
X170522000Y-111897000D03*
D56*
X167122000Y-108497000D03*
X165222000Y-108497000D03*
X159522000Y-108497000D03*
D55*
X156122000Y-111897000D03*
X156122000Y-115697000D03*
X156122000Y-117597000D03*
X156122000Y-119497000D03*
D56*
X159522000Y-122897000D03*
X161422000Y-122897000D03*
X163322000Y-122897000D03*
X167122000Y-122897000D03*
%TD*%
D57*
%TO.C,U3*%
X135153400Y-102246200D03*
X136423400Y-102246200D03*
X137693400Y-102246200D03*
X138963400Y-102246200D03*
X138963400Y-97296200D03*
X137693400Y-97296200D03*
X136423400Y-97296200D03*
X135153400Y-97296200D03*
%TD*%
D17*
%TO.C,C40*%
X129270996Y-92599804D03*
X127720996Y-92599804D03*
%TD*%
D20*
%TO.C,SW7*%
X139024000Y-117634000D03*
X133264000Y-117634000D03*
X133264000Y-121634000D03*
X139024000Y-121634000D03*
%TD*%
D45*
%TO.C,C9*%
X163492534Y-85740870D03*
X164588550Y-86836886D03*
%TD*%
%TO.C,C22*%
X158648400Y-93319600D03*
X159744416Y-94415616D03*
%TD*%
D26*
%TO.C,R16*%
X114555200Y-81932804D03*
X114555200Y-83582804D03*
%TD*%
D20*
%TO.C,SW4*%
X167088759Y-95000929D03*
X172848759Y-95000929D03*
X167088759Y-99000929D03*
X172848759Y-99000929D03*
%TD*%
D13*
%TO.C,C33*%
X124902196Y-91666000D03*
X124902196Y-90116000D03*
%TD*%
D49*
%TO.C,J8*%
X195630800Y-115366800D03*
D50*
X195630800Y-117906800D03*
X195630800Y-120446800D03*
%TD*%
D58*
%TO.C,D17*%
X138684000Y-107035600D03*
X138684000Y-109535600D03*
%TD*%
D14*
%TO.C,C12*%
X149442808Y-76900408D03*
X148346792Y-75804392D03*
%TD*%
D13*
%TO.C,C27*%
X175267342Y-110254078D03*
X175267342Y-108704078D03*
%TD*%
D59*
%TO.C,REF\u002A\u002A*%
X181601759Y-97000929D03*
D60*
X178401759Y-97000929D03*
%TD*%
D17*
%TO.C,C29*%
X135725200Y-91948000D03*
X134175200Y-91948000D03*
%TD*%
D28*
%TO.C,H2*%
X192302944Y-64697056D03*
X194000000Y-60600000D03*
X195697056Y-64697056D03*
X195697056Y-61302944D03*
X191600000Y-63000000D03*
X192302944Y-61302944D03*
X196400000Y-63000000D03*
X194000000Y-65400000D03*
D29*
X194000000Y-63000000D03*
%TD*%
D26*
%TO.C,R26*%
X139754000Y-83265804D03*
X139754000Y-84915804D03*
%TD*%
D20*
%TO.C,SW1*%
X182915200Y-79317600D03*
X177155200Y-79317600D03*
X182915200Y-75317600D03*
X177155200Y-75317600D03*
%TD*%
D13*
%TO.C,C3*%
X198120000Y-112471200D03*
X198120000Y-110921200D03*
%TD*%
D61*
%TO.C,J4*%
X157706400Y-62917000D03*
X153306400Y-62917000D03*
D62*
X157106400Y-65767000D03*
X156306400Y-65767000D03*
X155506400Y-65767000D03*
X154706400Y-65767000D03*
X153906400Y-65767000D03*
D63*
X159956400Y-60067000D03*
X159956400Y-65567000D03*
X151056400Y-60067000D03*
X151056400Y-65567000D03*
%TD*%
D18*
%TO.C,C17*%
X160368334Y-79089886D03*
X161464350Y-77993870D03*
%TD*%
D64*
%TO.C,C4*%
X177546000Y-127152400D03*
X179096000Y-127152400D03*
%TD*%
D30*
%TO.C,C24*%
X175318142Y-83761278D03*
X175318142Y-85311278D03*
%TD*%
D26*
%TO.C,R24*%
X164707300Y-103167004D03*
X164707300Y-104817004D03*
%TD*%
D22*
%TO.C,TP3*%
X116535200Y-86503804D03*
%TD*%
D13*
%TO.C,C2*%
X198170800Y-86461600D03*
X198170800Y-84911600D03*
%TD*%
D65*
%TO.C,L1*%
X127115500Y-100092804D03*
X129274500Y-100092804D03*
%TD*%
D66*
%TO.C,J5*%
X152960000Y-130500000D03*
D67*
X158040000Y-130500000D03*
%TD*%
D68*
%TO.C,Q2*%
X186827200Y-83796900D03*
X184927200Y-83796900D03*
X185877200Y-85671900D03*
%TD*%
D11*
%TO.C,D6*%
X110650000Y-107550000D03*
X107350000Y-107550000D03*
X107350000Y-112450000D03*
X110650000Y-112450000D03*
%TD*%
D15*
%TO.C,U6*%
X124506500Y-101042804D03*
X124506500Y-100092804D03*
X124506500Y-99142804D03*
X122231500Y-99142804D03*
X122231500Y-100092804D03*
X122231500Y-101042804D03*
%TD*%
D52*
%TO.C,C15*%
X148510350Y-85867870D03*
X147414334Y-86963886D03*
%TD*%
D42*
%TO.C,Q3*%
X162582300Y-104942004D03*
X162582300Y-103042004D03*
X160707300Y-103992004D03*
%TD*%
D35*
%TO.C,R8*%
X154838400Y-101244400D03*
X154838400Y-99594400D03*
%TD*%
D11*
%TO.C,D2*%
X200350000Y-86450000D03*
X203650000Y-86450000D03*
X203650000Y-81550000D03*
X200350000Y-81550000D03*
%TD*%
D66*
%TO.C,J3*%
X109000000Y-94460000D03*
D67*
X109000000Y-99540000D03*
%TD*%
D38*
%TO.C,R4*%
X172591196Y-74063800D03*
X174241196Y-74063800D03*
%TD*%
D26*
%TO.C,R28*%
X169838295Y-63936496D03*
X169838295Y-65586496D03*
%TD*%
%TO.C,R15*%
X119940000Y-101299804D03*
X119940000Y-102949804D03*
%TD*%
D30*
%TO.C,C7*%
X112826800Y-81571800D03*
X112826800Y-83121800D03*
%TD*%
D38*
%TO.C,R21*%
X135369800Y-110134400D03*
X137019800Y-110134400D03*
%TD*%
D49*
%TO.C,J2*%
X170307000Y-86614000D03*
D50*
X170307000Y-84074000D03*
X170307000Y-81534000D03*
%TD*%
D30*
%TO.C,C11*%
X174228996Y-75879600D03*
X174228996Y-77429600D03*
%TD*%
D28*
%TO.C,H3*%
X114600000Y-63000000D03*
X118697056Y-61302944D03*
X118697056Y-64697056D03*
D29*
X117000000Y-63000000D03*
D28*
X115302944Y-61302944D03*
X115302944Y-64697056D03*
X117000000Y-60600000D03*
X117000000Y-65400000D03*
X119400000Y-63000000D03*
%TD*%
D48*
%TO.C,D14*%
X132081000Y-114355878D03*
X135381000Y-114355878D03*
%TD*%
D13*
%TO.C,C25*%
X164018196Y-97775000D03*
X164018196Y-96225000D03*
%TD*%
D35*
%TO.C,R27*%
X123901200Y-78536800D03*
X123901200Y-76886800D03*
%TD*%
D38*
%TO.C,R19*%
X164975473Y-70753395D03*
X166625473Y-70753395D03*
%TD*%
D35*
%TO.C,R9*%
X156652196Y-101244400D03*
X156652196Y-99594400D03*
%TD*%
D41*
%TO.C,C30*%
X118289000Y-96724804D03*
X118289000Y-94824804D03*
%TD*%
D69*
%TO.C,R12*%
X161526779Y-80293641D03*
X162693505Y-79126915D03*
%TD*%
D30*
%TO.C,C46*%
X167970400Y-63986404D03*
X167970400Y-65536404D03*
%TD*%
D17*
%TO.C,C1*%
X181711600Y-67462400D03*
X180161600Y-67462400D03*
%TD*%
D21*
%TO.C,R17*%
X123305000Y-104537804D03*
X121655000Y-104537804D03*
%TD*%
D47*
%TO.C,D15*%
X129592000Y-117873804D03*
X129592000Y-121173804D03*
%TD*%
%TO.C,D13*%
X139548800Y-65194204D03*
X139548800Y-68494204D03*
%TD*%
D49*
%TO.C,J10*%
X187325000Y-115366800D03*
D50*
X187325000Y-117906800D03*
X187325000Y-120446800D03*
%TD*%
D49*
%TO.C,JP1*%
X186055000Y-67940000D03*
D50*
X186055000Y-70480000D03*
%TD*%
D53*
%TO.C,D11*%
X117044400Y-104163404D03*
X117044400Y-108163404D03*
%TD*%
D18*
%TO.C,C21*%
X138897992Y-75274808D03*
X139994008Y-74178792D03*
%TD*%
D13*
%TO.C,C42*%
X158484300Y-104754004D03*
X158484300Y-103204004D03*
%TD*%
D20*
%TO.C,SW2*%
X195780231Y-75317600D03*
X190020231Y-75317600D03*
X190020231Y-79317600D03*
X195780231Y-79317600D03*
%TD*%
D70*
%TO.C,R7*%
X160712305Y-87864515D03*
X159545579Y-89031241D03*
%TD*%
D16*
%TO.C,FB1*%
X141464000Y-70349404D03*
X139564000Y-70349404D03*
%TD*%
D26*
%TO.C,R25*%
X137976000Y-83265804D03*
X137976000Y-84915804D03*
%TD*%
D28*
%TO.C,H1*%
X114600000Y-131000000D03*
X115302944Y-129302944D03*
D29*
X117000000Y-131000000D03*
D28*
X119400000Y-131000000D03*
X117000000Y-128600000D03*
X117000000Y-133400000D03*
X118697056Y-132697056D03*
X118697056Y-129302944D03*
X115302944Y-132697056D03*
%TD*%
D17*
%TO.C,C28*%
X135725200Y-93573600D03*
X134175200Y-93573600D03*
%TD*%
D46*
%TO.C,REF\u002A\u002A*%
X126504424Y-111135351D03*
%TD*%
D64*
%TO.C,C5*%
X128574800Y-127152400D03*
X130124800Y-127152400D03*
%TD*%
D26*
%TO.C,R23*%
X120752800Y-81932804D03*
X120752800Y-83582804D03*
%TD*%
D21*
%TO.C,R2*%
X174561000Y-70358000D03*
X172911000Y-70358000D03*
%TD*%
D13*
%TO.C,C32*%
X122717796Y-96708200D03*
X122717796Y-95158200D03*
%TD*%
D21*
%TO.C,R18*%
X119622000Y-98441804D03*
X117972000Y-98441804D03*
%TD*%
D40*
%TO.C,REF\u002A\u002A*%
X143517342Y-61523878D03*
%TD*%
D37*
%TO.C,D5*%
X128550000Y-129350000D03*
X128550000Y-132650000D03*
X133450000Y-132650000D03*
X133450000Y-129350000D03*
%TD*%
D35*
%TO.C,R14*%
X152146000Y-72199000D03*
X152146000Y-70549000D03*
%TD*%
D38*
%TO.C,R20*%
X133732000Y-108559600D03*
X135382000Y-108559600D03*
%TD*%
D35*
%TO.C,R11*%
X160462196Y-101244400D03*
X160462196Y-99594400D03*
%TD*%
D71*
%TO.C,J6*%
X171895000Y-130610000D03*
D72*
X169395000Y-130610000D03*
X166895000Y-130610000D03*
X164395000Y-130610000D03*
%TD*%
D71*
%TO.C,J7*%
X146555000Y-130610000D03*
D72*
X144055000Y-130610000D03*
X141555000Y-130610000D03*
X139055000Y-130610000D03*
%TD*%
M02*
