%TF.GenerationSoftware,KiCad,Pcbnew,(6.0.8)*%
%TF.CreationDate,2023-04-20T14:40:41+02:00*%
%TF.ProjectId,scheda PSE,73636865-6461-4205-9053-452e6b696361,rev?*%
%TF.SameCoordinates,Original*%
%TF.FileFunction,Soldermask,Bot*%
%TF.FilePolarity,Negative*%
%FSLAX46Y46*%
G04 Gerber Fmt 4.6, Leading zero omitted, Abs format (unit mm)*
G04 Created by KiCad (PCBNEW (6.0.8)) date 2023-04-20 14:40:41*
%MOMM*%
%LPD*%
G01*
G04 APERTURE LIST*
G04 Aperture macros list*
%AMRoundRect*
0 Rectangle with rounded corners*
0 $1 Rounding radius*
0 $2 $3 $4 $5 $6 $7 $8 $9 X,Y pos of 4 corners*
0 Add a 4 corners polygon primitive as box body*
4,1,4,$2,$3,$4,$5,$6,$7,$8,$9,$2,$3,0*
0 Add four circle primitives for the rounded corners*
1,1,$1+$1,$2,$3*
1,1,$1+$1,$4,$5*
1,1,$1+$1,$6,$7*
1,1,$1+$1,$8,$9*
0 Add four rect primitives between the rounded corners*
20,1,$1+$1,$2,$3,$4,$5,0*
20,1,$1+$1,$4,$5,$6,$7,0*
20,1,$1+$1,$6,$7,$8,$9,0*
20,1,$1+$1,$8,$9,$2,$3,0*%
%AMRotRect*
0 Rectangle, with rotation*
0 The origin of the aperture is its center*
0 $1 length*
0 $2 width*
0 $3 Rotation angle, in degrees counterclockwise*
0 Add horizontal line*
21,1,$1,$2,0,0,$3*%
G04 Aperture macros list end*
%ADD10C,1.500000*%
%ADD11RotRect,3.200000X3.200000X45.000000*%
%ADD12C,0.800000*%
%ADD13C,6.400000*%
%ADD14O,1.600000X2.000000*%
%ADD15RoundRect,0.250000X0.725000X-0.600000X0.725000X0.600000X-0.725000X0.600000X-0.725000X-0.600000X0*%
%ADD16O,1.950000X1.700000*%
%ADD17C,3.200000*%
%ADD18R,1.700000X1.700000*%
%ADD19O,1.700000X1.700000*%
%ADD20C,1.524000*%
%ADD21R,1.600000X1.600000*%
%ADD22C,1.600000*%
%ADD23C,0.900000*%
%ADD24R,3.000000X3.000000*%
%ADD25C,3.000000*%
%ADD26RoundRect,0.250000X0.600000X0.725000X-0.600000X0.725000X-0.600000X-0.725000X0.600000X-0.725000X0*%
%ADD27O,1.700000X1.950000*%
G04 APERTURE END LIST*
D10*
%TO.C,TP4*%
X166624000Y-72898000D03*
%TD*%
D11*
%TO.C,U1*%
X154947342Y-83113878D03*
%TD*%
D12*
%TO.C,H4*%
X195697056Y-129302944D03*
X191600000Y-131000000D03*
D13*
X194000000Y-131000000D03*
D12*
X192302944Y-132697056D03*
X192302944Y-129302944D03*
X194000000Y-128600000D03*
X195697056Y-132697056D03*
X194000000Y-133400000D03*
X196400000Y-131000000D03*
%TD*%
D14*
%TO.C,U4*%
X133193924Y-87383351D03*
X135733924Y-87383351D03*
X138273924Y-87383351D03*
X140813924Y-87383351D03*
%TD*%
D10*
%TO.C,TP1*%
X159969200Y-68834000D03*
%TD*%
%TO.C,TP2*%
X119053000Y-86503804D03*
%TD*%
D15*
%TO.C,J1*%
X202184000Y-99528000D03*
D16*
X202184000Y-97028000D03*
X202184000Y-94528000D03*
%TD*%
D17*
%TO.C,REF\u002A\u002A*%
X147504424Y-111135351D03*
%TD*%
D18*
%TO.C,J9*%
X191477900Y-115366800D03*
D19*
X191477900Y-117906800D03*
X191477900Y-120446800D03*
%TD*%
D20*
%TO.C,U9*%
X128778000Y-70916800D03*
X128778000Y-73456800D03*
X128778000Y-75996800D03*
X128778000Y-78536800D03*
X126238000Y-78536800D03*
X126238000Y-75996800D03*
X126238000Y-73456800D03*
X126238000Y-70916800D03*
%TD*%
D18*
%TO.C,J8*%
X195630800Y-115366800D03*
D19*
X195630800Y-117906800D03*
X195630800Y-120446800D03*
%TD*%
D21*
%TO.C,REF\u002A\u002A*%
X181601759Y-97000929D03*
D22*
X178401759Y-97000929D03*
%TD*%
D12*
%TO.C,H2*%
X192302944Y-64697056D03*
X194000000Y-60600000D03*
X195697056Y-64697056D03*
X195697056Y-61302944D03*
X191600000Y-63000000D03*
X192302944Y-61302944D03*
X196400000Y-63000000D03*
X194000000Y-65400000D03*
D13*
X194000000Y-63000000D03*
%TD*%
D23*
%TO.C,J4*%
X157706400Y-62917000D03*
X153306400Y-62917000D03*
%TD*%
D10*
%TO.C,TP3*%
X116535200Y-86503804D03*
%TD*%
D24*
%TO.C,J5*%
X152960000Y-130500000D03*
D25*
X158040000Y-130500000D03*
%TD*%
D24*
%TO.C,J3*%
X109000000Y-94460000D03*
D25*
X109000000Y-99540000D03*
%TD*%
D18*
%TO.C,J2*%
X170307000Y-86614000D03*
D19*
X170307000Y-84074000D03*
X170307000Y-81534000D03*
%TD*%
D12*
%TO.C,H3*%
X114600000Y-63000000D03*
X118697056Y-61302944D03*
X118697056Y-64697056D03*
D13*
X117000000Y-63000000D03*
D12*
X115302944Y-61302944D03*
X115302944Y-64697056D03*
X117000000Y-60600000D03*
X117000000Y-65400000D03*
X119400000Y-63000000D03*
%TD*%
D18*
%TO.C,J10*%
X187325000Y-115366800D03*
D19*
X187325000Y-117906800D03*
X187325000Y-120446800D03*
%TD*%
D18*
%TO.C,JP1*%
X186055000Y-67940000D03*
D19*
X186055000Y-70480000D03*
%TD*%
D12*
%TO.C,H1*%
X114600000Y-131000000D03*
X115302944Y-129302944D03*
D13*
X117000000Y-131000000D03*
D12*
X119400000Y-131000000D03*
X117000000Y-128600000D03*
X117000000Y-133400000D03*
X118697056Y-132697056D03*
X118697056Y-129302944D03*
X115302944Y-132697056D03*
%TD*%
D17*
%TO.C,REF\u002A\u002A*%
X126504424Y-111135351D03*
%TD*%
D26*
%TO.C,J6*%
X171895000Y-130610000D03*
D27*
X169395000Y-130610000D03*
X166895000Y-130610000D03*
X164395000Y-130610000D03*
%TD*%
D26*
%TO.C,J7*%
X146555000Y-130610000D03*
D27*
X144055000Y-130610000D03*
X141555000Y-130610000D03*
X139055000Y-130610000D03*
%TD*%
M02*
