%TF.GenerationSoftware,KiCad,Pcbnew,(6.0.8)*%
%TF.CreationDate,2023-04-20T14:40:41+02:00*%
%TF.ProjectId,scheda PSE,73636865-6461-4205-9053-452e6b696361,rev?*%
%TF.SameCoordinates,Original*%
%TF.FileFunction,Legend,Bot*%
%TF.FilePolarity,Positive*%
%FSLAX46Y46*%
G04 Gerber Fmt 4.6, Leading zero omitted, Abs format (unit mm)*
G04 Created by KiCad (PCBNEW (6.0.8)) date 2023-04-20 14:40:41*
%MOMM*%
%LPD*%
G01*
G04 APERTURE LIST*
%ADD10C,0.150000*%
%ADD11C,0.750000*%
%ADD12C,0.250000*%
%ADD13C,0.120000*%
G04 APERTURE END LIST*
D10*
X182740024Y-116587884D02*
X149821624Y-116587884D01*
X149821624Y-116587884D02*
X149821624Y-119788284D01*
X149821624Y-119788284D02*
X182740024Y-119788284D01*
X182740024Y-119788284D02*
X182740024Y-116587884D01*
G36*
X182740024Y-116587884D02*
G01*
X149821624Y-116587884D01*
X149821624Y-119788284D01*
X182740024Y-119788284D01*
X182740024Y-116587884D01*
G37*
D11*
X193027024Y-120457151D02*
X194043024Y-120457151D01*
X188886824Y-115377151D02*
X189902824Y-115377151D01*
X188886824Y-117917151D02*
X189902824Y-117917151D01*
D10*
X182740024Y-112811751D02*
X149821624Y-112811751D01*
X149821624Y-112811751D02*
X149821624Y-116012151D01*
X149821624Y-116012151D02*
X182740024Y-116012151D01*
X182740024Y-116012151D02*
X182740024Y-112811751D01*
G36*
X182740024Y-112811751D02*
G01*
X149821624Y-112811751D01*
X149821624Y-116012151D01*
X182740024Y-116012151D01*
X182740024Y-112811751D01*
G37*
D11*
X193052424Y-117967951D02*
X194068424Y-117967951D01*
X188912224Y-120431751D02*
X189928224Y-120431751D01*
D10*
X182740024Y-120364018D02*
X149821624Y-120364018D01*
X149821624Y-120364018D02*
X149821624Y-123564418D01*
X149821624Y-123564418D02*
X182740024Y-123564418D01*
X182740024Y-123564418D02*
X182740024Y-120364018D01*
G36*
X182740024Y-120364018D02*
G01*
X149821624Y-120364018D01*
X149821624Y-123564418D01*
X182740024Y-123564418D01*
X182740024Y-120364018D01*
G37*
D11*
X193027024Y-115377151D02*
X194043024Y-115377151D01*
D10*
X182740024Y-109035618D02*
X149821624Y-109035618D01*
X149821624Y-109035618D02*
X149821624Y-112236018D01*
X149821624Y-112236018D02*
X182740024Y-112236018D01*
X182740024Y-112236018D02*
X182740024Y-109035618D01*
G36*
X182740024Y-109035618D02*
G01*
X149821624Y-109035618D01*
X149821624Y-112236018D01*
X182740024Y-112236018D01*
X182740024Y-109035618D01*
G37*
D12*
X158522332Y-127754763D02*
X157569951Y-127754763D01*
X111627256Y-94969268D02*
X111627256Y-94016887D01*
X153442332Y-127754763D02*
X152489951Y-127754763D01*
X152966142Y-128230954D02*
X152966142Y-127278573D01*
X111627256Y-100049268D02*
X111627256Y-99096887D01*
X111151065Y-99573078D02*
X112103446Y-99573078D01*
X181464019Y-104310196D02*
X181523543Y-104369720D01*
X181702114Y-104429244D01*
X181821162Y-104429244D01*
X181999733Y-104369720D01*
X182118781Y-104250672D01*
X182178304Y-104131625D01*
X182237828Y-103893529D01*
X182237828Y-103714958D01*
X182178304Y-103476863D01*
X182118781Y-103357815D01*
X181999733Y-103238768D01*
X181821162Y-103179244D01*
X181702114Y-103179244D01*
X181523543Y-103238768D01*
X181464019Y-103298291D01*
X180690209Y-103179244D02*
X180452114Y-103179244D01*
X180333066Y-103238768D01*
X180214019Y-103357815D01*
X180154495Y-103595910D01*
X180154495Y-104012577D01*
X180214019Y-104250672D01*
X180333066Y-104369720D01*
X180452114Y-104429244D01*
X180690209Y-104429244D01*
X180809257Y-104369720D01*
X180928304Y-104250672D01*
X180987828Y-104012577D01*
X180987828Y-103595910D01*
X180928304Y-103357815D01*
X180809257Y-103238768D01*
X180690209Y-103179244D01*
X178904495Y-104429244D02*
X179321162Y-103834006D01*
X179618781Y-104429244D02*
X179618781Y-103179244D01*
X179142590Y-103179244D01*
X179023543Y-103238768D01*
X178964019Y-103298291D01*
X178904495Y-103417339D01*
X178904495Y-103595910D01*
X178964019Y-103714958D01*
X179023543Y-103774482D01*
X179142590Y-103834006D01*
X179618781Y-103834006D01*
X178428304Y-104369720D02*
X178249733Y-104429244D01*
X177952114Y-104429244D01*
X177833066Y-104369720D01*
X177773543Y-104310196D01*
X177714019Y-104191148D01*
X177714019Y-104072101D01*
X177773543Y-103953053D01*
X177833066Y-103893529D01*
X177952114Y-103834006D01*
X178190209Y-103774482D01*
X178309257Y-103714958D01*
X178368781Y-103655434D01*
X178428304Y-103536387D01*
X178428304Y-103417339D01*
X178368781Y-103298291D01*
X178309257Y-103238768D01*
X178190209Y-103179244D01*
X177892590Y-103179244D01*
X177714019Y-103238768D01*
X176940209Y-103179244D02*
X176702114Y-103179244D01*
X176583066Y-103238768D01*
X176464019Y-103357815D01*
X176404495Y-103595910D01*
X176404495Y-104012577D01*
X176464019Y-104250672D01*
X176583066Y-104369720D01*
X176702114Y-104429244D01*
X176940209Y-104429244D01*
X177059257Y-104369720D01*
X177178304Y-104250672D01*
X177237828Y-104012577D01*
X177237828Y-103595910D01*
X177178304Y-103357815D01*
X177059257Y-103238768D01*
X176940209Y-103179244D01*
X174916400Y-104429244D02*
X174916400Y-103179244D01*
X174618781Y-103179244D01*
X174440209Y-103238768D01*
X174321162Y-103357815D01*
X174261638Y-103476863D01*
X174202114Y-103714958D01*
X174202114Y-103893529D01*
X174261638Y-104131625D01*
X174321162Y-104250672D01*
X174440209Y-104369720D01*
X174618781Y-104429244D01*
X174916400Y-104429244D01*
X173666400Y-104429244D02*
X173666400Y-103179244D01*
X172118781Y-104429244D02*
X172118781Y-103179244D01*
X171642590Y-103179244D01*
X171523543Y-103238768D01*
X171464019Y-103298291D01*
X171404495Y-103417339D01*
X171404495Y-103595910D01*
X171464019Y-103714958D01*
X171523543Y-103774482D01*
X171642590Y-103834006D01*
X172118781Y-103834006D01*
X170154495Y-104429244D02*
X170571162Y-103834006D01*
X170868781Y-104429244D02*
X170868781Y-103179244D01*
X170392590Y-103179244D01*
X170273543Y-103238768D01*
X170214019Y-103298291D01*
X170154495Y-103417339D01*
X170154495Y-103595910D01*
X170214019Y-103714958D01*
X170273543Y-103774482D01*
X170392590Y-103834006D01*
X170868781Y-103834006D01*
X169380685Y-103179244D02*
X169142590Y-103179244D01*
X169023543Y-103238768D01*
X168904495Y-103357815D01*
X168844971Y-103595910D01*
X168844971Y-104012577D01*
X168904495Y-104250672D01*
X169023543Y-104369720D01*
X169142590Y-104429244D01*
X169380685Y-104429244D01*
X169499733Y-104369720D01*
X169618781Y-104250672D01*
X169678304Y-104012577D01*
X169678304Y-103595910D01*
X169618781Y-103357815D01*
X169499733Y-103238768D01*
X169380685Y-103179244D01*
X167654495Y-103238768D02*
X167773543Y-103179244D01*
X167952114Y-103179244D01*
X168130685Y-103238768D01*
X168249733Y-103357815D01*
X168309257Y-103476863D01*
X168368781Y-103714958D01*
X168368781Y-103893529D01*
X168309257Y-104131625D01*
X168249733Y-104250672D01*
X168130685Y-104369720D01*
X167952114Y-104429244D01*
X167833066Y-104429244D01*
X167654495Y-104369720D01*
X167594971Y-104310196D01*
X167594971Y-103893529D01*
X167833066Y-103893529D01*
X167059257Y-103774482D02*
X166642590Y-103774482D01*
X166464019Y-104429244D02*
X167059257Y-104429244D01*
X167059257Y-103179244D01*
X166464019Y-103179244D01*
X166106876Y-103179244D02*
X165392590Y-103179244D01*
X165749733Y-104429244D02*
X165749733Y-103179244D01*
X165154495Y-103179244D02*
X164440209Y-103179244D01*
X164797352Y-104429244D02*
X164797352Y-103179244D01*
X164083066Y-104072101D02*
X163487828Y-104072101D01*
X164202114Y-104429244D02*
X163785447Y-103179244D01*
X163368781Y-104429244D01*
X163071162Y-103179244D02*
X162237828Y-103179244D01*
X163071162Y-104429244D01*
X162237828Y-104429244D01*
X161761638Y-104429244D02*
X161761638Y-103179244D01*
X160928304Y-103179244D02*
X160690209Y-103179244D01*
X160571162Y-103238768D01*
X160452114Y-103357815D01*
X160392590Y-103595910D01*
X160392590Y-104012577D01*
X160452114Y-104250672D01*
X160571162Y-104369720D01*
X160690209Y-104429244D01*
X160928304Y-104429244D01*
X161047352Y-104369720D01*
X161166400Y-104250672D01*
X161225924Y-104012577D01*
X161225924Y-103595910D01*
X161166400Y-103357815D01*
X161047352Y-103238768D01*
X160928304Y-103179244D01*
X159856876Y-104429244D02*
X159856876Y-103179244D01*
X159142590Y-104429244D01*
X159142590Y-103179244D01*
X158547352Y-103774482D02*
X158130685Y-103774482D01*
X157952114Y-104429244D02*
X158547352Y-104429244D01*
X158547352Y-103179244D01*
X157952114Y-103179244D01*
X156464019Y-103774482D02*
X156047352Y-103774482D01*
X155868781Y-104429244D02*
X156464019Y-104429244D01*
X156464019Y-103179244D01*
X155868781Y-103179244D01*
X154380685Y-104429244D02*
X154380685Y-103179244D01*
X153904495Y-103179244D01*
X153785447Y-103238768D01*
X153725924Y-103298291D01*
X153666400Y-103417339D01*
X153666400Y-103595910D01*
X153725924Y-103714958D01*
X153785447Y-103774482D01*
X153904495Y-103834006D01*
X154380685Y-103834006D01*
X152416400Y-104429244D02*
X152833066Y-103834006D01*
X153130685Y-104429244D02*
X153130685Y-103179244D01*
X152654495Y-103179244D01*
X152535447Y-103238768D01*
X152475924Y-103298291D01*
X152416400Y-103417339D01*
X152416400Y-103595910D01*
X152475924Y-103714958D01*
X152535447Y-103774482D01*
X152654495Y-103834006D01*
X153130685Y-103834006D01*
X151642590Y-103179244D02*
X151404495Y-103179244D01*
X151285447Y-103238768D01*
X151166400Y-103357815D01*
X151106876Y-103595910D01*
X151106876Y-104012577D01*
X151166400Y-104250672D01*
X151285447Y-104369720D01*
X151404495Y-104429244D01*
X151642590Y-104429244D01*
X151761638Y-104369720D01*
X151880685Y-104250672D01*
X151940209Y-104012577D01*
X151940209Y-103595910D01*
X151880685Y-103357815D01*
X151761638Y-103238768D01*
X151642590Y-103179244D01*
X150749733Y-103179244D02*
X150035447Y-103179244D01*
X150392590Y-104429244D02*
X150392590Y-103179244D01*
X149380685Y-103179244D02*
X149142590Y-103179244D01*
X149023543Y-103238768D01*
X148904495Y-103357815D01*
X148844971Y-103595910D01*
X148844971Y-104012577D01*
X148904495Y-104250672D01*
X149023543Y-104369720D01*
X149142590Y-104429244D01*
X149380685Y-104429244D01*
X149499733Y-104369720D01*
X149618781Y-104250672D01*
X149678304Y-104012577D01*
X149678304Y-103595910D01*
X149618781Y-103357815D01*
X149499733Y-103238768D01*
X149380685Y-103179244D01*
X148487828Y-103179244D02*
X147773543Y-103179244D01*
X148130685Y-104429244D02*
X148130685Y-103179244D01*
X147356876Y-104429244D02*
X147356876Y-103179244D01*
X146761638Y-104429244D02*
X146761638Y-103179244D01*
X146285447Y-103179244D01*
X146166400Y-103238768D01*
X146106876Y-103298291D01*
X146047352Y-103417339D01*
X146047352Y-103595910D01*
X146106876Y-103714958D01*
X146166400Y-103774482D01*
X146285447Y-103834006D01*
X146761638Y-103834006D01*
X145571162Y-104072101D02*
X144975924Y-104072101D01*
X145690209Y-104429244D02*
X145273543Y-103179244D01*
X144856876Y-104429244D01*
X144559257Y-103179244D02*
X143725924Y-103179244D01*
X144559257Y-104429244D01*
X143725924Y-104429244D01*
X143249733Y-104429244D02*
X143249733Y-103179244D01*
X142416400Y-103179244D02*
X142178304Y-103179244D01*
X142059257Y-103238768D01*
X141940209Y-103357815D01*
X141880685Y-103595910D01*
X141880685Y-104012577D01*
X141940209Y-104250672D01*
X142059257Y-104369720D01*
X142178304Y-104429244D01*
X142416400Y-104429244D01*
X142535447Y-104369720D01*
X142654495Y-104250672D01*
X142714019Y-104012577D01*
X142714019Y-103595910D01*
X142654495Y-103357815D01*
X142535447Y-103238768D01*
X142416400Y-103179244D01*
X141344971Y-104429244D02*
X141344971Y-103179244D01*
X140630685Y-104429244D01*
X140630685Y-103179244D01*
X140035447Y-103774482D02*
X139618781Y-103774482D01*
X139440209Y-104429244D02*
X140035447Y-104429244D01*
X140035447Y-103179244D01*
X139440209Y-103179244D01*
X182178304Y-106441744D02*
X182178304Y-105191744D01*
X181880685Y-105191744D01*
X181702114Y-105251268D01*
X181583066Y-105370315D01*
X181523543Y-105489363D01*
X181464019Y-105727458D01*
X181464019Y-105906029D01*
X181523543Y-106144125D01*
X181583066Y-106263172D01*
X181702114Y-106382220D01*
X181880685Y-106441744D01*
X182178304Y-106441744D01*
X180928304Y-106441744D02*
X180928304Y-105191744D01*
X179440209Y-106382220D02*
X179261638Y-106441744D01*
X178964019Y-106441744D01*
X178844971Y-106382220D01*
X178785447Y-106322696D01*
X178725924Y-106203648D01*
X178725924Y-106084601D01*
X178785447Y-105965553D01*
X178844971Y-105906029D01*
X178964019Y-105846506D01*
X179202114Y-105786982D01*
X179321162Y-105727458D01*
X179380685Y-105667934D01*
X179440209Y-105548887D01*
X179440209Y-105429839D01*
X179380685Y-105310791D01*
X179321162Y-105251268D01*
X179202114Y-105191744D01*
X178904495Y-105191744D01*
X178725924Y-105251268D01*
X178190209Y-106441744D02*
X178190209Y-105191744D01*
X177654495Y-106382220D02*
X177475924Y-106441744D01*
X177178304Y-106441744D01*
X177059257Y-106382220D01*
X176999733Y-106322696D01*
X176940209Y-106203648D01*
X176940209Y-106084601D01*
X176999733Y-105965553D01*
X177059257Y-105906029D01*
X177178304Y-105846506D01*
X177416400Y-105786982D01*
X177535447Y-105727458D01*
X177594971Y-105667934D01*
X177654495Y-105548887D01*
X177654495Y-105429839D01*
X177594971Y-105310791D01*
X177535447Y-105251268D01*
X177416400Y-105191744D01*
X177118781Y-105191744D01*
X176940209Y-105251268D01*
X176583066Y-105191744D02*
X175868781Y-105191744D01*
X176225924Y-106441744D02*
X176225924Y-105191744D01*
X175452114Y-105786982D02*
X175035447Y-105786982D01*
X174856876Y-106441744D02*
X175452114Y-106441744D01*
X175452114Y-105191744D01*
X174856876Y-105191744D01*
X174321162Y-106441744D02*
X174321162Y-105191744D01*
X173904495Y-106084601D01*
X173487828Y-105191744D01*
X173487828Y-106441744D01*
X172892590Y-106441744D02*
X172892590Y-105191744D01*
X171344971Y-105786982D02*
X170928304Y-105786982D01*
X170749733Y-106441744D02*
X171344971Y-106441744D01*
X171344971Y-105191744D01*
X170749733Y-105191744D01*
X169618781Y-106441744D02*
X170214019Y-106441744D01*
X170214019Y-105191744D01*
X169202114Y-105786982D02*
X168785447Y-105786982D01*
X168606876Y-106441744D02*
X169202114Y-106441744D01*
X169202114Y-105191744D01*
X168606876Y-105191744D01*
X168249733Y-105191744D02*
X167535447Y-105191744D01*
X167892590Y-106441744D02*
X167892590Y-105191744D01*
X167297352Y-105191744D02*
X166583066Y-105191744D01*
X166940209Y-106441744D02*
X166940209Y-105191744D01*
X165452114Y-106441744D02*
X165868781Y-105846506D01*
X166166400Y-106441744D02*
X166166400Y-105191744D01*
X165690209Y-105191744D01*
X165571162Y-105251268D01*
X165511638Y-105310791D01*
X165452114Y-105429839D01*
X165452114Y-105608410D01*
X165511638Y-105727458D01*
X165571162Y-105786982D01*
X165690209Y-105846506D01*
X166166400Y-105846506D01*
X164678304Y-105191744D02*
X164440209Y-105191744D01*
X164321162Y-105251268D01*
X164202114Y-105370315D01*
X164142590Y-105608410D01*
X164142590Y-106025077D01*
X164202114Y-106263172D01*
X164321162Y-106382220D01*
X164440209Y-106441744D01*
X164678304Y-106441744D01*
X164797352Y-106382220D01*
X164916400Y-106263172D01*
X164975924Y-106025077D01*
X164975924Y-105608410D01*
X164916400Y-105370315D01*
X164797352Y-105251268D01*
X164678304Y-105191744D01*
X163606876Y-106441744D02*
X163606876Y-105191744D01*
X162892590Y-106441744D01*
X162892590Y-105191744D01*
X162297352Y-106441744D02*
X162297352Y-105191744D01*
X160987828Y-106322696D02*
X161047352Y-106382220D01*
X161225924Y-106441744D01*
X161344971Y-106441744D01*
X161523543Y-106382220D01*
X161642590Y-106263172D01*
X161702114Y-106144125D01*
X161761638Y-105906029D01*
X161761638Y-105727458D01*
X161702114Y-105489363D01*
X161642590Y-105370315D01*
X161523543Y-105251268D01*
X161344971Y-105191744D01*
X161225924Y-105191744D01*
X161047352Y-105251268D01*
X160987828Y-105310791D01*
X160452114Y-106441744D02*
X160452114Y-105191744D01*
D10*
X182146443Y-107881484D02*
X181670252Y-107881484D01*
X182241681Y-108167198D02*
X181908347Y-107167198D01*
X181575014Y-108167198D01*
X181241681Y-108167198D02*
X181241681Y-107167198D01*
X180670252Y-108167198D01*
X180670252Y-107167198D01*
X180194062Y-108167198D02*
X180194062Y-107167198D01*
X179622633Y-108167198D01*
X179622633Y-107167198D01*
X178955966Y-107167198D02*
X178765490Y-107167198D01*
X178670252Y-107214818D01*
X178575014Y-107310056D01*
X178527395Y-107500532D01*
X178527395Y-107833865D01*
X178575014Y-108024341D01*
X178670252Y-108119579D01*
X178765490Y-108167198D01*
X178955966Y-108167198D01*
X179051204Y-108119579D01*
X179146443Y-108024341D01*
X179194062Y-107833865D01*
X179194062Y-107500532D01*
X179146443Y-107310056D01*
X179051204Y-107214818D01*
X178955966Y-107167198D01*
X177384538Y-107881484D02*
X176908347Y-107881484D01*
X177479776Y-108167198D02*
X177146443Y-107167198D01*
X176813109Y-108167198D01*
X175908347Y-108071960D02*
X175955966Y-108119579D01*
X176098824Y-108167198D01*
X176194062Y-108167198D01*
X176336919Y-108119579D01*
X176432157Y-108024341D01*
X176479776Y-107929103D01*
X176527395Y-107738627D01*
X176527395Y-107595770D01*
X176479776Y-107405294D01*
X176432157Y-107310056D01*
X176336919Y-107214818D01*
X176194062Y-107167198D01*
X176098824Y-107167198D01*
X175955966Y-107214818D01*
X175908347Y-107262437D01*
X174908347Y-108071960D02*
X174955966Y-108119579D01*
X175098824Y-108167198D01*
X175194062Y-108167198D01*
X175336919Y-108119579D01*
X175432157Y-108024341D01*
X175479776Y-107929103D01*
X175527395Y-107738627D01*
X175527395Y-107595770D01*
X175479776Y-107405294D01*
X175432157Y-107310056D01*
X175336919Y-107214818D01*
X175194062Y-107167198D01*
X175098824Y-107167198D01*
X174955966Y-107214818D01*
X174908347Y-107262437D01*
X174527395Y-107881484D02*
X174051204Y-107881484D01*
X174622633Y-108167198D02*
X174289300Y-107167198D01*
X173955966Y-108167198D01*
X173622633Y-108167198D02*
X173622633Y-107167198D01*
X173384538Y-107167198D01*
X173241681Y-107214818D01*
X173146443Y-107310056D01*
X173098824Y-107405294D01*
X173051204Y-107595770D01*
X173051204Y-107738627D01*
X173098824Y-107929103D01*
X173146443Y-108024341D01*
X173241681Y-108119579D01*
X173384538Y-108167198D01*
X173622633Y-108167198D01*
X172622633Y-107643389D02*
X172289300Y-107643389D01*
X172146443Y-108167198D02*
X172622633Y-108167198D01*
X172622633Y-107167198D01*
X172146443Y-107167198D01*
X171717871Y-108167198D02*
X171717871Y-107167198D01*
X171384538Y-107881484D01*
X171051204Y-107167198D01*
X171051204Y-108167198D01*
X170575014Y-108167198D02*
X170575014Y-107167198D01*
X169527395Y-108071960D02*
X169575014Y-108119579D01*
X169717871Y-108167198D01*
X169813109Y-108167198D01*
X169955966Y-108119579D01*
X170051204Y-108024341D01*
X170098824Y-107929103D01*
X170146443Y-107738627D01*
X170146443Y-107595770D01*
X170098824Y-107405294D01*
X170051204Y-107310056D01*
X169955966Y-107214818D01*
X169813109Y-107167198D01*
X169717871Y-107167198D01*
X169575014Y-107214818D01*
X169527395Y-107262437D01*
X168908347Y-107167198D02*
X168717871Y-107167198D01*
X168622633Y-107214818D01*
X168527395Y-107310056D01*
X168479776Y-107500532D01*
X168479776Y-107833865D01*
X168527395Y-108024341D01*
X168622633Y-108119579D01*
X168717871Y-108167198D01*
X168908347Y-108167198D01*
X169003585Y-108119579D01*
X169098824Y-108024341D01*
X169146443Y-107833865D01*
X169146443Y-107500532D01*
X169098824Y-107310056D01*
X169003585Y-107214818D01*
X168908347Y-107167198D01*
X167336919Y-107262437D02*
X167289300Y-107214818D01*
X167194062Y-107167198D01*
X166955966Y-107167198D01*
X166860728Y-107214818D01*
X166813109Y-107262437D01*
X166765490Y-107357675D01*
X166765490Y-107452913D01*
X166813109Y-107595770D01*
X167384538Y-108167198D01*
X166765490Y-108167198D01*
X166146443Y-107167198D02*
X166051204Y-107167198D01*
X165955966Y-107214818D01*
X165908347Y-107262437D01*
X165860728Y-107357675D01*
X165813109Y-107548151D01*
X165813109Y-107786246D01*
X165860728Y-107976722D01*
X165908347Y-108071960D01*
X165955966Y-108119579D01*
X166051204Y-108167198D01*
X166146443Y-108167198D01*
X166241681Y-108119579D01*
X166289300Y-108071960D01*
X166336919Y-107976722D01*
X166384538Y-107786246D01*
X166384538Y-107548151D01*
X166336919Y-107357675D01*
X166289300Y-107262437D01*
X166241681Y-107214818D01*
X166146443Y-107167198D01*
X165432157Y-107262437D02*
X165384538Y-107214818D01*
X165289300Y-107167198D01*
X165051204Y-107167198D01*
X164955966Y-107214818D01*
X164908347Y-107262437D01*
X164860728Y-107357675D01*
X164860728Y-107452913D01*
X164908347Y-107595770D01*
X165479776Y-108167198D01*
X164860728Y-108167198D01*
X164479776Y-107262437D02*
X164432157Y-107214818D01*
X164336919Y-107167198D01*
X164098824Y-107167198D01*
X164003585Y-107214818D01*
X163955966Y-107262437D01*
X163908347Y-107357675D01*
X163908347Y-107452913D01*
X163955966Y-107595770D01*
X164527395Y-108167198D01*
X163908347Y-108167198D01*
X162765490Y-107119579D02*
X163622633Y-108405294D01*
X162479776Y-107262437D02*
X162432157Y-107214818D01*
X162336919Y-107167198D01*
X162098824Y-107167198D01*
X162003585Y-107214818D01*
X161955966Y-107262437D01*
X161908347Y-107357675D01*
X161908347Y-107452913D01*
X161955966Y-107595770D01*
X162527395Y-108167198D01*
X161908347Y-108167198D01*
X161289300Y-107167198D02*
X161194062Y-107167198D01*
X161098824Y-107214818D01*
X161051204Y-107262437D01*
X161003585Y-107357675D01*
X160955966Y-107548151D01*
X160955966Y-107786246D01*
X161003585Y-107976722D01*
X161051204Y-108071960D01*
X161098824Y-108119579D01*
X161194062Y-108167198D01*
X161289300Y-108167198D01*
X161384538Y-108119579D01*
X161432157Y-108071960D01*
X161479776Y-107976722D01*
X161527395Y-107786246D01*
X161527395Y-107548151D01*
X161479776Y-107357675D01*
X161432157Y-107262437D01*
X161384538Y-107214818D01*
X161289300Y-107167198D01*
X160575014Y-107262437D02*
X160527395Y-107214818D01*
X160432157Y-107167198D01*
X160194062Y-107167198D01*
X160098824Y-107214818D01*
X160051204Y-107262437D01*
X160003585Y-107357675D01*
X160003585Y-107452913D01*
X160051204Y-107595770D01*
X160622633Y-108167198D01*
X160003585Y-108167198D01*
X159670252Y-107167198D02*
X159051204Y-107167198D01*
X159384538Y-107548151D01*
X159241681Y-107548151D01*
X159146443Y-107595770D01*
X159098824Y-107643389D01*
X159051204Y-107738627D01*
X159051204Y-107976722D01*
X159098824Y-108071960D01*
X159146443Y-108119579D01*
X159241681Y-108167198D01*
X159527395Y-108167198D01*
X159622633Y-108119579D01*
X159670252Y-108071960D01*
%TO.C,kibuzzard-644128D0*%
G36*
X198928596Y-99544485D02*
G01*
X198901853Y-99688895D01*
X198821625Y-99794702D01*
X198740080Y-99842968D01*
X198638071Y-99872424D01*
X198515598Y-99883069D01*
X198443974Y-99883069D01*
X198317418Y-99873561D01*
X198213084Y-99845035D01*
X198130970Y-99797493D01*
X198051091Y-99692151D01*
X198024465Y-99547276D01*
X198024465Y-99409610D01*
X198928596Y-99409610D01*
X198928596Y-99544485D01*
G37*
G36*
X198928596Y-95019180D02*
G01*
X198901853Y-95163590D01*
X198821625Y-95269397D01*
X198740080Y-95317663D01*
X198638071Y-95347119D01*
X198515598Y-95357764D01*
X198443974Y-95357764D01*
X198317418Y-95348256D01*
X198213084Y-95319730D01*
X198130970Y-95272188D01*
X198051091Y-95166845D01*
X198024465Y-95021971D01*
X198024465Y-94884304D01*
X198928596Y-94884304D01*
X198928596Y-95019180D01*
G37*
G36*
X198475600Y-102674320D02*
G01*
X197621079Y-102104639D01*
X197621079Y-102025264D01*
X197798432Y-102025264D01*
X199152768Y-102025264D01*
X199152768Y-101746211D01*
X198261660Y-101202989D01*
X199152768Y-101202989D01*
X199152768Y-100923936D01*
X197798432Y-100923936D01*
X197798432Y-101202989D01*
X198691401Y-101747141D01*
X197798432Y-101747141D01*
X197798432Y-102025264D01*
X197621079Y-102025264D01*
X197621079Y-100665347D01*
X197798432Y-100665347D01*
X199152768Y-100665347D01*
X199152768Y-100386294D01*
X197798432Y-100386294D01*
X197798432Y-100665347D01*
X197621079Y-100665347D01*
X197621079Y-99130557D01*
X197798432Y-99130557D01*
X197798432Y-99547276D01*
X197807372Y-99662152D01*
X197834192Y-99768658D01*
X197878892Y-99866791D01*
X197940077Y-99953866D01*
X198016352Y-100027195D01*
X198107715Y-100086778D01*
X198211120Y-100130703D01*
X198323516Y-100157058D01*
X198444904Y-100165843D01*
X198507226Y-100165843D01*
X198628459Y-100157213D01*
X198740390Y-100131323D01*
X198843019Y-100088173D01*
X198933660Y-100029313D01*
X199009624Y-99956295D01*
X199070913Y-99869117D01*
X199115974Y-99770828D01*
X199143260Y-99664478D01*
X199152768Y-99550066D01*
X199152768Y-99130557D01*
X197798432Y-99130557D01*
X197621079Y-99130557D01*
X197621079Y-98528733D01*
X197798432Y-98528733D01*
X199152768Y-98057134D01*
X199152768Y-97765989D01*
X197798432Y-97296250D01*
X197798432Y-97605999D01*
X198816975Y-97911096D01*
X197798432Y-98218054D01*
X197798432Y-98528733D01*
X197621079Y-98528733D01*
X197621079Y-97166026D01*
X197798432Y-97166026D01*
X198022604Y-97166026D01*
X198022604Y-96627454D01*
X198313749Y-96593968D01*
X198275380Y-96692799D01*
X198262590Y-96797676D01*
X198275922Y-96917359D01*
X198315920Y-97018438D01*
X198382582Y-97100913D01*
X198473223Y-97161892D01*
X198585154Y-97198478D01*
X198718376Y-97210674D01*
X198842671Y-97196838D01*
X198953245Y-97155329D01*
X199045333Y-97088007D01*
X199114166Y-96996734D01*
X199157070Y-96884182D01*
X199171371Y-96753028D01*
X199158930Y-96634663D01*
X199121607Y-96525135D01*
X199061727Y-96431071D01*
X198981616Y-96359098D01*
X198885110Y-96312473D01*
X198776047Y-96294451D01*
X198776047Y-96560481D01*
X198907667Y-96619547D01*
X198954641Y-96752097D01*
X198938246Y-96832790D01*
X198889063Y-96892554D01*
X198809882Y-96929528D01*
X198703493Y-96941853D01*
X198601639Y-96927668D01*
X198526760Y-96885113D01*
X198480716Y-96816512D01*
X198465368Y-96724192D01*
X198477925Y-96637453D01*
X198515598Y-96568853D01*
X198539782Y-96542808D01*
X198486762Y-96328867D01*
X197798432Y-96407002D01*
X197798432Y-97166026D01*
X197621079Y-97166026D01*
X197621079Y-94605252D01*
X197798432Y-94605252D01*
X197798432Y-95021971D01*
X197807372Y-95136847D01*
X197834192Y-95243352D01*
X197878892Y-95341486D01*
X197940077Y-95428561D01*
X198016352Y-95501890D01*
X198107715Y-95561472D01*
X198211120Y-95605397D01*
X198323516Y-95631752D01*
X198444904Y-95640537D01*
X198507226Y-95640537D01*
X198628459Y-95631907D01*
X198740390Y-95606018D01*
X198843019Y-95562868D01*
X198933660Y-95504008D01*
X199009624Y-95430989D01*
X199070913Y-95343811D01*
X199115974Y-95245523D01*
X199143260Y-95139173D01*
X199152768Y-95024761D01*
X199152768Y-94605252D01*
X197798432Y-94605252D01*
X197621079Y-94605252D01*
X197621079Y-94361546D01*
X197798432Y-94361546D01*
X199152768Y-94361546D01*
X199152768Y-94082493D01*
X198261660Y-93539270D01*
X199152768Y-93539270D01*
X199152768Y-93260218D01*
X197798432Y-93260218D01*
X197798432Y-93539270D01*
X198691401Y-94083423D01*
X197798432Y-94083423D01*
X197798432Y-94361546D01*
X197621079Y-94361546D01*
X197621079Y-92496543D01*
X197779829Y-92496543D01*
X197792593Y-92645475D01*
X197830885Y-92771048D01*
X197894705Y-92873264D01*
X197982917Y-92951503D01*
X198094383Y-93005143D01*
X198229103Y-93034185D01*
X198229103Y-92762574D01*
X198128412Y-92732692D01*
X198058881Y-92680253D01*
X198018419Y-92604560D01*
X198004931Y-92504915D01*
X198031674Y-92379574D01*
X198111901Y-92288184D01*
X198194790Y-92246739D01*
X198300830Y-92221625D01*
X198430021Y-92212840D01*
X198516528Y-92212840D01*
X198646959Y-92221831D01*
X198754239Y-92248806D01*
X198838369Y-92293765D01*
X198919991Y-92393526D01*
X198947199Y-92530960D01*
X198930456Y-92665603D01*
X198880226Y-92755132D01*
X198646752Y-92755132D01*
X198646752Y-92501194D01*
X198441183Y-92501194D01*
X198441183Y-93034185D01*
X198981616Y-93034185D01*
X199061727Y-92943260D01*
X199121607Y-92821175D01*
X199158930Y-92676067D01*
X199171371Y-92516077D01*
X199162845Y-92403681D01*
X199137265Y-92300896D01*
X199094632Y-92207724D01*
X199000568Y-92090289D01*
X198871855Y-92003085D01*
X198768812Y-91962829D01*
X198654400Y-91938179D01*
X198528620Y-91929136D01*
X198436533Y-91929136D01*
X198307393Y-91936732D01*
X198190346Y-91959522D01*
X198085391Y-91997504D01*
X197954469Y-92080987D01*
X197858428Y-92194701D01*
X197814762Y-92285497D01*
X197788562Y-92386111D01*
X197779829Y-92496543D01*
X197621079Y-92496543D01*
X197621079Y-91849761D01*
X198475600Y-91280080D01*
X199330121Y-91849761D01*
X199330121Y-102104639D01*
X198475600Y-102674320D01*
G37*
D13*
%TO.C,J6*%
X163645000Y-128910000D02*
X161845000Y-128910000D01*
X163645000Y-128160000D02*
X163645000Y-128910000D01*
X173695000Y-130410000D02*
X173695000Y-133360000D01*
X174445000Y-128160000D02*
X174445000Y-128910000D01*
X172645000Y-128910000D02*
X172645000Y-128160000D01*
X174745000Y-127860000D02*
X174745000Y-129110000D01*
X173495000Y-127860000D02*
X174745000Y-127860000D01*
X161845000Y-128160000D02*
X163645000Y-128160000D01*
X161845000Y-130410000D02*
X162595000Y-130410000D01*
X161845000Y-128910000D02*
X161845000Y-128160000D01*
X165145000Y-128160000D02*
X171145000Y-128160000D01*
X161835000Y-128150000D02*
X174455000Y-128150000D01*
X161835000Y-134120000D02*
X161835000Y-128150000D01*
X174455000Y-134120000D02*
X161835000Y-134120000D01*
X165145000Y-128910000D02*
X165145000Y-128160000D01*
X171145000Y-128910000D02*
X165145000Y-128910000D01*
X174455000Y-128150000D02*
X174455000Y-134120000D01*
X173695000Y-133360000D02*
X168145000Y-133360000D01*
X171145000Y-128160000D02*
X171145000Y-128910000D01*
X172645000Y-128160000D02*
X174445000Y-128160000D01*
X162595000Y-130410000D02*
X162595000Y-133360000D01*
X174445000Y-130410000D02*
X173695000Y-130410000D01*
X174445000Y-128910000D02*
X172645000Y-128910000D01*
X162595000Y-133360000D02*
X168145000Y-133360000D01*
%TO.C,kibuzzard-643CF8F2*%
G36*
X136671691Y-127055878D02*
G01*
X137102328Y-126409923D01*
X148408356Y-126409923D01*
X148838993Y-127055878D01*
X148408356Y-127701833D01*
X137102328Y-127701833D01*
X136689261Y-127082233D01*
X137168474Y-127082233D01*
X137175665Y-127183260D01*
X137197240Y-127276536D01*
X137233198Y-127362061D01*
X137282248Y-127437595D01*
X137343097Y-127500898D01*
X137415745Y-127551972D01*
X137497653Y-127589523D01*
X137586278Y-127612261D01*
X137681621Y-127620185D01*
X138031212Y-127620185D01*
X138234300Y-127620185D01*
X138466844Y-127620185D01*
X138919530Y-126877594D01*
X138919530Y-127620185D01*
X139152074Y-127620185D01*
X139152074Y-127477558D01*
X139340434Y-127477558D01*
X139416205Y-127544317D01*
X139517943Y-127594217D01*
X139638866Y-127625320D01*
X139772191Y-127635688D01*
X139865854Y-127628582D01*
X139899596Y-127620185D01*
X140745775Y-127620185D01*
X141016301Y-127620185D01*
X141233342Y-127224860D01*
X141450383Y-127620185D01*
X141720909Y-127620185D01*
X141383720Y-127051227D01*
X141601766Y-126679932D01*
X141769743Y-126679932D01*
X142115459Y-126679932D01*
X142115459Y-127620185D01*
X142348003Y-127620185D01*
X143131676Y-127620185D01*
X143402202Y-127620185D01*
X143619243Y-127224860D01*
X143836284Y-127620185D01*
X144106810Y-127620185D01*
X144157194Y-127620185D01*
X144406792Y-127620185D01*
X144618407Y-127207032D01*
X144803667Y-127207032D01*
X144803667Y-127620185D01*
X145036211Y-127620185D01*
X145036211Y-127303925D01*
X145609819Y-127303925D01*
X145622006Y-127397545D01*
X145658567Y-127477902D01*
X145719502Y-127544995D01*
X145800505Y-127595380D01*
X145897269Y-127625611D01*
X146009795Y-127635688D01*
X146115602Y-127625783D01*
X146207715Y-127596069D01*
X146286134Y-127546546D01*
X146345777Y-127480744D01*
X146381563Y-127402196D01*
X146393492Y-127310901D01*
X146169475Y-127310901D01*
X146121803Y-127414771D01*
X146004368Y-127455078D01*
X145933152Y-127444517D01*
X145879182Y-127412833D01*
X145833836Y-127300824D01*
X145854507Y-127206945D01*
X145916519Y-127150618D01*
X146019871Y-127131842D01*
X146138469Y-127131842D01*
X146138469Y-126956659D01*
X146019096Y-126956659D01*
X145944876Y-126946001D01*
X145892747Y-126914026D01*
X145851665Y-126800855D01*
X145892360Y-126694660D01*
X146004368Y-126656678D01*
X146112114Y-126691947D01*
X146155522Y-126783802D01*
X146379539Y-126783802D01*
X146367622Y-126699989D01*
X146331868Y-126625284D01*
X146274701Y-126562788D01*
X146198543Y-126515601D01*
X146125588Y-126491571D01*
X146448527Y-126491571D01*
X146841527Y-127620185D01*
X147084148Y-127620185D01*
X147193840Y-127303925D01*
X147558537Y-127303925D01*
X147570724Y-127397545D01*
X147607285Y-127477902D01*
X147668220Y-127544995D01*
X147749223Y-127595380D01*
X147845987Y-127625611D01*
X147958513Y-127635688D01*
X148064320Y-127625783D01*
X148156434Y-127596069D01*
X148234852Y-127546546D01*
X148294496Y-127480744D01*
X148330282Y-127402196D01*
X148342210Y-127310901D01*
X148118193Y-127310901D01*
X148070521Y-127414771D01*
X147953087Y-127455078D01*
X147881870Y-127444517D01*
X147827901Y-127412833D01*
X147782555Y-127300824D01*
X147803225Y-127206945D01*
X147865237Y-127150618D01*
X147968590Y-127131842D01*
X148087187Y-127131842D01*
X148087187Y-126956659D01*
X147967815Y-126956659D01*
X147893594Y-126946001D01*
X147841466Y-126914026D01*
X147800383Y-126800855D01*
X147841078Y-126694660D01*
X147953087Y-126656678D01*
X148060832Y-126691947D01*
X148104240Y-126783802D01*
X148328258Y-126783802D01*
X148316340Y-126699989D01*
X148280586Y-126625284D01*
X148223419Y-126562788D01*
X148147261Y-126515601D01*
X148057247Y-126485952D01*
X147958513Y-126476068D01*
X147847753Y-126485586D01*
X147754219Y-126514137D01*
X147677910Y-126561722D01*
X147621496Y-126626016D01*
X147587648Y-126704694D01*
X147576366Y-126797754D01*
X147588187Y-126872168D01*
X147623649Y-126940381D01*
X147678297Y-126997936D01*
X147747673Y-127040375D01*
X147664442Y-127083008D01*
X147605434Y-127142694D01*
X147570261Y-127217108D01*
X147558537Y-127303925D01*
X147193840Y-127303925D01*
X147475597Y-126491571D01*
X147217473Y-126491571D01*
X146963225Y-127340357D01*
X146707426Y-126491571D01*
X146448527Y-126491571D01*
X146125588Y-126491571D01*
X146108529Y-126485952D01*
X146009795Y-126476068D01*
X145899035Y-126485586D01*
X145805500Y-126514137D01*
X145729191Y-126561722D01*
X145672778Y-126626016D01*
X145638930Y-126704694D01*
X145627647Y-126797754D01*
X145639468Y-126872168D01*
X145674931Y-126940381D01*
X145729579Y-126997936D01*
X145798955Y-127040375D01*
X145715723Y-127083008D01*
X145656715Y-127142694D01*
X145621543Y-127217108D01*
X145609819Y-127303925D01*
X145036211Y-127303925D01*
X145036211Y-126491571D01*
X144616856Y-126491571D01*
X144493694Y-126501476D01*
X144390858Y-126531190D01*
X144308348Y-126580713D01*
X144248059Y-126648323D01*
X144211885Y-126732297D01*
X144199827Y-126832636D01*
X144212327Y-126938540D01*
X144249824Y-127025260D01*
X144312708Y-127094538D01*
X144401366Y-127148120D01*
X144157194Y-127609333D01*
X144157194Y-127620185D01*
X144106810Y-127620185D01*
X143769621Y-127051227D01*
X144098283Y-126491571D01*
X143830858Y-126491571D01*
X143619243Y-126880695D01*
X143407628Y-126491571D01*
X143140202Y-126491571D01*
X143468864Y-127051227D01*
X143131676Y-127620185D01*
X142348003Y-127620185D01*
X142348003Y-126679932D01*
X142689067Y-126679932D01*
X142689067Y-126491571D01*
X141769743Y-126491571D01*
X141769743Y-126679932D01*
X141601766Y-126679932D01*
X141712382Y-126491571D01*
X141444957Y-126491571D01*
X141233342Y-126880695D01*
X141021727Y-126491571D01*
X140754301Y-126491571D01*
X141082963Y-127051227D01*
X140745775Y-127620185D01*
X139899596Y-127620185D01*
X139951508Y-127607266D01*
X140029152Y-127571738D01*
X140127014Y-127493351D01*
X140199684Y-127386090D01*
X140233231Y-127300221D01*
X140253772Y-127204878D01*
X140261308Y-127100061D01*
X140261308Y-127023322D01*
X140254978Y-126915706D01*
X140235987Y-126818166D01*
X140204335Y-126730704D01*
X140134766Y-126621602D01*
X140040004Y-126541568D01*
X139964341Y-126505179D01*
X139880496Y-126483346D01*
X139788469Y-126476068D01*
X139664359Y-126486705D01*
X139559714Y-126518615D01*
X139474535Y-126571799D01*
X139409336Y-126645309D01*
X139364636Y-126738197D01*
X139340434Y-126850464D01*
X139566777Y-126850464D01*
X139591679Y-126766555D01*
X139635377Y-126708612D01*
X139698455Y-126674894D01*
X139781493Y-126663654D01*
X139885944Y-126685939D01*
X139962102Y-126752796D01*
X139996639Y-126821870D01*
X140017568Y-126910237D01*
X140024889Y-127017896D01*
X140024889Y-127089984D01*
X140017395Y-127198677D01*
X139994916Y-127288077D01*
X139957451Y-127358185D01*
X139874316Y-127426204D01*
X139759788Y-127448877D01*
X139647586Y-127434925D01*
X139572978Y-127393067D01*
X139572978Y-127198505D01*
X139784593Y-127198505D01*
X139784593Y-127027198D01*
X139340434Y-127027198D01*
X139340434Y-127477558D01*
X139152074Y-127477558D01*
X139152074Y-126491571D01*
X138919530Y-126491571D01*
X138466069Y-127235712D01*
X138466069Y-126491571D01*
X138234300Y-126491571D01*
X138234300Y-127620185D01*
X138031212Y-127620185D01*
X138031212Y-126491571D01*
X137683946Y-126491571D01*
X137588216Y-126499021D01*
X137499461Y-126521371D01*
X137417683Y-126558622D01*
X137345121Y-126609609D01*
X137284014Y-126673171D01*
X137234361Y-126749308D01*
X137197757Y-126835478D01*
X137175795Y-126929142D01*
X137168474Y-127030298D01*
X137168474Y-127082233D01*
X136689261Y-127082233D01*
X136671691Y-127055878D01*
G37*
G36*
X137798668Y-127433374D02*
G01*
X137686272Y-127433374D01*
X137565930Y-127411089D01*
X137477757Y-127344232D01*
X137437536Y-127276278D01*
X137412989Y-127191270D01*
X137404118Y-127089209D01*
X137404118Y-127029523D01*
X137412042Y-126924060D01*
X137435813Y-126837114D01*
X137475432Y-126768686D01*
X137563217Y-126702121D01*
X137683946Y-126679932D01*
X137798668Y-126679932D01*
X137798668Y-127433374D01*
G37*
G36*
X144803667Y-127018671D02*
G01*
X144616081Y-127018671D01*
X144538373Y-127007528D01*
X144480431Y-126974100D01*
X144444386Y-126921099D01*
X144432371Y-126851239D01*
X144443708Y-126779926D01*
X144477717Y-126725666D01*
X144535175Y-126691365D01*
X144616856Y-126679932D01*
X144803667Y-126679932D01*
X144803667Y-127018671D01*
G37*
%TO.C,kibuzzard-643CF88B*%
G36*
X166927122Y-127433374D02*
G01*
X166814726Y-127433374D01*
X166694385Y-127411089D01*
X166606212Y-127344232D01*
X166565990Y-127276278D01*
X166541444Y-127191270D01*
X166532573Y-127089209D01*
X166532573Y-127029523D01*
X166540497Y-126924060D01*
X166564268Y-126837114D01*
X166603886Y-126768686D01*
X166691672Y-126702121D01*
X166812401Y-126679932D01*
X166927122Y-126679932D01*
X166927122Y-127433374D01*
G37*
G36*
X161102758Y-127055878D02*
G01*
X161533395Y-126409923D01*
X174777289Y-126409923D01*
X175207926Y-127055878D01*
X174777289Y-127701833D01*
X161533395Y-127701833D01*
X161120328Y-127082233D01*
X161599541Y-127082233D01*
X161606732Y-127183260D01*
X161628307Y-127276536D01*
X161664265Y-127362061D01*
X161713315Y-127437595D01*
X161774164Y-127500898D01*
X161846812Y-127551972D01*
X161928719Y-127589523D01*
X162017345Y-127612261D01*
X162112688Y-127620185D01*
X162462279Y-127620185D01*
X162665367Y-127620185D01*
X162897911Y-127620185D01*
X163350597Y-126877594D01*
X163350597Y-127620185D01*
X163583140Y-127620185D01*
X163583140Y-127477558D01*
X163771501Y-127477558D01*
X163847272Y-127544317D01*
X163949010Y-127594217D01*
X164069932Y-127625320D01*
X164203258Y-127635688D01*
X164296921Y-127628582D01*
X164330663Y-127620185D01*
X165165214Y-127620185D01*
X165412486Y-127620185D01*
X165490776Y-127387641D01*
X165898503Y-127387641D01*
X165976018Y-127620185D01*
X166223289Y-127620185D01*
X166023035Y-127082233D01*
X166296928Y-127082233D01*
X166304120Y-127183260D01*
X166325695Y-127276536D01*
X166361653Y-127362061D01*
X166410703Y-127437595D01*
X166471552Y-127500898D01*
X166544200Y-127551972D01*
X166626107Y-127589523D01*
X166714732Y-127612261D01*
X166810075Y-127620185D01*
X167159666Y-127620185D01*
X167159666Y-127322528D01*
X167317021Y-127322528D01*
X167329337Y-127413177D01*
X167366286Y-127489788D01*
X167427867Y-127552359D01*
X167510291Y-127598653D01*
X167609768Y-127626429D01*
X167726298Y-127635688D01*
X167850709Y-127623770D01*
X167862018Y-127620185D01*
X168664226Y-127620185D01*
X169390538Y-127620185D01*
X169390538Y-126874494D01*
X169541691Y-126874494D01*
X169774235Y-126874494D01*
X169793711Y-126780217D01*
X169835084Y-126715976D01*
X169901069Y-126679060D01*
X169994377Y-126666754D01*
X170096018Y-126687587D01*
X170168397Y-126750083D01*
X170200652Y-126815841D01*
X170220418Y-126902011D01*
X170227696Y-127008594D01*
X170227696Y-127093860D01*
X170221538Y-127204878D01*
X170203064Y-127294020D01*
X170172273Y-127361286D01*
X170100863Y-127424654D01*
X169997478Y-127445777D01*
X169903394Y-127433471D01*
X169836635Y-127396555D01*
X169794874Y-127333865D01*
X169775786Y-127244239D01*
X169543242Y-127244239D01*
X169564042Y-127357065D01*
X169608871Y-127452667D01*
X169677730Y-127531043D01*
X169767173Y-127589179D01*
X169873756Y-127624060D01*
X169997478Y-127635688D01*
X170100209Y-127626555D01*
X170191361Y-127599159D01*
X170270935Y-127553498D01*
X170338930Y-127489572D01*
X170393359Y-127409708D01*
X170429619Y-127322528D01*
X170586589Y-127322528D01*
X170598905Y-127413177D01*
X170635854Y-127489788D01*
X170697435Y-127552359D01*
X170779859Y-127598653D01*
X170879336Y-127626429D01*
X170995866Y-127635688D01*
X171120277Y-127623770D01*
X171233061Y-127588016D01*
X171327338Y-127531527D01*
X171396229Y-127457404D01*
X171438378Y-127367874D01*
X171447126Y-127303925D01*
X171978752Y-127303925D01*
X171990939Y-127397545D01*
X172027500Y-127477902D01*
X172088435Y-127544995D01*
X172169438Y-127595380D01*
X172266202Y-127625611D01*
X172378728Y-127635688D01*
X172484535Y-127625783D01*
X172576648Y-127596069D01*
X172655067Y-127546546D01*
X172714711Y-127480744D01*
X172750496Y-127402196D01*
X172762425Y-127310901D01*
X172538408Y-127310901D01*
X172490736Y-127414771D01*
X172373302Y-127455078D01*
X172302085Y-127444517D01*
X172248115Y-127412833D01*
X172202769Y-127300824D01*
X172223440Y-127206945D01*
X172285452Y-127150618D01*
X172388805Y-127131842D01*
X172507402Y-127131842D01*
X172507402Y-126956659D01*
X172388029Y-126956659D01*
X172313809Y-126946001D01*
X172261681Y-126914026D01*
X172220598Y-126800855D01*
X172261293Y-126694660D01*
X172373302Y-126656678D01*
X172481047Y-126691947D01*
X172524455Y-126783802D01*
X172748472Y-126783802D01*
X172736555Y-126699989D01*
X172700801Y-126625284D01*
X172643634Y-126562788D01*
X172567476Y-126515601D01*
X172494521Y-126491571D01*
X172817461Y-126491571D01*
X173210460Y-127620185D01*
X173453081Y-127620185D01*
X173562773Y-127303925D01*
X173927470Y-127303925D01*
X173939657Y-127397545D01*
X173976218Y-127477902D01*
X174037154Y-127544995D01*
X174118156Y-127595380D01*
X174214920Y-127625611D01*
X174327446Y-127635688D01*
X174433253Y-127625783D01*
X174525367Y-127596069D01*
X174603786Y-127546546D01*
X174663429Y-127480744D01*
X174699215Y-127402196D01*
X174711143Y-127310901D01*
X174487126Y-127310901D01*
X174439455Y-127414771D01*
X174322020Y-127455078D01*
X174250803Y-127444517D01*
X174196834Y-127412833D01*
X174151488Y-127300824D01*
X174172158Y-127206945D01*
X174234170Y-127150618D01*
X174337523Y-127131842D01*
X174456120Y-127131842D01*
X174456120Y-126956659D01*
X174336748Y-126956659D01*
X174262527Y-126946001D01*
X174210399Y-126914026D01*
X174169316Y-126800855D01*
X174210011Y-126694660D01*
X174322020Y-126656678D01*
X174429765Y-126691947D01*
X174473173Y-126783802D01*
X174697191Y-126783802D01*
X174685273Y-126699989D01*
X174649519Y-126625284D01*
X174592352Y-126562788D01*
X174516194Y-126515601D01*
X174426180Y-126485952D01*
X174327446Y-126476068D01*
X174216686Y-126485586D01*
X174123152Y-126514137D01*
X174046843Y-126561722D01*
X173990429Y-126626016D01*
X173956581Y-126704694D01*
X173945299Y-126797754D01*
X173957120Y-126872168D01*
X173992583Y-126940381D01*
X174047230Y-126997936D01*
X174116606Y-127040375D01*
X174033375Y-127083008D01*
X173974367Y-127142694D01*
X173939194Y-127217108D01*
X173927470Y-127303925D01*
X173562773Y-127303925D01*
X173844530Y-126491571D01*
X173586406Y-126491571D01*
X173332158Y-127340357D01*
X173076359Y-126491571D01*
X172817461Y-126491571D01*
X172494521Y-126491571D01*
X172477462Y-126485952D01*
X172378728Y-126476068D01*
X172267968Y-126485586D01*
X172174433Y-126514137D01*
X172098125Y-126561722D01*
X172041711Y-126626016D01*
X172007863Y-126704694D01*
X171996580Y-126797754D01*
X172008401Y-126872168D01*
X172043864Y-126940381D01*
X172098512Y-126997936D01*
X172167888Y-127040375D01*
X172084656Y-127083008D01*
X172025648Y-127142694D01*
X171990476Y-127217108D01*
X171978752Y-127303925D01*
X171447126Y-127303925D01*
X171452428Y-127265168D01*
X171219108Y-127265168D01*
X171205156Y-127346897D01*
X171163298Y-127405275D01*
X171093535Y-127440302D01*
X170995866Y-127451978D01*
X170922034Y-127443548D01*
X170866417Y-127418259D01*
X170819908Y-127324079D01*
X170866417Y-127222922D01*
X170931529Y-127186684D01*
X171033848Y-127148508D01*
X171142175Y-127109654D01*
X171225310Y-127071381D01*
X171332108Y-126994125D01*
X171396186Y-126900849D01*
X171417546Y-126791553D01*
X171404659Y-126705027D01*
X171365999Y-126628385D01*
X171303212Y-126564532D01*
X171217946Y-126516376D01*
X171115530Y-126486145D01*
X171001292Y-126476068D01*
X170886958Y-126487017D01*
X170785802Y-126519864D01*
X170701795Y-126572671D01*
X170638911Y-126643500D01*
X170599670Y-126728766D01*
X170586589Y-126824884D01*
X170819133Y-126824884D01*
X170831341Y-126755993D01*
X170867967Y-126704349D01*
X170926684Y-126672084D01*
X171005168Y-126661328D01*
X171080939Y-126670340D01*
X171137718Y-126697373D01*
X171185002Y-126792328D01*
X171129579Y-126884571D01*
X171061075Y-126920615D01*
X170966411Y-126954334D01*
X170846091Y-126997311D01*
X170749714Y-127046662D01*
X170677281Y-127102387D01*
X170609262Y-127201606D01*
X170586589Y-127322528D01*
X170429619Y-127322528D01*
X170432238Y-127316230D01*
X170455565Y-127209139D01*
X170463341Y-127088434D01*
X170463341Y-127019446D01*
X170456967Y-126915232D01*
X170437847Y-126819631D01*
X170405980Y-126732642D01*
X170336314Y-126623056D01*
X170242036Y-126542343D01*
X170167149Y-126505524D01*
X170084595Y-126483432D01*
X169994377Y-126476068D01*
X169872593Y-126487696D01*
X169767690Y-126522577D01*
X169679668Y-126580713D01*
X169611282Y-126659864D01*
X169565290Y-126757791D01*
X169541691Y-126874494D01*
X169390538Y-126874494D01*
X169390538Y-126491571D01*
X169157994Y-126491571D01*
X169157994Y-127433374D01*
X168664226Y-127433374D01*
X168664226Y-127620185D01*
X167862018Y-127620185D01*
X167963493Y-127588016D01*
X168057770Y-127531527D01*
X168126662Y-127457404D01*
X168168810Y-127367874D01*
X168182860Y-127265168D01*
X167949541Y-127265168D01*
X167935588Y-127346897D01*
X167893730Y-127405275D01*
X167823967Y-127440302D01*
X167726298Y-127451978D01*
X167652466Y-127443548D01*
X167596849Y-127418259D01*
X167550340Y-127324079D01*
X167596849Y-127222922D01*
X167661961Y-127186684D01*
X167764281Y-127148508D01*
X167872607Y-127109654D01*
X167955742Y-127071381D01*
X168062540Y-126994125D01*
X168126619Y-126900849D01*
X168147978Y-126791553D01*
X168135091Y-126705027D01*
X168096431Y-126628385D01*
X168033644Y-126564532D01*
X167948378Y-126516376D01*
X167845962Y-126486145D01*
X167731724Y-126476068D01*
X167617390Y-126487017D01*
X167516234Y-126519864D01*
X167432227Y-126572671D01*
X167369343Y-126643500D01*
X167330102Y-126728766D01*
X167317021Y-126824884D01*
X167549565Y-126824884D01*
X167561774Y-126755993D01*
X167598399Y-126704349D01*
X167657117Y-126672084D01*
X167735600Y-126661328D01*
X167811371Y-126670340D01*
X167868150Y-126697373D01*
X167915434Y-126792328D01*
X167860011Y-126884571D01*
X167791508Y-126920615D01*
X167696843Y-126954334D01*
X167576523Y-126997311D01*
X167480146Y-127046662D01*
X167407713Y-127102387D01*
X167339694Y-127201606D01*
X167317021Y-127322528D01*
X167159666Y-127322528D01*
X167159666Y-126491571D01*
X166812401Y-126491571D01*
X166716670Y-126499021D01*
X166627916Y-126521371D01*
X166546138Y-126558622D01*
X166473576Y-126609609D01*
X166412468Y-126673171D01*
X166362816Y-126749308D01*
X166326212Y-126835478D01*
X166304249Y-126929142D01*
X166296928Y-127030298D01*
X166296928Y-127082233D01*
X166023035Y-127082233D01*
X165803160Y-126491571D01*
X165587669Y-126491571D01*
X165165214Y-127620185D01*
X164330663Y-127620185D01*
X164382575Y-127607266D01*
X164460219Y-127571738D01*
X164558081Y-127493351D01*
X164630751Y-127386090D01*
X164664298Y-127300221D01*
X164684839Y-127204878D01*
X164692375Y-127100061D01*
X164692375Y-127023322D01*
X164686045Y-126915706D01*
X164667054Y-126818166D01*
X164635402Y-126730704D01*
X164565832Y-126621602D01*
X164471071Y-126541568D01*
X164395408Y-126505179D01*
X164311563Y-126483346D01*
X164219536Y-126476068D01*
X164095426Y-126486705D01*
X163990781Y-126518615D01*
X163905601Y-126571799D01*
X163840403Y-126645309D01*
X163795703Y-126738197D01*
X163771501Y-126850464D01*
X163997844Y-126850464D01*
X164022745Y-126766555D01*
X164066444Y-126708612D01*
X164129522Y-126674894D01*
X164212559Y-126663654D01*
X164317010Y-126685939D01*
X164393169Y-126752796D01*
X164427706Y-126821870D01*
X164448635Y-126910237D01*
X164455955Y-127017896D01*
X164455955Y-127089984D01*
X164448462Y-127198677D01*
X164425983Y-127288077D01*
X164388518Y-127358185D01*
X164305383Y-127426204D01*
X164190855Y-127448877D01*
X164078653Y-127434925D01*
X164004045Y-127393067D01*
X164004045Y-127198505D01*
X164215660Y-127198505D01*
X164215660Y-127027198D01*
X163771501Y-127027198D01*
X163771501Y-127477558D01*
X163583140Y-127477558D01*
X163583140Y-126491571D01*
X163350597Y-126491571D01*
X162897136Y-127235712D01*
X162897136Y-126491571D01*
X162665367Y-126491571D01*
X162665367Y-127620185D01*
X162462279Y-127620185D01*
X162462279Y-126491571D01*
X162115013Y-126491571D01*
X162019282Y-126499021D01*
X161930528Y-126521371D01*
X161848750Y-126558622D01*
X161776188Y-126609609D01*
X161715080Y-126673171D01*
X161665428Y-126749308D01*
X161628824Y-126835478D01*
X161606861Y-126929142D01*
X161599541Y-127030298D01*
X161599541Y-127082233D01*
X161120328Y-127082233D01*
X161102758Y-127055878D01*
G37*
G36*
X162229735Y-127433374D02*
G01*
X162117338Y-127433374D01*
X161996997Y-127411089D01*
X161908824Y-127344232D01*
X161868603Y-127276278D01*
X161844056Y-127191270D01*
X161835185Y-127089209D01*
X161835185Y-127029523D01*
X161843109Y-126924060D01*
X161866880Y-126837114D01*
X161906499Y-126768686D01*
X161994284Y-126702121D01*
X162115013Y-126679932D01*
X162229735Y-126679932D01*
X162229735Y-127433374D01*
G37*
G36*
X165835716Y-127199280D02*
G01*
X165553563Y-127199280D01*
X165695415Y-126776825D01*
X165835716Y-127199280D01*
G37*
%TO.C,kibuzzard-643E45C8*%
G36*
X184734200Y-123604205D02*
G01*
X183879679Y-123034524D01*
X183879679Y-121919864D01*
X184057032Y-121919864D01*
X184057032Y-122336582D01*
X184065972Y-122451459D01*
X184092792Y-122557964D01*
X184137492Y-122656098D01*
X184198677Y-122743172D01*
X184274952Y-122816501D01*
X184366315Y-122876084D01*
X184469720Y-122920009D01*
X184582116Y-122946364D01*
X184703504Y-122955149D01*
X184765826Y-122955149D01*
X184887059Y-122946519D01*
X184998990Y-122920629D01*
X185101619Y-122877480D01*
X185192260Y-122818620D01*
X185268224Y-122745601D01*
X185329513Y-122658423D01*
X185374574Y-122560135D01*
X185401860Y-122453784D01*
X185411368Y-122339373D01*
X185411368Y-121919864D01*
X184057032Y-121919864D01*
X183879679Y-121919864D01*
X183879679Y-121676158D01*
X184057032Y-121676158D01*
X185411368Y-121676158D01*
X185411368Y-121397105D01*
X184520260Y-120853882D01*
X185411368Y-120853882D01*
X185411368Y-120574829D01*
X184057032Y-120574829D01*
X184057032Y-120853882D01*
X184950001Y-121398035D01*
X184057032Y-121398035D01*
X184057032Y-121676158D01*
X183879679Y-121676158D01*
X183879679Y-119811155D01*
X184038429Y-119811155D01*
X184051193Y-119960087D01*
X184089485Y-120085660D01*
X184153305Y-120187876D01*
X184241517Y-120266114D01*
X184352983Y-120319755D01*
X184487703Y-120348797D01*
X184487703Y-120077185D01*
X184387012Y-120047303D01*
X184317481Y-119994865D01*
X184277019Y-119919172D01*
X184263531Y-119819527D01*
X184290274Y-119694185D01*
X184370501Y-119602796D01*
X184453390Y-119561351D01*
X184559430Y-119536236D01*
X184688621Y-119527451D01*
X184775128Y-119527451D01*
X184905559Y-119536443D01*
X185012839Y-119563418D01*
X185096969Y-119608377D01*
X185178591Y-119708138D01*
X185205799Y-119845572D01*
X185189056Y-119980215D01*
X185138826Y-120069744D01*
X184905352Y-120069744D01*
X184905352Y-119815806D01*
X184699783Y-119815806D01*
X184699783Y-120348797D01*
X185240216Y-120348797D01*
X185320327Y-120257872D01*
X185380207Y-120135786D01*
X185417530Y-119990679D01*
X185429971Y-119830689D01*
X185421445Y-119718293D01*
X185395865Y-119615508D01*
X185353232Y-119522335D01*
X185259168Y-119404901D01*
X185130455Y-119317697D01*
X185027412Y-119277441D01*
X184913000Y-119252791D01*
X184787220Y-119243748D01*
X184695133Y-119243748D01*
X184565993Y-119251344D01*
X184448946Y-119274134D01*
X184343991Y-119312116D01*
X184213069Y-119395599D01*
X184117028Y-119509313D01*
X184073362Y-119600109D01*
X184047162Y-119700723D01*
X184038429Y-119811155D01*
X183879679Y-119811155D01*
X183879679Y-118675410D01*
X184057032Y-118675410D01*
X185411368Y-118203811D01*
X185411368Y-117912666D01*
X184057032Y-117442928D01*
X184057032Y-117752676D01*
X185075575Y-118057774D01*
X184057032Y-118364732D01*
X184057032Y-118675410D01*
X183879679Y-118675410D01*
X183879679Y-117312703D01*
X184057032Y-117312703D01*
X184281204Y-117312703D01*
X184281204Y-116774131D01*
X184572349Y-116740645D01*
X184533980Y-116839476D01*
X184521190Y-116944353D01*
X184534522Y-117064036D01*
X184574520Y-117165115D01*
X184641182Y-117247591D01*
X184731823Y-117308569D01*
X184843754Y-117345156D01*
X184976976Y-117357351D01*
X185101271Y-117343515D01*
X185211845Y-117302006D01*
X185303933Y-117234684D01*
X185372766Y-117143411D01*
X185415670Y-117030860D01*
X185429971Y-116899705D01*
X185417530Y-116781340D01*
X185380207Y-116671812D01*
X185320327Y-116577748D01*
X185240216Y-116505775D01*
X185143710Y-116459150D01*
X185034647Y-116441128D01*
X185034647Y-116707158D01*
X185166267Y-116766225D01*
X185213241Y-116898775D01*
X185196846Y-116979467D01*
X185147663Y-117039231D01*
X185068482Y-117076206D01*
X184962093Y-117088531D01*
X184860239Y-117074345D01*
X184785360Y-117031790D01*
X184739316Y-116963189D01*
X184723968Y-116870869D01*
X184736525Y-116784131D01*
X184774198Y-116715530D01*
X184798382Y-116689485D01*
X184745362Y-116475545D01*
X184057032Y-116553679D01*
X184057032Y-117312703D01*
X183879679Y-117312703D01*
X183879679Y-115226319D01*
X184038429Y-115226319D01*
X184051193Y-115375250D01*
X184089485Y-115500824D01*
X184153305Y-115603040D01*
X184241517Y-115681278D01*
X184352983Y-115734918D01*
X184487703Y-115763960D01*
X184487703Y-115492349D01*
X184387012Y-115462467D01*
X184317481Y-115410028D01*
X184277019Y-115334335D01*
X184263531Y-115234690D01*
X184290274Y-115109349D01*
X184370501Y-115017959D01*
X184453390Y-114976515D01*
X184559430Y-114951400D01*
X184688621Y-114942615D01*
X184775128Y-114942615D01*
X184905559Y-114951607D01*
X185012839Y-114978582D01*
X185096969Y-115023540D01*
X185178591Y-115123302D01*
X185205799Y-115260735D01*
X185189056Y-115395378D01*
X185138826Y-115484908D01*
X184905352Y-115484908D01*
X184905352Y-115230970D01*
X184699783Y-115230970D01*
X184699783Y-115763960D01*
X185240216Y-115763960D01*
X185320327Y-115673036D01*
X185380207Y-115550950D01*
X185417530Y-115405843D01*
X185429971Y-115245852D01*
X185421445Y-115133456D01*
X185395865Y-115030672D01*
X185353232Y-114937499D01*
X185259168Y-114820064D01*
X185130455Y-114732860D01*
X185027412Y-114692604D01*
X184913000Y-114667955D01*
X184787220Y-114658911D01*
X184695133Y-114658911D01*
X184565993Y-114666508D01*
X184448946Y-114689297D01*
X184343991Y-114727279D01*
X184213069Y-114810763D01*
X184117028Y-114924477D01*
X184073362Y-115015272D01*
X184047162Y-115115886D01*
X184038429Y-115226319D01*
X183879679Y-115226319D01*
X183879679Y-114433809D01*
X184057032Y-114433809D01*
X185411368Y-114433809D01*
X185411368Y-114154756D01*
X184057032Y-114154756D01*
X184057032Y-114433809D01*
X183879679Y-114433809D01*
X183879679Y-113450613D01*
X184038429Y-113450613D01*
X184051567Y-113587814D01*
X184090983Y-113709202D01*
X184154352Y-113810010D01*
X184239346Y-113885470D01*
X184341666Y-113932560D01*
X184457008Y-113948257D01*
X184457008Y-113669204D01*
X184374338Y-113654554D01*
X184312365Y-113610603D01*
X184273647Y-113540143D01*
X184260741Y-113445962D01*
X184271554Y-113355038D01*
X184303994Y-113286902D01*
X184417940Y-113230161D01*
X184528631Y-113296669D01*
X184571884Y-113378873D01*
X184612347Y-113492471D01*
X184663920Y-113636855D01*
X184723141Y-113752507D01*
X184790011Y-113839427D01*
X184909073Y-113921049D01*
X185054180Y-113948257D01*
X185162959Y-113933478D01*
X185254892Y-113889139D01*
X185329978Y-113815242D01*
X185385530Y-113716333D01*
X185418861Y-113596961D01*
X185429971Y-113457124D01*
X185415670Y-113307831D01*
X185372766Y-113172491D01*
X185304979Y-113059358D01*
X185216031Y-112976689D01*
X185108596Y-112926110D01*
X184985347Y-112909251D01*
X184985347Y-113189234D01*
X185083423Y-113205977D01*
X185153477Y-113256206D01*
X185195509Y-113339922D01*
X185209520Y-113457124D01*
X185199404Y-113545724D01*
X185169057Y-113612464D01*
X185056041Y-113668274D01*
X184934653Y-113612464D01*
X184891167Y-113534329D01*
X184845356Y-113411546D01*
X184798731Y-113281554D01*
X184752804Y-113181792D01*
X184660096Y-113053635D01*
X184548165Y-112976740D01*
X184417010Y-112951109D01*
X184313179Y-112966573D01*
X184221208Y-113012965D01*
X184144585Y-113088310D01*
X184086798Y-113190629D01*
X184050521Y-113313528D01*
X184038429Y-113450613D01*
X183879679Y-113450613D01*
X183879679Y-112829876D01*
X184734200Y-112260195D01*
X185588721Y-112829876D01*
X185588721Y-123034524D01*
X184734200Y-123604205D01*
G37*
G36*
X185187196Y-122333792D02*
G01*
X185160453Y-122478202D01*
X185080225Y-122584009D01*
X184998680Y-122632275D01*
X184896671Y-122661730D01*
X184774198Y-122672376D01*
X184702574Y-122672376D01*
X184576018Y-122662867D01*
X184471684Y-122634342D01*
X184389570Y-122586800D01*
X184309691Y-122481457D01*
X184283065Y-122336582D01*
X184283065Y-122198916D01*
X185187196Y-122198916D01*
X185187196Y-122333792D01*
G37*
%TO.C,kibuzzard-643CF7B7*%
G36*
X143774106Y-125481354D02*
G01*
X143350876Y-125481354D01*
X143563654Y-124847672D01*
X143774106Y-125481354D01*
G37*
G36*
X139716989Y-124320572D02*
G01*
X145895295Y-124320572D01*
X145895295Y-126235184D01*
X139716989Y-126235184D01*
X139716989Y-124702332D01*
X139816208Y-124702332D01*
X140334781Y-124702332D01*
X140334781Y-126112711D01*
X140683597Y-126112711D01*
X141291700Y-126112711D01*
X141666095Y-126112711D01*
X141983518Y-125492981D01*
X142261408Y-125492981D01*
X142261408Y-126112711D01*
X142610224Y-126112711D01*
X142768354Y-126112711D01*
X143139261Y-126112711D01*
X143256696Y-125763895D01*
X143868286Y-125763895D01*
X143984558Y-126112711D01*
X144355466Y-126112711D01*
X144140352Y-125534839D01*
X144498481Y-125534839D01*
X144517795Y-125707180D01*
X144575737Y-125853683D01*
X144672307Y-125974347D01*
X144802338Y-126064135D01*
X144960662Y-126118008D01*
X145147278Y-126135965D01*
X145331375Y-126118524D01*
X145488343Y-126066202D01*
X145618180Y-125978998D01*
X145715461Y-125861305D01*
X145774759Y-125717515D01*
X145796076Y-125547629D01*
X145796076Y-124419791D01*
X145447260Y-124419791D01*
X145447260Y-125537164D01*
X145427348Y-125680906D01*
X145367614Y-125779592D01*
X145272707Y-125836710D01*
X145147278Y-125855750D01*
X145018289Y-125836419D01*
X144925489Y-125778429D01*
X144868879Y-125681778D01*
X144848459Y-125546466D01*
X144848459Y-124419791D01*
X144498481Y-124419791D01*
X144498481Y-125534839D01*
X144140352Y-125534839D01*
X143725272Y-124419791D01*
X143402036Y-124419791D01*
X142768354Y-126112711D01*
X142610224Y-126112711D01*
X142610224Y-124419791D01*
X141981192Y-124419791D01*
X141796449Y-124434648D01*
X141642195Y-124479219D01*
X141518430Y-124553504D01*
X141427996Y-124654919D01*
X141373736Y-124780880D01*
X141355649Y-124931388D01*
X141374398Y-125090244D01*
X141430645Y-125220323D01*
X141524970Y-125324241D01*
X141657956Y-125404614D01*
X141291700Y-126096433D01*
X141291700Y-126112711D01*
X140683597Y-126112711D01*
X140683597Y-124702332D01*
X141195194Y-124702332D01*
X141195194Y-124419791D01*
X139816208Y-124419791D01*
X139816208Y-124702332D01*
X139716989Y-124702332D01*
X139716989Y-124320572D01*
G37*
G36*
X142261408Y-125210440D02*
G01*
X141980030Y-125210440D01*
X141863467Y-125193726D01*
X141776554Y-125143584D01*
X141722487Y-125064083D01*
X141704465Y-124959293D01*
X141721470Y-124852323D01*
X141772484Y-124770932D01*
X141858671Y-124719482D01*
X141981192Y-124702332D01*
X142261408Y-124702332D01*
X142261408Y-125210440D01*
G37*
%TO.C,J7*%
X138305000Y-128910000D02*
X136505000Y-128910000D01*
X136495000Y-128150000D02*
X149115000Y-128150000D01*
X136505000Y-128910000D02*
X136505000Y-128160000D01*
X149115000Y-134120000D02*
X136495000Y-134120000D01*
X136505000Y-130410000D02*
X137255000Y-130410000D01*
X147305000Y-128160000D02*
X149105000Y-128160000D01*
X148155000Y-127860000D02*
X149405000Y-127860000D01*
X137255000Y-130410000D02*
X137255000Y-133360000D01*
X145805000Y-128160000D02*
X145805000Y-128910000D01*
X148355000Y-130410000D02*
X148355000Y-133360000D01*
X147305000Y-128910000D02*
X147305000Y-128160000D01*
X148355000Y-133360000D02*
X142805000Y-133360000D01*
X149105000Y-130410000D02*
X148355000Y-130410000D01*
X136495000Y-134120000D02*
X136495000Y-128150000D01*
X149405000Y-127860000D02*
X149405000Y-129110000D01*
X149115000Y-128150000D02*
X149115000Y-134120000D01*
X137255000Y-133360000D02*
X142805000Y-133360000D01*
X145805000Y-128910000D02*
X139805000Y-128910000D01*
X139805000Y-128160000D02*
X145805000Y-128160000D01*
X139805000Y-128910000D02*
X139805000Y-128160000D01*
X149105000Y-128910000D02*
X147305000Y-128910000D01*
X149105000Y-128160000D02*
X149105000Y-128910000D01*
X136505000Y-128160000D02*
X138305000Y-128160000D01*
X138305000Y-128160000D02*
X138305000Y-128910000D01*
%TO.C,kibuzzard-643CF80B*%
G36*
X166371342Y-124308945D02*
G01*
X169939342Y-124308945D01*
X169939342Y-126246811D01*
X166371342Y-126246811D01*
X166371342Y-125005802D01*
X166470561Y-125005802D01*
X166819377Y-125005802D01*
X166848590Y-124864386D01*
X166910651Y-124768025D01*
X167009627Y-124712651D01*
X167149589Y-124694193D01*
X167302051Y-124725441D01*
X167410620Y-124819185D01*
X167459002Y-124917822D01*
X167488651Y-125047078D01*
X167499568Y-125206952D01*
X167499568Y-125334851D01*
X167490331Y-125501379D01*
X167462619Y-125635091D01*
X167416434Y-125735990D01*
X167309318Y-125831042D01*
X167154240Y-125862726D01*
X167013115Y-125844268D01*
X166912976Y-125788893D01*
X166850334Y-125694858D01*
X166821702Y-125560419D01*
X166472887Y-125560419D01*
X166504086Y-125729659D01*
X166571330Y-125873061D01*
X166674618Y-125990625D01*
X166808783Y-126077829D01*
X166968657Y-126130152D01*
X167154240Y-126147592D01*
X167308337Y-126133894D01*
X167340131Y-126124338D01*
X168043721Y-126124338D01*
X169204115Y-126124338D01*
X169491307Y-126124338D01*
X169840123Y-126124338D01*
X169840123Y-124431418D01*
X169491307Y-124431418D01*
X169491307Y-126124338D01*
X169204115Y-126124338D01*
X169204115Y-125894119D01*
X168656474Y-125310434D01*
X168558370Y-125195034D01*
X168489624Y-125095331D01*
X168435557Y-124920923D01*
X168449801Y-124820202D01*
X168492531Y-124743608D01*
X168655311Y-124679077D01*
X168757195Y-124698698D01*
X168834952Y-124757561D01*
X168884222Y-124848398D01*
X168900645Y-124963944D01*
X169237834Y-124963944D01*
X169219376Y-124815988D01*
X169164001Y-124681403D01*
X169074908Y-124567311D01*
X168955293Y-124480834D01*
X168811407Y-124426331D01*
X168649498Y-124408164D01*
X168488074Y-124422116D01*
X168352617Y-124463974D01*
X168243127Y-124533737D01*
X168162706Y-124628951D01*
X168114453Y-124747161D01*
X168098369Y-124888367D01*
X168114647Y-125015103D01*
X168163481Y-125144165D01*
X168251848Y-125285145D01*
X168386723Y-125447635D01*
X168771583Y-125853424D01*
X168043721Y-125853424D01*
X168043721Y-126124338D01*
X167340131Y-126124338D01*
X167445066Y-126092799D01*
X167564426Y-126024308D01*
X167666418Y-125928420D01*
X167748063Y-125808623D01*
X167806381Y-125668406D01*
X167841371Y-125507769D01*
X167853035Y-125326712D01*
X167853035Y-125223230D01*
X167843475Y-125066909D01*
X167814794Y-124923507D01*
X167766994Y-124793024D01*
X167662494Y-124628644D01*
X167521078Y-124507576D01*
X167408747Y-124452347D01*
X167284917Y-124419209D01*
X167149589Y-124408164D01*
X166966913Y-124425604D01*
X166809559Y-124477927D01*
X166677525Y-124565131D01*
X166574948Y-124683857D01*
X166505959Y-124830748D01*
X166470561Y-125005802D01*
X166371342Y-125005802D01*
X166371342Y-124308945D01*
G37*
%TO.C,kibuzzard-643CFA52*%
G36*
X155521828Y-125094114D02*
G01*
X155614148Y-125176086D01*
X155656626Y-125260267D01*
X155682361Y-125367082D01*
X155691353Y-125496531D01*
X155691353Y-125562574D01*
X155682878Y-125690525D01*
X155657453Y-125797805D01*
X155615078Y-125884415D01*
X155522061Y-125970223D01*
X155395557Y-125998826D01*
X155271378Y-125971270D01*
X155179756Y-125888600D01*
X155137795Y-125803903D01*
X155112370Y-125696777D01*
X155103481Y-125567225D01*
X155103481Y-125501182D01*
X155111956Y-125370544D01*
X155137381Y-125262644D01*
X155179756Y-125177481D01*
X155272308Y-125094463D01*
X155397417Y-125066790D01*
X155521828Y-125094114D01*
G37*
G36*
X152260664Y-126382285D02*
G01*
X152177712Y-126369980D01*
X152096367Y-126349604D01*
X152017410Y-126321353D01*
X151941603Y-126285499D01*
X151869675Y-126242387D01*
X151802319Y-126192432D01*
X151740183Y-126136116D01*
X151683867Y-126073981D01*
X151633913Y-126006625D01*
X151590801Y-125934697D01*
X151554946Y-125858889D01*
X151526695Y-125779932D01*
X151506319Y-125698587D01*
X151494015Y-125615636D01*
X151489900Y-125531878D01*
X151494015Y-125448120D01*
X151506319Y-125365169D01*
X151526695Y-125283824D01*
X151554946Y-125204867D01*
X151590801Y-125129059D01*
X151619761Y-125080743D01*
X152344580Y-125080743D01*
X152759438Y-125080743D01*
X152759438Y-126209046D01*
X153038491Y-126209046D01*
X153038491Y-125746749D01*
X153592876Y-125746749D01*
X153608327Y-125884621D01*
X153654681Y-126001823D01*
X153731937Y-126098355D01*
X153835962Y-126170185D01*
X153962621Y-126213283D01*
X154111914Y-126227649D01*
X154259192Y-126213697D01*
X154384766Y-126171839D01*
X154488635Y-126102076D01*
X154566460Y-126007921D01*
X154613899Y-125892890D01*
X154630952Y-125756981D01*
X154630952Y-125562574D01*
X154820708Y-125562574D01*
X154828563Y-125690421D01*
X154852127Y-125807313D01*
X154891401Y-125913250D01*
X154945300Y-126006061D01*
X155012738Y-126083576D01*
X155093715Y-126145794D01*
X155185750Y-126191269D01*
X155286364Y-126218554D01*
X155395557Y-126227649D01*
X155503767Y-126218658D01*
X155603916Y-126191683D01*
X155696003Y-126146724D01*
X155777445Y-126085074D01*
X155845658Y-126008025D01*
X155900642Y-125915576D01*
X155941053Y-125810414D01*
X155965548Y-125695227D01*
X155974126Y-125570015D01*
X155974126Y-125503043D01*
X155966116Y-125375040D01*
X155942087Y-125257683D01*
X155902037Y-125150971D01*
X155847364Y-125057437D01*
X155779461Y-124979612D01*
X155698329Y-124917497D01*
X155606396Y-124872280D01*
X155541438Y-124854710D01*
X156535022Y-124854710D01*
X157006621Y-126209046D01*
X157297766Y-126209046D01*
X157448431Y-125774654D01*
X157853081Y-125774654D01*
X157866917Y-125898949D01*
X157908427Y-126009523D01*
X157975748Y-126101611D01*
X158067021Y-126170444D01*
X158179573Y-126213348D01*
X158310728Y-126227649D01*
X158429092Y-126215208D01*
X158538621Y-126177885D01*
X158632685Y-126118005D01*
X158704657Y-126037894D01*
X158751282Y-125941388D01*
X158769304Y-125832325D01*
X158503274Y-125832325D01*
X158444208Y-125963945D01*
X158311658Y-126010919D01*
X158230965Y-125994524D01*
X158171201Y-125945341D01*
X158134227Y-125866160D01*
X158121902Y-125759771D01*
X158136087Y-125657917D01*
X158178643Y-125583038D01*
X158247243Y-125536994D01*
X158339563Y-125521646D01*
X158426302Y-125534203D01*
X158494902Y-125571876D01*
X158520947Y-125596060D01*
X158734888Y-125543040D01*
X158656753Y-124854710D01*
X157897729Y-124854710D01*
X157897729Y-125078882D01*
X158436301Y-125078882D01*
X158469788Y-125370027D01*
X158370956Y-125331658D01*
X158266079Y-125318868D01*
X158146396Y-125332200D01*
X158045317Y-125372198D01*
X157962842Y-125438860D01*
X157901864Y-125529501D01*
X157865277Y-125641432D01*
X157853081Y-125774654D01*
X157448431Y-125774654D01*
X157767505Y-124854710D01*
X157457756Y-124854710D01*
X157152659Y-125873253D01*
X156845701Y-124854710D01*
X156535022Y-124854710D01*
X155541438Y-124854710D01*
X155506093Y-124845150D01*
X155397417Y-124836107D01*
X155288741Y-124845150D01*
X155188438Y-124872280D01*
X155096505Y-124917497D01*
X155015373Y-124979612D01*
X154947470Y-125057437D01*
X154892797Y-125150971D01*
X154852747Y-125257579D01*
X154828718Y-125374627D01*
X154820708Y-125502112D01*
X154820708Y-125562574D01*
X154630952Y-125562574D01*
X154630952Y-124854710D01*
X154351899Y-124854710D01*
X154351899Y-125748609D01*
X154335970Y-125863602D01*
X154288182Y-125942551D01*
X154212257Y-125988245D01*
X154111914Y-126003477D01*
X154008723Y-125988013D01*
X153934483Y-125941620D01*
X153889195Y-125864300D01*
X153872859Y-125756050D01*
X153872859Y-124854710D01*
X153592876Y-124854710D01*
X153592876Y-125746749D01*
X153038491Y-125746749D01*
X153038491Y-125080743D01*
X153447769Y-125080743D01*
X153447769Y-124854710D01*
X152344580Y-124854710D01*
X152344580Y-125080743D01*
X151619761Y-125080743D01*
X151633913Y-125057131D01*
X151683867Y-124989775D01*
X151740183Y-124927640D01*
X151802319Y-124871324D01*
X151869675Y-124821369D01*
X151941603Y-124778257D01*
X152017410Y-124742403D01*
X152096367Y-124714152D01*
X152177712Y-124693776D01*
X152260664Y-124681471D01*
X152344421Y-124677357D01*
X158769463Y-124677357D01*
X158853221Y-124681471D01*
X158936172Y-124693776D01*
X159017517Y-124714152D01*
X159096474Y-124742403D01*
X159172281Y-124778257D01*
X159244210Y-124821369D01*
X159311565Y-124871324D01*
X159373701Y-124927640D01*
X159430017Y-124989775D01*
X159479971Y-125057131D01*
X159523083Y-125129059D01*
X159558938Y-125204867D01*
X159587189Y-125283824D01*
X159607565Y-125365169D01*
X159619869Y-125448120D01*
X159623984Y-125531878D01*
X159619869Y-125615636D01*
X159607565Y-125698587D01*
X159587189Y-125779932D01*
X159558938Y-125858889D01*
X159523083Y-125934697D01*
X159479971Y-126006625D01*
X159430017Y-126073981D01*
X159373701Y-126136116D01*
X159311565Y-126192432D01*
X159244210Y-126242387D01*
X159172281Y-126285499D01*
X159096474Y-126321353D01*
X159017517Y-126349604D01*
X158936172Y-126369980D01*
X158853221Y-126382285D01*
X158769463Y-126386399D01*
X152344421Y-126386399D01*
X152260664Y-126382285D01*
G37*
%TO.C,kibuzzard-643CFABC*%
G36*
X113103505Y-93525101D02*
G01*
X113118718Y-93422540D01*
X113143911Y-93321965D01*
X113178840Y-93224344D01*
X113223170Y-93130616D01*
X113276474Y-93041684D01*
X113338237Y-92958406D01*
X113407866Y-92881582D01*
X113484690Y-92811953D01*
X113567968Y-92750190D01*
X113656900Y-92696886D01*
X113750628Y-92652557D01*
X113848249Y-92617627D01*
X113948824Y-92592434D01*
X114051384Y-92577221D01*
X114154942Y-92572133D01*
X114258500Y-92577221D01*
X114361060Y-92592434D01*
X114461635Y-92617627D01*
X114559256Y-92652557D01*
X114652984Y-92696886D01*
X114741916Y-92750190D01*
X114825194Y-92811953D01*
X114902018Y-92881582D01*
X114971647Y-92958406D01*
X115033410Y-93041684D01*
X115086714Y-93130616D01*
X115131044Y-93224344D01*
X115165973Y-93321965D01*
X115191166Y-93422540D01*
X115206379Y-93525101D01*
X115211467Y-93628658D01*
X115211467Y-100539098D01*
X115206379Y-100642656D01*
X115191166Y-100745216D01*
X115165973Y-100845791D01*
X115131043Y-100943413D01*
X115086713Y-101037140D01*
X115033410Y-101126072D01*
X114971646Y-101209350D01*
X114902018Y-101286174D01*
X114825194Y-101355803D01*
X114741916Y-101417566D01*
X114652984Y-101470870D01*
X114559256Y-101515199D01*
X114461635Y-101550129D01*
X114361060Y-101575322D01*
X114258500Y-101590535D01*
X114154942Y-101595623D01*
X114051384Y-101590535D01*
X113948824Y-101575322D01*
X113848249Y-101550129D01*
X113750628Y-101515199D01*
X113656900Y-101470870D01*
X113567968Y-101417566D01*
X113484690Y-101355803D01*
X113407866Y-101286174D01*
X113338238Y-101209350D01*
X113276474Y-101126072D01*
X113223171Y-101037140D01*
X113178841Y-100943413D01*
X113143911Y-100845791D01*
X113118718Y-100745216D01*
X113103505Y-100642656D01*
X113098417Y-100539098D01*
X113098417Y-100137762D01*
X113296855Y-100137762D01*
X114592125Y-100137762D01*
X114467714Y-100538900D01*
X114740953Y-100538900D01*
X114992100Y-99837780D01*
X114992100Y-99801736D01*
X113296855Y-99801736D01*
X113296855Y-100137762D01*
X113098417Y-100137762D01*
X113098417Y-99251769D01*
X113296855Y-99251769D01*
X113527073Y-99251769D01*
X114110759Y-98704128D01*
X114226159Y-98606024D01*
X114325862Y-98537278D01*
X114500270Y-98483211D01*
X114600990Y-98497455D01*
X114677585Y-98540185D01*
X114742115Y-98702965D01*
X114722495Y-98804849D01*
X114663632Y-98882606D01*
X114572794Y-98931876D01*
X114457249Y-98948299D01*
X114457249Y-99285488D01*
X114605205Y-99267030D01*
X114739790Y-99211655D01*
X114853882Y-99122562D01*
X114940359Y-99002947D01*
X114994862Y-98859060D01*
X115013029Y-98697152D01*
X114999077Y-98535728D01*
X114957219Y-98400271D01*
X114887455Y-98290781D01*
X114792242Y-98210360D01*
X114674032Y-98162107D01*
X114532826Y-98146023D01*
X114406089Y-98162301D01*
X114277028Y-98211135D01*
X114136048Y-98299502D01*
X113973558Y-98434377D01*
X113567769Y-98819237D01*
X113567769Y-98091375D01*
X113296855Y-98091375D01*
X113296855Y-99251769D01*
X113098417Y-99251769D01*
X113098417Y-97405370D01*
X113296855Y-97405370D01*
X114989775Y-97992544D01*
X114989775Y-97605358D01*
X113716597Y-97223986D01*
X114989775Y-96840288D01*
X114989775Y-96451940D01*
X113296855Y-97041439D01*
X113296855Y-97405370D01*
X113098417Y-97405370D01*
X113098417Y-95677569D01*
X113296855Y-95677569D01*
X114989775Y-95677569D01*
X114989775Y-95328753D01*
X113296855Y-95328753D01*
X113296855Y-95677569D01*
X113098417Y-95677569D01*
X113098417Y-93977672D01*
X113296855Y-93977672D01*
X114410740Y-94656701D01*
X113296855Y-94656701D01*
X113296855Y-95005517D01*
X114989775Y-95005517D01*
X114989775Y-94656701D01*
X113873564Y-93976510D01*
X114989775Y-93976510D01*
X114989775Y-93628856D01*
X113296855Y-93628856D01*
X113296855Y-93977672D01*
X113098417Y-93977672D01*
X113098417Y-93628658D01*
X113103505Y-93525101D01*
G37*
%TD*%
M02*
